<?xml version="1.0" encoding="UTF-8"?>
<svg version="1.1" xmlns="http://www.w3.org/2000/svg" width="303" height="552">
<path d="M0 0 C1.32 0 2.64 0 4 0 C3.40546697 13.81776765 3.40546697 13.81776765 0 19 C6.79562366 16.0551152 6.79562366 16.0551152 12 11 C11.89160368 6.88093996 9.91646857 3.58296298 8 0 C9.32 0 10.64 0 12 0 C12.66 1.65 13.32 3.3 14 5 C19.75125003 4.73757435 19.75125003 4.73757435 24.5625 1.9375 C27.79456655 -0.63157854 29.98217793 -0.3151233 34 0 C34 4.29 34 8.58 34 13 C34.85722656 12.14535156 35.71445312 11.29070313 36.59765625 10.41015625 C37.75185323 9.29349413 38.9068435 8.17765156 40.0625 7.0625 C40.62388672 6.49853516 41.18527344 5.93457031 41.76367188 5.35351562 C45.79163158 1.50969122 48.41189271 0.22067685 54 0 C51.61292343 2.45527876 49.27958729 4.78493285 46.5625 6.875 C43.2865342 9.59165456 40.68658136 12.71332315 38 16 C40.43929614 15.54994536 42.87611777 15.09035124 45.3125 14.625 C46.00279297 14.49867187 46.69308594 14.37234375 47.40429688 14.2421875 C50.83703314 13.57885682 53.05246458 12.96502361 56 11 C56.80092254 8.35308332 56.80092254 8.35308332 57.1875 5.375 C57.42533203 3.87066406 57.42533203 3.87066406 57.66796875 2.3359375 C57.77753906 1.56507812 57.88710938 0.79421875 58 0 C58.66 0 59.32 0 60 0 C60.21755666 5.4389165 60.10428384 9.87080814 58 15 C58.598125 15.495 59.19625 15.99 59.8125 16.5 C63.1315203 20.29316606 65.1066087 24.65460863 64.875 29.75 C64.91625 30.4925 64.9575 31.235 65 32 C67.4390706 34.20142332 67.4390706 34.20142332 70 36 C70 36.66 70 37.32 70 38 C70.639375 38.2475 71.27875 38.495 71.9375 38.75 C74 40 74 40 74.9375 41.9375 C75 44 75 44 73.6875 45.75 C72 47 72 47 70 47 C69.5359375 47.9590625 69.5359375 47.9590625 69.0625 48.9375 C68 51 68 51 67 52 C66.76636119 53.84891946 66.58696365 55.70488031 66.4375 57.5625 C66.35371094 58.57441406 66.26992187 59.58632813 66.18359375 60.62890625 C66.12300781 61.41136719 66.06242187 62.19382813 66 63 C64.60550891 63.483059 63.20933293 63.96125517 61.8125 64.4375 C61.03519531 64.70433594 60.25789063 64.97117187 59.45703125 65.24609375 C58.64621094 65.49488281 57.83539063 65.74367188 57 66 C56.23171875 66.24363281 55.4634375 66.48726563 54.671875 66.73828125 C50.94366567 67.10347135 47.89765517 65.98163832 44.4375 64.75 C43.4484668 64.42322266 43.4484668 64.42322266 42.43945312 64.08984375 C38.85979452 62.85944853 35.77050109 61.62245905 33 59 C33 58.34 33 57.68 33 57 C28.545 57.495 28.545 57.495 24 58 C24 59.94154109 26.09153612 61.44997509 27.3125 62.8125 C30.89685454 66.81765927 30.89685454 66.81765927 32.26171875 69.23046875 C34.50952331 71.51868327 36.27730601 71.44866942 39.39648438 71.50415039 C40.09064453 71.50278076 40.78480469 71.50141113 41.5 71.5 C48.62473737 71.68685449 54.45967048 73.02082448 61 76 C61 76.66 61 77.32 61 78 C61.99 78 62.98 78 64 78 C64.31453125 77.20335938 64.6290625 76.40671875 64.953125 75.5859375 C67.22366975 69.96428754 69.51989547 64.98814982 73 60 C74.10212277 57.696846 75.0508931 55.37276726 76 53 C77.98 53.33 79.96 53.66 82 54 C82.04125 53.0925 82.0825 52.185 82.125 51.25 C84.55879298 33.93127021 99.89798758 21.99084341 112.1875 11.375 C115.47100553 8.52441102 118.53729705 5.51247794 121.5546875 2.3828125 C124.31167121 -0.2549503 126.43642903 -0.10978937 130.125 -0.0625 C131.03507813 -0.05347656 131.94515625 -0.04445312 132.8828125 -0.03515625 C133.93082031 -0.01775391 133.93082031 -0.01775391 135 0 C132.00990224 9.89722359 126.51447079 18.58418625 119.75 26.3125 C115.64823232 31.0137568 113.14287724 35.15578934 111 41 C112.485 41.495 112.485 41.495 114 42 C113.22163335 46.88248169 111.29365088 50.85732724 109.15625 55.28125 C108.08406215 58.72963795 107.75807994 61.390501 107.546875 64.96484375 C107.08040785 72.54385513 105.51140749 79.69082227 103.75 87.0625 C103.46253906 88.33416016 103.17507812 89.60582031 102.87890625 90.91601562 C101.19182708 98.09531104 99.10757097 104.66266154 95.94360352 111.33251953 C94.30289315 115.97065703 95.2401948 120.25309819 96 125 C96 127.33333333 96 129.66666667 96 132 C96.29692012 134.33824592 96.62020847 136.67377689 97 139 C97.66 139 98.32 139 99 139 C99.23589844 138.00613281 99.47179687 137.01226562 99.71484375 135.98828125 C100.97469281 131.6025075 103.11758757 128.01222368 105.5625 124.1875 C106.00360107 123.49043945 106.44470215 122.79337891 106.89916992 122.07519531 C111.87715752 114.38719732 117.57616061 107.44823916 125 102 C125.66 102 126.32 102 127 102 C127.3403125 101.2265625 127.3403125 101.2265625 127.6875 100.4375 C130.71188082 94.82079277 132.91860618 91.30106793 139 89 C139.22816406 88.31421875 139.45632812 87.6284375 139.69140625 86.921875 C141.64587226 82.55787327 144.86963543 79.69697056 148.25 76.375 C148.90613281 75.70726563 149.56226563 75.03953125 150.23828125 74.3515625 C153.15180071 71.45541989 155.52701218 69.23335587 159.23828125 67.40234375 C162.78576058 65.601007 163.91880246 63.5804483 165.9375 60.1875 C171.07639336 52.11904812 176.65570832 46.7745849 186 44 C188.77036919 43.71467958 191.20618938 43.79681377 194 44 C193.875 45.875 193.875 45.875 193 48 C191.02416285 48.73519522 189.01822402 49.39072482 187 50 C181.50338658 53.18803579 177.82093587 56.28483063 175.9453125 62.48828125 C175.67460937 63.75027344 175.40390625 65.01226562 175.125 66.3125 C173.83455291 71.7605449 172.27954033 75.72283644 168.578125 79.95703125 C165.89288595 83.43321942 164.28093903 87.46909086 162.4921875 91.4609375 C160.85711105 94.24313564 159.86063582 94.74277789 157 96 C156.8453125 97.2684375 156.8453125 97.2684375 156.6875 98.5625 C155.94349277 102.28253613 155.07882165 103.36047144 152.6875 106.1875 C149.19306404 110.40221766 147.57721922 114.39020122 145.90234375 119.55859375 C144.79291882 122.56028458 143.06955209 124.58552257 141 127 C140.71640625 127.928125 140.4328125 128.85625 140.140625 129.8125 C138.88537497 133.32032199 137.30101742 135.38323255 134.875 138.1875 C131.66741243 141.59635958 131.66741243 141.59635958 131 146 C131.886875 145.401875 132.77375 144.80375 133.6875 144.1875 C141.54285714 139 141.54285714 139 144 139 C143.87625 138.05125 143.7525 137.1025 143.625 136.125 C143.67916671 129.40832734 147.99888673 124.07033417 152.484375 119.4296875 C161.64590032 111 161.64590032 111 167 111 C167.556875 109.2365625 167.556875 109.2365625 168.125 107.4375 C174.06346342 89.84410839 181.28731939 74.33450577 198.14453125 64.78515625 C210.97434535 59.35611913 220.8920839 59.28241667 234 64 C235.04671875 64.30164063 236.0934375 64.60328125 237.171875 64.9140625 C246.26451195 67.56800476 253.606956 72.01829488 259 80 C259.28488281 80.67289062 259.56976563 81.34578125 259.86328125 82.0390625 C261.25291059 84.4362925 262.19002927 84.7498363 264.75 85.6875 C269.23831053 87.74969673 271.00456959 90.48293913 273.49609375 94.64453125 C275.01504866 97.02356972 276.6788219 98.90041762 278.625 100.9375 C284.55659656 107.56461563 287.36357381 116.11425615 287 125 C285.88480318 130.63519811 283.46749295 134.31431832 279 138 C278.01 138.33 277.02 138.66 276 139 C275.67 139.99 275.34 140.98 275 142 C275.804375 142.268125 276.60875 142.53625 277.4375 142.8125 C278.283125 143.204375 279.12875 143.59625 280 144 C280.33 144.99 280.66 145.98 281 147 C279.36832523 150.16736868 278.16642915 150.93473367 274.8125 152.25 C273.884375 152.4975 272.95625 152.745 272 153 C272.515625 153.556875 273.03125 154.11375 273.5625 154.6875 C275 157 275 157 274.75 159.625 C274 162 274 162 273 164 C265.1867888 166.79043257 259.96304382 165.80058116 252.4921875 162.40625 C248.04265685 160.24536465 243.6195665 158.05634786 239.47265625 155.3515625 C236.52945017 153.74279583 233.9989331 153.28556187 230.6875 152.8125 C229.61886719 152.65394531 228.55023438 152.49539062 227.44921875 152.33203125 C226.64097656 152.22246094 225.83273438 152.11289063 225 152 C224.443125 153.175625 224.443125 153.175625 223.875 154.375 C221.47570335 157.73401531 220.03159227 158.25518856 216 159 C212.37890625 158.57421875 212.37890625 158.57421875 208.5625 157.6875 C198.99251791 155.51830406 188.68189461 153.19682312 179 156 C171.30157078 158.17256285 164.15106461 157.76297167 157.01171875 154.1484375 C149.40217391 149.80434783 149.40217391 149.80434783 148 147 C144.12588876 147.61761194 141.02505486 148.79432829 137.5 150.5 C131.46444823 153.3455284 125.37851643 156.0480545 119.25 158.6875 C117.93805664 159.25791016 117.93805664 159.25791016 116.59960938 159.83984375 C109.88408543 162.72300142 103.15302969 165.24815979 96.05078125 167 C88.619101 168.84913144 88.619101 168.84913144 82.84375 173.62890625 C81.28469364 176.49979415 81.28469364 176.49979415 80.17578125 179.37890625 C78.05412098 184.10858744 74.9926945 186.33724498 70.25 188.1875 C65.79319863 189.87367856 61.74062736 190.64884242 57 191 C57.268125 191.86625 57.53625 192.7325 57.8125 193.625 C58.01513813 197.27248636 57.85892179 197.70834166 55.6875 200.375 C53 203 53 203 51 203 C49.52188518 204.82694992 48.11723775 206.71365744 46.75 208.625 C42.21088267 214.84126112 37.94444439 220.3541667 31 224 C29.6696875 224.7425 29.6696875 224.7425 28.3125 225.5 C17.78115446 230.26891119 8.38310805 230.3347973 -3 230 C-3 228.68 -3 227.36 -3 226 C-2.05640625 226.03480469 -1.1128125 226.06960937 -0.140625 226.10546875 C10.43467321 226.32844191 20.7189265 225.69520419 30 220 C30.59941406 219.63648438 31.19882812 219.27296875 31.81640625 218.8984375 C37.46005543 215.12127895 40.89182612 210.27238276 44.8125 204.79296875 C47.54914241 201.29886281 50.2124548 199.25640991 54 197 C53.505 194.525 53.505 194.525 53 192 C52.02160156 191.85304687 52.02160156 191.85304687 51.0234375 191.703125 C45.40869116 190.74248993 41.39159819 189.69818795 37 186 C37 185.34 37 184.68 37 184 C32.74433453 182.83936396 29.3164922 183.23826608 25 184 C25.495 185.98 25.495 185.98 26 188 C20.25 188.125 20.25 188.125 18 187 C16.84339951 191.4224257 16.84339951 191.4224257 18.4375 195.5625 C18.953125 196.366875 19.46875 197.17125 20 198 C20.1875 200.8125 20.1875 200.8125 20 203 C19.01 202.67 18.02 202.34 17 202 C16.41015625 200.22265625 16.41015625 200.22265625 16.0625 198.0625 C15.48046313 194.84526875 15.48046313 194.84526875 13.1875 192.6875 C12.1046875 192.3471875 12.1046875 192.3471875 11 192 C8.25 190.5 8.25 190.5 6 189 C6 188.34 6 187.68 6 187 C5.21625 186.690625 4.4325 186.38125 3.625 186.0625 C1 185 1 185 -1 184 C-1 186.31 -1 188.62 -1 191 C-1.66 191 -2.32 191 -3 191 C-3 177.14 -3 163.28 -3 149 C-1.02 148.01 -1.02 148.01 1 147 C2.54367684 145.28511034 4.01752968 143.50614483 5.4375 141.6875 C10.88408638 134.74428641 16.8977234 129.08213374 23.953125 123.78125 C27.22330302 121.04893353 29.04090984 117.82958057 30.8125 114 C31.11091797 113.39671875 31.40933594 112.7934375 31.71679688 112.171875 C36.81893709 101.57600818 36.3039112 88.40395765 32.8515625 77.33203125 C32.57054687 76.56246094 32.28953125 75.79289062 32 75 C31.71898437 74.11699219 31.43796875 73.23398438 31.1484375 72.32421875 C29.76950934 69.5335308 28.79286674 69.1954316 26 68 C22.52814249 64.7885318 19.98860444 61.24436874 18.0625 56.9375 C13.92140214 48.23616481 5.36160263 44.87187511 -3 41 C-3 40.01 -3 39.02 -3 38 C2.85272256 38.45020943 7.08220119 41.03839227 12 44 C12.33 41.69 12.66 39.38 13 37 C12.01 37.66 11.02 38.32 10 39 C5.56684108 38.85699487 3.14045106 38.64375031 -0.7265625 36.4609375 C-3.35830647 33.61214248 -3.59525247 31.83511416 -3.59179688 28.00976562 C-3.56150391 27.26404297 -3.53121094 26.51832031 -3.5 25.75 C-3.48517578 24.98365234 -3.47035156 24.21730469 -3.45507812 23.42773438 C-3.26504231 18.00012608 -2.14074504 13.99507176 0 9 C0.24371623 5.9798303 0.18887287 3.02196599 0 0 Z M28 2 C27.34 2.66 26.68 3.32 26 4 C26.31559207 8.10269692 26.95904634 8.95904634 30 12 C30.33 8.7 30.66 5.4 31 2 C30.01 2 29.02 2 28 2 Z M125 3 C122.69 5.64 120.38 8.28 118 11 C118.33 11.66 118.66 12.32 119 13 C121.31 10.36 123.62 7.72 126 5 C125.67 4.34 125.34 3.68 125 3 Z M130 3 C130 6 130 6 130 6 Z M128 6 C122.82773385 10.6873662 119.01074507 16.31728181 115 22 C118.70336276 22 120.0293879 21.17507666 123 19 C124.90378782 16.39166698 124.90378782 16.39166698 126.375 13.4375 C126.89835938 12.46683594 127.42171875 11.49617187 127.9609375 10.49609375 C128.30382812 9.67238281 128.64671875 8.84867188 129 8 C128.67 7.34 128.34 6.68 128 6 Z M20.4375 8.5 C19.963125 8.995 19.48875 9.49 19 10 C20.98 10.66 22.96 11.32 25 12 C24.34 10.35 23.68 8.7 23 7 C21.75923698 6.88457803 21.75923698 6.88457803 20.4375 8.5 Z M14 12 C14 12.66 14 13.32 14 14 C13.443125 14.226875 12.88625 14.45375 12.3125 14.6875 C9.28843217 16.26835283 9.28843217 16.26835283 5 21 C15.89 19.515 15.89 19.515 27 18 C26.67 17.34 26.34 16.68 26 16 C25.01 16 24.02 16 23 16 C23 15.34 23 14.68 23 14 C19.62902617 12.50178941 17.79557881 12 14 12 Z M115 12 C114.278125 12.928125 113.55625 13.85625 112.8125 14.8125 C110.99810703 17.02379143 109.8703677 18.07235291 107.3125 19.5 C104.14291213 21.55594889 103.79808279 23.37235096 103 27 C102.83142517 29.75065232 102.83142517 29.75065232 103 32 C106.25642192 28.8858126 109.05583071 25.56273898 111.8125 22 C113.02873047 20.453125 113.02873047 20.453125 114.26953125 18.875 C116.26098409 16.2156334 116.26098409 16.2156334 115.76171875 13.625 C115.38466797 12.820625 115.38466797 12.820625 115 12 Z M39 20 C42.64881676 22.0717067 46.53233693 23.07568078 50.5625 24.125 C51.23474609 24.30675781 51.90699219 24.48851562 52.59960938 24.67578125 C55.48730855 25.43856971 57.9997421 26 61 26 C60.66466723 22.98200506 60.13434402 21.19118187 58.375 18.6875 C52.48372722 14.50159565 45.21971384 17.89756152 39 20 Z M15.875 22.1875 C15.11324463 22.32969971 14.35148926 22.47189941 13.56665039 22.6184082 C8.1965849 23.66012188 3.11760642 25.04600482 -2 27 C-0.82884146 30.33329739 0.11647596 32.86405627 3 35 C6.45295317 36.52336169 8.79980896 35.93347326 12.1875 34.625 C18.00910843 31.8612061 22.43207701 27.46302288 27 23 C23.00726561 20.33817708 20.32211735 21.30935805 15.875 22.1875 Z M34 23 C34.92994117 24.94113934 35.8692453 26.8777951 36.8125 28.8125 C37.33457031 29.89144531 37.85664062 30.97039063 38.39453125 32.08203125 C40.33304393 35.60531342 41.49268737 37.39021153 45.23046875 38.90234375 C49.15687002 39.04079231 51.96112309 37.39523032 55.3125 35.5625 C55.95767578 35.22412109 56.60285156 34.88574219 57.26757812 34.53710938 C58.85172198 33.70396705 60.42681282 32.85365096 62 32 C59.55355038 29.07741286 57.40364854 28.3162464 53.74609375 27.39453125 C52.72708984 27.13349609 51.70808594 26.87246094 50.65820312 26.60351562 C49.59537109 26.34248047 48.53253906 26.08144531 47.4375 25.8125 C46.37080078 25.53986328 45.30410156 25.26722656 44.20507812 24.98632812 C39.16313687 23.56663154 39.16313687 23.56663154 34 23 Z M22 29.375 C21.44054687 29.88289063 20.88109375 30.39078125 20.3046875 30.9140625 C16.15162035 34.61000157 16.15162035 34.61000157 14.6875 39.75 C15.24148533 45.5114474 18.88836366 49.18205197 23 53 C28.37482707 44.22111579 29.18750357 34.15644318 29 24 C26.57744521 24 23.80106728 27.71503015 22 29.375 Z M100 26 C92.4966213 34.28455237 89.46037857 38.58800602 90 50 C90.66 50 91.32 50 92 50 C96.6443723 44.13976609 100.637534 37.62688885 101 30 C100.58099565 27.81535435 100.58099565 27.81535435 100 26 Z M32 28 C31.91363281 28.85980469 31.82726563 29.71960938 31.73828125 30.60546875 C30.67904657 39.51664492 28.5889691 46.75359007 25 55 C28.87017197 55.07740344 30.94705097 55.00498389 33.80078125 52.28125 C37.34205725 47.48066583 38.8943059 43.35804674 38.5390625 37.375 C37.63013636 33.37045586 35.71510433 31.04621461 33 28 C32.67 28 32.34 28 32 28 Z M108 31 C105.95533203 33.70828828 104.16582296 36.55693175 102.375 39.4375 C101.89804688 40.18837891 101.42109375 40.93925781 100.9296875 41.71289062 C100.01359865 43.15954759 99.10406627 44.61038391 98.20214844 46.06591797 C97.19007482 47.69419725 96.14905443 49.30443303 95.1015625 50.91015625 C94.73804687 51.59980469 94.37453125 52.28945313 94 53 C94.33 53.66 94.66 54.32 95 55 C96.60902058 53.75625426 98.21203107 52.50473101 99.8125 51.25 C101.15248047 50.20585938 101.15248047 50.20585938 102.51953125 49.140625 C106.31035859 45.86917086 108.27413363 42.77330449 110.0625 38.125 C110.56716797 36.81789063 110.56716797 36.81789063 111.08203125 35.484375 C112.11976227 32.67587742 113.09835757 29.85520104 114 27 C111.60101016 27 109.60985471 29.54121009 108 31 Z M56 38 C59.96 38.33 63.92 38.66 68 39 C63.29504712 34.29504712 61.39744753 33.95191435 56 38 Z M41 40 C40.01 43.3 39.02 46.6 38 50 C40.31 52.31 42.62 54.62 45 57 C45.66 56.67 46.32 56.34 47 56 C46.80664062 55.43152344 46.61328125 54.86304688 46.4140625 54.27734375 C44.81863577 49.54635062 43.33099414 44.81205575 42 40 C41.67 40 41.34 40 41 40 Z M45 42 C45 42.66 45 43.32 45 44 C48.47325181 45.1577506 51.36067448 45.06866652 55 45 C54.01 44.67 53.02 44.34 52 44 C51.67 43.01 51.34 42.02 51 41 C47.94729537 40.84188612 47.94729537 40.84188612 45 42 Z M56 41 C57.95216435 42.95216435 59.53199953 43.84826645 62 45 C62 45.66 62 46.32 62 47 C61.38125 47.268125 60.7625 47.53625 60.125 47.8125 C57.7004767 48.95556848 57.7004767 48.95556848 56 52 C63.02402808 51.85055259 66.81743147 48.50096088 72 44 C66.42028161 41.16402743 62.22522631 40.89624623 56 41 Z M110 44 C109.39865234 44.76183594 109.39865234 44.76183594 108.78515625 45.5390625 C104.21285852 51.07558628 98.91785371 56.31658085 91.96875 58.6953125 C88.79297323 60.79989472 87.68030607 64.12303911 86.1875 67.5 C85.86330078 68.18964844 85.53910156 68.87929687 85.20507812 69.58984375 C84.39831713 71.36229938 83.69110292 73.17933007 83 75 C83.33 75.66 83.66 76.32 84 77 C91.26001593 74.0822631 98.40918717 70.59081283 104 65 C104.44378151 63.42969621 104.88151172 61.85743817 105.2890625 60.27734375 C106.54775619 56.2453744 108.35733646 52.4287404 110.07421875 48.57421875 C110.37972656 47.72472656 110.68523437 46.87523437 111 46 C110.67 45.34 110.34 44.68 110 44 Z M86 46 C85.01 49.63 84.02 53.26 83 57 C80.03 56.505 80.03 56.505 77 56 C73.04986415 63.24191573 72.88593617 70.82226063 75 78.75 C75.33 79.4925 75.66 80.235 76 81 C80.27261039 77.21682176 82.02711351 71.98915159 84.3125 66.875 C84.79267578 65.86695312 85.27285156 64.85890625 85.76757812 63.8203125 C88.81863582 56.98310918 89.45219987 53.12693737 87 46 C86.67 46 86.34 46 86 46 Z M47 48 C47.33 49.65 47.66 51.3 48 53 C51.79588866 52.45773019 53.47211993 50.79872437 56 48 C53.03 48 50.06 48 47 48 Z M36 52 C35.01 53.485 35.01 53.485 34 55 C36.75264252 58.05849168 39.00751252 59.87391379 43 61 C43.99 60.67 44.98 60.34 46 60 C45.278125 59.4225 44.55625 58.845 43.8125 58.25 C41.20833333 56.16666667 38.60416667 54.08333333 36 52 Z M60.25 54 C57.25283017 54.9222061 55.09719604 55.182188 52 55 C55.53411321 57.12046792 58.94393835 57.53199289 63 58 C63.33 56.35 63.66 54.7 64 53 C62.66893641 52.94304282 62.66893641 52.94304282 60.25 54 Z M53 59 C53.33 60.32 53.66 61.64 54 63 C56.41619823 63.25030977 56.41619823 63.25030977 59 63 C59.66 62.01 60.32 61.02 61 60 C58.36 59.67 55.72 59.34 53 59 Z M172 61 C170.77551086 62.80883767 169.59518892 64.64769772 168.4375 66.5 C167.79683594 67.5209375 167.15617188 68.541875 166.49609375 69.59375 C166.00238281 70.3878125 165.50867188 71.181875 165 72 C167.91517292 70.92598892 169.77810176 70.22189824 172 68 C172.40047444 65.67724823 172.7397104 63.34260643 173 61 C172.67 61 172.34 61 172 61 Z M197 70 C196.28714844 70.44472656 195.57429687 70.88945313 194.83984375 71.34765625 C190.43408699 74.14871461 187.02069307 76.65020198 184 81 C183.34 81.66 182.68 82.32 182 83 C182.66 83 183.32 83 184 83 C184.33 83.99 184.66 84.98 185 86 C187.2013866 82.19572508 187.2013866 82.19572508 188 78 C188.66 78.33 189.32 78.66 190 79 C189.2265625 80.3921875 189.2265625 80.3921875 188.4375 81.8125 C186.59903754 84.92757947 186.59903754 84.92757947 188 88 C188.33 87.67 188.66 87.34 189 87 C189.66 87.66 190.32 88.32 191 89 C192.98 84.38 194.96 79.76 197 75 C196.12695767 80.23825398 194.83097586 83.7217945 192.375 88.25 C191.16692687 90.48170762 190.06052736 92.68935379 189 95 C189.33 95.66 189.66 96.32 190 97 C193.45604947 92.10936396 196.26437671 87.78541096 198 82 C198.66 81.67 199.32 81.34 200 81 C199.67 82.32 199.34 83.64 199 85 C199.99 85.66 200.98 86.32 202 87 C202.66 86.67 203.32 86.34 204 86 C204.33 86.66 204.66 87.32 205 88 C205.67119549 86.5437455 206.33681807 85.08492133 207 83.625 C207.556875 82.40683594 207.556875 82.40683594 208.125 81.1640625 C209.12495013 79.08001567 209.12495013 79.08001567 209 77 C209.66 77 210.32 77 211 77 C210.67 78.65 210.34 80.3 210 82 C210.66 82 211.32 82 212 82 C212.33 82.99 212.66 83.98 213 85 C213.33 84.34 213.66 83.68 214 83 C214.99 83 215.98 83 217 83 C217.66 81.88625 218.32 80.7725 219 79.625 C219.37125 78.99851562 219.7425 78.37203125 220.125 77.7265625 C221.15068348 76.02527333 221.15068348 76.02527333 221 74 C221.66 74.33 222.32 74.66 223 75 C223 75.66 223 76.32 223 77 C223.66 77 224.32 77 225 77 C224.34 78.98 223.68 80.96 223 83 C226.97497544 79.59287819 228.86793788 75.67239145 231 71 C231 72.65 231 74.3 231 76 C231.66 76 232.32 76 233 76 C233.495 76.99 233.495 76.99 234 78 C234.61875 77.05125 235.2375 76.1025 235.875 75.125 C238 72 238 72 240 70 C224.79834011 64.38090459 211.53238125 60.19064266 197 70 Z M100.6875 70.125 C95.51906003 74.53892319 88.98878741 77.34779863 82.74609375 79.93359375 C80.50894658 81.29990511 80.05138341 82.42656038 79.1875 84.875 C78.93355469 85.55304688 78.67960937 86.23109375 78.41796875 86.9296875 C77.94216433 89.28647573 78.25444236 90.73796798 79 93 C82.04930132 94.01643377 84.17934819 94.33937829 87.19140625 93.09375 C89.51686272 91.80314133 91.76412362 90.43992039 94 89 C94.60714844 88.6184375 95.21429688 88.236875 95.83984375 87.84375 C98.11435271 86.3756073 100.08140571 84.91859429 102 83 C102.42686702 80.47225832 102.42686702 80.47225832 102.5625 77.625 C102.7826719 74.29096836 103.07766956 71.21672271 104 68 C102.59929023 67.88722912 102.59929023 67.88722912 100.6875 70.125 Z M70 70 C69.46605821 71.4117783 68.94834896 72.82970244 68.4375 74.25 C68.14746094 75.03890625 67.85742188 75.8278125 67.55859375 76.640625 C66.93638157 79.26871003 66.9712355 80.518558 68 83 C69.82785855 84.97325639 71.83204868 86.37403651 74 88 C74.33 88 74.66 88 75 88 C75.15840227 85.22796027 75.11392643 83.28101854 74.0625 80.6875 C72.65261312 77.12131554 72.38766329 73.81202237 72 70 C71.34 70 70.68 70 70 70 Z M157.30078125 72.5546875 C155.72647909 74.03026721 155.72647909 74.03026721 155.625 76.8125 C155.74875 77.534375 155.8725 78.25625 156 79 C159.39417765 75.87378374 161.6062718 73.43458973 163 69 C160.68372172 69 158.99425836 71.14008848 157.30078125 72.5546875 Z M240 71 C240 72.32 240 73.64 240 75 C240.99 74.67 241.98 74.34 243 74 C242.67 75.32 242.34 76.64 242 78 C242.99 78.33 243.98 78.66 245 79 C245.33 77.68 245.66 76.36 246 75 C246.66 75 247.32 75 248 75 C247.67 76.32 247.34 77.64 247 79 C247.99 79.33 248.98 79.66 250 80 C250.99 79.01 251.98 78.02 253 77 C251.59138651 75.98868775 250.17274547 74.99133233 248.75 74 C247.96109375 73.443125 247.1721875 72.88625 246.359375 72.3125 C243.86738917 70.67591051 243.86738917 70.67591051 240 71 Z M168 73 C167.67 73.66 167.34 74.32 167 75 C167.99 74.67 168.98 74.34 170 74 C169.34 73.67 168.68 73.34 168 73 Z M37 75 C35.84277155 78.47168534 36.50517311 80.16062695 37.453125 83.59375 C38.45434024 87.99909706 38.68577458 92.50161503 39 97 C42.83588207 94.23016952 46.44607814 91.59256757 49.6875 88.125 C52 86 52 86 54.8125 85.6875 C55.534375 85.790625 56.25625 85.89375 57 86 C53.41078499 92.1146163 48.5844975 95.97244243 43.13671875 100.40820312 C42.47800781 100.95798828 41.81929687 101.50777344 41.140625 102.07421875 C40.23618652 102.81031372 40.23618652 102.81031372 39.31347656 103.5612793 C37.66288463 105.04457515 37.66288463 105.04457515 38 108 C38.43570313 107.60167969 38.87140625 107.20335937 39.3203125 106.79296875 C43.0389242 103.48485315 46.48494671 101.15937331 51 99 C55.14644693 96.20355905 57.08946436 93.62550734 59 89 C59 88.34 59 87.68 59 87 C59.66 87 60.32 87 61 87 C60.4740625 88.670625 60.4740625 88.670625 59.9375 90.375 C58.62760669 93.80264476 58.62760669 93.80264476 60 96 C58.02 98.97 56.04 101.94 54 105 C54.66 105.99 55.32 106.98 56 108 C56.66 107.01 57.32 106.02 58 105 C57.67 106.98 57.34 108.96 57 111 C56.34 111 55.68 111 55 111 C54.401875 111.763125 53.80375 112.52625 53.1875 113.3125 C50.92850474 116.08783703 49.12166019 117.32496282 46 119 C41.90600846 121.03536033 41.90600846 121.03536033 40 125 C38.15234375 126.16796875 38.15234375 126.16796875 35.9375 127.1875 C35.20402344 127.53167969 34.47054687 127.87585938 33.71484375 128.23046875 C33.14894531 128.48441406 32.58304688 128.73835938 32 129 C32.33 129.99 32.66 130.98 33 132 C38.66104589 131.50341703 42.87674471 130.45489316 48 128 C48.33 128.99 48.66 129.98 49 131 C59.18122256 127.88610285 68.344605 122.10574376 77 116 C75.82255415 119.53233755 75.04394359 119.86308075 71.9375 121.6875 C71.20402344 122.12449219 70.47054687 122.56148437 69.71484375 123.01171875 C69.14894531 123.33785156 68.58304688 123.66398437 68 124 C68.99 124.495 68.99 124.495 70 125 C66.29210663 129.66135167 61.22738404 131.30970877 55.875 133.5 C54.97523437 133.87769531 54.07546875 134.25539062 53.1484375 134.64453125 C50.43808283 135.77773989 47.72103007 136.89268988 45 138 C44.12843262 138.35481445 43.25686523 138.70962891 42.35888672 139.07519531 C37.39880152 141.07737951 32.41894445 142.96978431 27.375 144.75 C26.16585938 145.17796875 24.95671875 145.6059375 23.7109375 146.046875 C22.81632812 146.36140625 21.92171875 146.6759375 21 147 C21 147.33 21 147.66 21 148 C31.89 147.67 42.78 147.34 54 147 C54.33 147.99 54.66 148.98 55 150 C51.7 150 48.4 150 45 150 C44.505 151.485 44.505 151.485 44 153 C55.56054418 154.6190114 66.37662405 155.17183899 78 154 C78 154.99 78 155.98 78 157 C74.08334973 157.02953391 70.16672887 157.04697503 66.25 157.0625 C65.15816406 157.07087891 64.06632812 157.07925781 62.94140625 157.08789062 C56.45142304 157.10709176 50.07856037 156.82776557 43.61669922 156.22924805 C34.72614417 155.45034982 25.84902073 156.00692353 17 157 C17 157.33 17 157.66 17 158 C18.96066406 158.18175781 18.96066406 158.18175781 20.9609375 158.3671875 C22.76564834 158.53620927 24.570334 158.70550012 26.375 158.875 C27.31859375 158.96305908 28.2621875 159.05111816 29.234375 159.1418457 C33.90500637 159.58441307 38.56845039 160.05312853 43.2265625 160.61328125 C44.03303223 160.70947754 44.83950195 160.80567383 45.67041016 160.90478516 C47.18915061 161.08909677 48.70712522 161.27986872 50.22412109 161.47802734 C54.11017904 161.94777061 57.19381493 161.76263635 61 161 C61.99 161.99 61.99 161.99 63 163 C65.91568148 162.79856185 65.91568148 162.79856185 69.125 162.125 C70.76855469 161.81949219 70.76855469 161.81949219 72.4453125 161.5078125 C73.28835937 161.34023437 74.13140625 161.17265625 75 161 C74 163 74 163 71.18359375 164.0546875 C65.90570554 165.43316993 60.48392756 165.71443876 55.0625 166.125 C53.46438477 166.25455078 53.46438477 166.25455078 51.83398438 166.38671875 C49.22309173 166.59746345 46.61186316 166.80171135 44 167 C44 167.33 44 167.66 44 168 C47.54159657 168.05841253 51.08306793 168.09373452 54.625 168.125 C56.12353516 168.15013672 56.12353516 168.15013672 57.65234375 168.17578125 C62.84088709 168.21014246 67.14923649 168.10254937 72 166 C72 166.66 72 167.32 72 168 C57.28567495 172.31414766 44.01096804 170.65881675 29 169 C29.66 169.33 30.32 169.66 31 170 C31 170.99 31 171.98 31 173 C29.515 173.495 29.515 173.495 28 174 C33.61 174.33 39.22 174.66 45 175 C45.33 175.66 45.66 176.32 46 177 C36.76984056 177.24908976 28.08078495 176.68944836 19 175 C18.505 175.99 18.505 175.99 18 177 C15.36 177 12.72 177 10 177 C15.43957658 180.62638439 20.53089174 181.51458816 27 181 C28.27875 180.690625 29.5575 180.38125 30.875 180.0625 C34.96891806 179.4370403 37.07010675 181.04353077 40.375 183.375 C41.92168015 184.57690934 43.46434519 185.78403541 45 187 C51.30217948 190.15108974 61.54179501 187.96103159 68 186 C74.80325649 182.79350392 78.59926911 178.58439385 82 172 C85.08223957 166.18718578 88.35142427 161.03457665 92.546875 155.9453125 C96.65727232 150.44268383 95.45289153 142.23718988 94.55078125 135.7890625 C94.18858561 133.74946438 93.81646488 131.71159948 93.43359375 129.67578125 C93 127 93 127 93.0625 123.375 C92.86645105 112.78835692 87.46934807 104.42083017 80.3125 97 C75.46390769 92.3545868 70.29361164 88.12546829 65 84 C64.13890625 83.32195312 63.2778125 82.64390625 62.390625 81.9453125 C54.09566423 75.73697229 47.18485749 74.67667119 37 75 Z M161 77 C159.46557968 78.9265894 159.46557968 78.9265894 158.25 81.125 C157.82203125 81.84945312 157.3940625 82.57390625 156.953125 83.3203125 C156.63859375 83.87460938 156.3240625 84.42890625 156 85 C161.18700231 83.5584192 161.18700231 83.5584192 165 80 C166.19027984 77.40084462 166.19027984 77.40084462 167 75 C164.43045815 75 163.18734832 75.65586611 161 77 Z M230 76 C231 78 231 78 231 78 Z M147 81 C144.52096474 85.24977473 144.83777598 89.21439138 145 94 C146.68997323 92.35697047 148.35216394 90.68528688 150 89 C150.78375 88.21625 151.5675 87.4325 152.375 86.625 C154.57075296 83.07801446 153.93159338 80.95927188 153 77 C150.62318376 77 148.62261773 79.53568644 147 81 Z M253 78 C251.68 80.31 250.36 82.62 249 85 C249.99 84.67 250.98 84.34 252 84 C252 83.34 252 82.68 252 82 C253.32 82.33 254.64 82.66 256 83 C255.34 81.35 254.68 79.7 254 78 C253.67 78 253.34 78 253 78 Z M237 79 C238 81 238 81 238 81 Z M220 80 C221 82 221 82 221 82 Z M219 82 C220 84 220 84 220 84 Z M181 83 C182 85 182 85 182 85 Z M256 83 C256 83.66 256 84.32 256 85 C256.66 84.67 257.32 84.34 258 84 C257.34 83.67 256.68 83.34 256 83 Z M180 85 C179.319375 86.093125 178.63875 87.18625 177.9375 88.3125 C177.36322266 89.23482422 177.36322266 89.23482422 176.77734375 90.17578125 C175.68887926 92.17133075 175.68887926 92.17133075 177 95 C177.69710731 93.71349294 178.38242876 92.42059335 179.0625 91.125 C179.44535156 90.40570313 179.82820312 89.68640625 180.22265625 88.9453125 C180.60744141 87.98238281 180.60744141 87.98238281 181 87 C180.67 86.34 180.34 85.68 180 85 Z M211 85 C212 87 212 87 212 87 Z M258 85 C257.67 86.32 257.34 87.64 257 89 C257.66 88.67 258.32 88.34 259 88 C258.67 87.01 258.34 86.02 258 85 Z M183 86 C181.37492804 88.8331162 181.37492804 88.8331162 180 92 C180.33 92.99 180.66 93.98 181 95 C182.62507196 92.1668838 182.62507196 92.1668838 184 89 C183.67 88.01 183.34 87.02 183 86 Z M223.921875 89.875 C220.17517396 94.01769383 217.30925999 98.92570503 215 104 C215.33 104.66 215.66 105.32 216 106 C217.65 105.67 219.3 105.34 221 105 C221 105.99 221 106.98 221 108 C220.01 108.33 219.02 108.66 218 109 C217.07606836 110.86196946 217.07606836 110.86196946 217 113 C217.66 113.99 218.32 114.98 219 116 C220.47703393 118.40989747 221.09643109 119.42141344 220.625 122.25 C220.315625 123.11625 220.315625 123.11625 220 124 C219.0409375 124.185625 219.0409375 124.185625 218.0625 124.375 C217.381875 124.58125 216.70125 124.7875 216 125 C215.67 125.66 215.34 126.32 215 127 C212.47504694 127.81047876 209.92645198 128.40749492 207.34765625 129.0234375 C204.82801341 129.7586457 204.82801341 129.7586457 204.06640625 132.0546875 C203.53853516 133.01761719 203.53853516 133.01761719 203 134 C200.1796875 134.609375 200.1796875 134.609375 196.875 134.75 C195.77929688 134.80671875 194.68359375 134.8634375 193.5546875 134.921875 C192.71164063 134.94765625 191.86859375 134.9734375 191 135 C191 135.33 191 135.66 191 136 C197.93 136.495 197.93 136.495 205 137 C205 137.66 205 138.32 205 139 C202.36 139 199.72 139 197 139 C197 139.66 197 140.32 197 141 C195.02 141 193.04 141 191 141 C191 141.33 191 141.66 191 142 C197.27 142 203.54 142 210 142 C209.67 142.66 209.34 143.32 209 144 C206.9375 144.625 206.9375 144.625 205 145 C205 146.65 205 148.3 205 150 C200.71 149.67 196.42 149.34 192 149 C194.17258443 151.17258443 194.98562502 151.41834376 197.88671875 152.0703125 C198.66080078 152.24433594 199.43488281 152.41835937 200.23242188 152.59765625 C201.04259766 152.77167969 201.85277344 152.94570312 202.6875 153.125 C203.47833984 153.30675781 204.26917969 153.48851562 205.08398438 153.67578125 C213.1166779 155.70352936 213.1166779 155.70352936 220.84765625 153.9609375 C222.57123032 151.02794027 222.94481624 147.93818171 223.4375 144.625 C224.32503782 139.21187982 225.48748296 134.15237 227.25 128.9375 C228.7776648 124.19647132 229.49934725 120.89786768 228 116 C227.46375 115.01 226.9275 114.02 226.375 113 C224.59114184 109.10794583 224.90023267 107.10579802 226 103 C226.639375 102.0925 227.27875 101.185 227.9375 100.25 C230.7962993 95.74522535 231.29340469 91.22508635 232 86 C228.21904235 86 226.68266431 87.42096506 223.921875 89.875 Z M243 86 C243.56739868 90.12973628 243.56739868 90.12973628 245 94 C245.99 93.34 246.98 92.68 248 92 C248 92.99 248 93.98 248 95 C247.01 95.495 247.01 95.495 246 96 C246.33 96.99 246.66 97.98 247 99 C246.34 99 245.68 99 245 99 C244.01 100.98 243.02 102.96 242 105 C244.86697492 103.71480435 246.97607712 102.42870746 249 100 C249 99.34 249 98.68 249 98 C249.66 98 250.32 98 251 98 C250.42655063 100.86724686 250.1385485 101.8614515 248 104 C250.9254644 104.2236068 250.9254644 104.2236068 253 103 C252.38125 104.0725 251.7625 105.145 251.125 106.25 C249.66793341 108.79857937 248.27406449 111.35386606 247 114 C246.67 114.66 246.34 115.32 246 116 C251.44654645 114.29911604 253.1832128 111.57163057 255.88671875 106.73046875 C257.60666333 102.51207837 257.55093643 99.26099377 256 95 C253.45424784 90.409628 249.82812823 87.93125129 245 86 C244.34 86 243.68 86 243 86 Z M152 90 C148.33118657 93.99819508 148.33118657 93.99819508 147 99 C151.09344678 98.4548447 153.26355069 96.29134623 156.25 93.5625 C157.14203125 92.75941406 158.0340625 91.95632812 158.953125 91.12890625 C161.23102743 89.25192933 161.23102743 89.25192933 161 87 C157.11465884 87 155.30690973 87.94971597 152 90 Z M99 88 C98.49210937 88.32613281 97.98421875 88.65226562 97.4609375 88.98828125 C93.40063539 91.56588877 89.35189823 93.93284834 85 96 C86.37287342 99.69876091 88.06355453 102.9514476 90.125 106.3125 C90.66382812 107.19550781 91.20265625 108.07851562 91.7578125 108.98828125 C92.16773437 109.65214844 92.57765625 110.31601563 93 111 C95.91577627 108.08422373 96.56105977 104.48891465 97.6875 100.625 C97.92533203 99.85671875 98.16316406 99.0884375 98.40820312 98.296875 C98.62798828 97.55179688 98.84777344 96.80671875 99.07421875 96.0390625 C99.27619873 95.36053223 99.47817871 94.68200195 99.6862793 93.98291016 C100.04608633 91.70870567 99.69470212 90.17622661 99 88 Z M186 88 C187 90 187 90 187 90 Z M203 88 C204 90 204 90 204 90 Z M259 88 C259.33 89.98 259.66 91.96 260 94 C260.6814823 92.10820797 260.6814823 92.10820797 261 90 C260.34 89.34 259.68 88.68 259 88 Z M141 89 C140.01 90.485 140.01 90.485 139 92 C138.34515625 92.31066406 137.6903125 92.62132813 137.015625 92.94140625 C133.81174768 94.62406275 133.09951949 97.09919935 131.75 100.3359375 C130.47341044 104.87048999 130.68610905 109.33523172 131 114 C131.57105469 113.28328125 132.14210937 112.5665625 132.73046875 111.828125 C134.19067391 110.00852339 135.67106415 108.2048432 137.17578125 106.421875 C141.40163334 101.39186107 141.40163334 101.39186107 143.29296875 95.28515625 C143.0279963 92.5615652 143.0279963 92.5615652 142 89 C141.67 89 141.34 89 141 89 Z M199 89 C200 91 200 91 200 91 Z M263 89 C263.90396163 95.19281179 264.92078279 98.91184956 270 103 C270.99 103.66 271.98 104.32 273 105 C273.99 104.67 274.98 104.34 276 104 C274.46581392 100.74175332 272.64237592 97.79451637 270.625 94.8125 C270.03976562 93.93207031 269.45453125 93.05164063 268.8515625 92.14453125 C266.87526641 89.85553008 265.95012764 89.331402 263 89 Z M185 90 C186 92 186 92 186 92 Z M49 91 C48.67 91.66 48.34 92.32 48 93 C48.99 92.67 49.98 92.34 51 92 C50.34 91.67 49.68 91.34 49 91 Z M198 91 C199 93 199 93 199 93 Z M184 92 C185 94 185 94 185 94 Z M183 94 C184 96 184 96 184 96 Z M196 94 C197 96 197 96 197 96 Z M175 95 C176 98 176 98 176 98 Z M179 95 C180 97 180 97 180 97 Z M182 96 C183 98 183 98 183 98 Z M261 96 C260.01 97.485 260.01 97.485 259 99 C260.32 98.67 261.64 98.34 263 98 C262.34 97.34 261.68 96.68 261 96 Z M178 97 C179 99 179 99 179 99 Z M174 98 C175 100 175 100 175 100 Z M181 98 C182 100 182 100 182 100 Z M187 98 C188 100 188 100 188 100 Z M152 99 C151.608125 99.433125 151.21625 99.86625 150.8125 100.3125 C149 102 149 102 145.875 102.9375 C139.98037639 105.23476231 136.25789752 111.8656717 133 117 C133 117.66 133 118.32 133 119 C138.24415539 117.87965771 143.96362148 115.61564162 147.33203125 111.2890625 C148.28102573 109.55743114 149.14242265 107.77867895 150 106 C151.33333333 104.33333333 152.66666667 102.66666667 154 101 C154 100.34 154 99.68 154 99 C153.34 99 152.68 99 152 99 Z M177 99 C178 101 178 101 178 101 Z M191 103 C189 104 187 105 185 106 C179.9945781 108.64992924 178.39936544 110.63705366 176.79296875 115.8359375 C175.63657793 118.99180212 173.79701776 121.58591116 171.890625 124.3359375 C171.44976562 125.15964844 171.44976562 125.15964844 171 126 C172.74955361 129.49910721 176.45933289 130.12618429 180.00390625 131.34765625 C183.92744948 132.20193489 186.45185591 131.87609287 190.125 130.328125 C193.48313899 127.94944321 194.5533588 124.71779292 196 121 C196.66 120.01 197.32 119.02 198 118 C197.34 117.34 196.68 116.68 196 116 C195.01 116.33 194.02 116.66 193 117 C195.16687491 114.72478134 197.45620509 112.84205838 200 111 C199.67 110.01 199.34 109.02 199 108 C195.535 109.485 195.535 109.485 192 111 C192.99 109.35 193.98 107.7 195 106 C194.34 106 193.68 106 193 106 C193 105.01 193 104.02 193 103 C193.61875 102.855625 194.2375 102.71125 194.875 102.5625 C197.03258322 102.06847775 197.03258322 102.06847775 199 101 C199 100.34 199 99.68 199 99 C195.7518062 99 193.64788553 101.21776935 191 103 Z M49.375 102.5 C48.59125 103.325 47.8075 104.15 47 105 C49.99152582 104.22520264 49.99152582 104.22520264 53 103 C53.33 102.01 53.66 101.02 54 100 C51.63721264 99.77011494 51.63721264 99.77011494 49.375 102.5 Z M173 100 C174 102 174 102 174 102 Z M176 101 C177 103 177 103 177 103 Z M228.8125 103 C228.214375 103.66 227.61625 104.32 227 105 C229.02045442 104.39816251 231.02111039 103.72693904 233 103 C233.33 102.34 233.66 101.68 234 101 C230.87501834 100.6626154 230.87501834 100.6626154 228.8125 103 Z M264 101 C262.5393715 103.64738916 262 104.89448334 262 108 C262.99 108 263.98 108 265 108 C264 111 264 111 261 113 C259.80767387 115.05003955 259.80767387 115.05003955 259 117 C261.16874252 116.49396008 262.99967627 116.00016187 265 115 C265.33 115.99 265.66 116.98 266 118 C265.38125 118.103125 264.7625 118.20625 264.125 118.3125 C261.63473516 118.87525373 261.63473516 118.87525373 260 122 C260 122.99 260 123.98 260 125 C259.34 125.66 258.68 126.32 258 127 C257.3574765 129.06874034 257.3574765 129.06874034 257 131 C257.66 131 258.32 131 259 131 C259.33 132.65 259.66 134.3 260 136 C263.02277629 135.68002143 263.99165395 135.00866588 266.140625 132.77734375 C270.57249738 126.81073038 272.89799699 123.44054646 272 116 C272.2475 115.154375 272.495 114.30875 272.75 113.4375 C273.14183593 109.61709971 271.29961653 106.89237483 269 104 C266.41796279 102.06305417 266.41796279 102.06305417 264 101 Z M125.8125 105 C124.86532891 105.99084468 123.92860226 106.99173213 123 108 C122.50886719 108.51175781 122.01773438 109.02351563 121.51171875 109.55078125 C117.70600956 113.98585836 115.85860126 118.62545063 114.125 124.125 C113.90972656 124.80602783 113.69445312 125.48705566 113.47265625 126.1887207 C112.28601556 130.22555839 111.77757649 133.80012075 112 138 C115.44957371 134.64184608 118.59660384 131.17876604 121.625 127.4375 C122.38039063 126.50808594 123.13578125 125.57867187 123.9140625 124.62109375 C124.60242188 123.75613281 125.29078125 122.89117187 126 122 C126.58136719 121.38769531 127.16273438 120.77539062 127.76171875 120.14453125 C129.60378135 116.95433451 129.31910144 113.82011079 129.1875 110.25 C129.17396484 109.55261719 129.16042969 108.85523437 129.14648438 108.13671875 C129.1112945 106.42414459 129.05749155 104.71197059 129 103 C127.62900873 102.88753847 127.62900873 102.88753847 125.8125 105 Z M240 104 C239.67 104.66 239.34 105.32 239 106 C239.99 105.67 240.98 105.34 242 105 C241.34 104.67 240.68 104.34 240 104 Z M277 105 C277.66 106.65 278.32 108.3 279 110 C279.33 109.34 279.66 108.68 280 108 C279.01 107.01 278.02 106.02 277 105 Z M43 106 C42.67 106.66 42.34 107.32 42 108 C43.32 107.67 44.64 107.34 46 107 C45.01 106.67 44.02 106.34 43 106 Z M260 108 C259.67 108.66 259.34 109.32 259 110 C259.99 109.67 260.98 109.34 262 109 C261.34 108.67 260.68 108.34 260 108 Z M38 110 C37.67 110.66 37.34 111.32 37 112 C37.99 111.67 38.98 111.34 40 111 C39.34 110.67 38.68 110.34 38 110 Z M45.5625 113.6875 C43.52443136 115.39947765 41.31903877 116.70406657 39 118 C39.66 118.66 40.32 119.32 41 120 C42.81613362 118.71344735 44.62780954 117.42060005 46.4375 116.125 C47.44683594 115.40570313 48.45617187 114.68640625 49.49609375 113.9453125 C52.05796247 112.2440274 52.05796247 112.2440274 53 110 C49.3012803 110 48.24824319 111.32404599 45.5625 113.6875 Z M280 110 C279.34 111.32 278.68 112.64 278 114 C279.32 114.33 280.64 114.66 282 115 C281.67 113.35 281.34 111.7 281 110 C280.67 110 280.34 110 280 110 Z M230 113 C231 115 231 115 231 115 Z M114 116 C115 118 115 118 115 118 Z M282 116 C280.68 117.32 279.36 118.64 278 120 C278.99 121.485 278.99 121.485 280 123 C279.01 123.495 279.01 123.495 278 124 C278.33 125.98 278.66 127.96 279 130 C277.68 129.67 276.36 129.34 275 129 C275 129.66 275 130.32 275 131 C274.01 131.33 273.02 131.66 272 132 C271.34 132.66 270.68 133.32 270 134 C269.34 134.33 268.68 134.66 268 135 C268 135.99 268 136.98 268 138 C264.7 138.66 261.4 139.32 258 140 C258.99135641 142.6273026 258.99135641 142.6273026 261 145 C264.39148413 145.43164344 267.00200698 145.24275506 270.3125 144.4375 C272.35889785 142.97467973 272.35889785 142.97467973 272.875 139.5625 C274 136 274 136 276.9375 134.25 C277.948125 133.8375 278.95875 133.425 280 133 C282.4656856 130.95943261 282.95657975 130.13026076 284 127 C284.19459037 125.04413253 284.19459037 125.04413253 284.1875 123 C284.20876953 121.9790625 284.20876953 121.9790625 284.23046875 120.9375 C284.10940411 118.67385868 284.10940411 118.67385868 282 116 Z M113 118 C106.257749 127.49112007 99.44880248 137.13293862 99.6640625 149.1875 C99.86866609 151.24626718 99.86866609 151.24626718 102 153 C108.92757972 145.27527412 110.35603531 137.99775155 111.66650391 128.09277344 C112.21279097 124.66468213 113.10715005 121.35289645 114 118 C113.67 118 113.34 118 113 118 Z M136.7265625 120.88671875 C134.92968581 122.04533833 133.16640526 122.7622654 131.1875 123.5625 C123.81674649 127.10613149 118.96618592 135.10609324 115 142 C119.87902505 141.39012187 123.77056714 139.3775397 128 137 C128.60199219 136.66226563 129.20398438 136.32453125 129.82421875 135.9765625 C136.43382606 131.78800236 140.69797313 124.97452505 144 118 C140.58668629 118 139.4236502 118.95358446 136.7265625 120.88671875 Z M231 119 C230.67 121.97 230.34 124.94 230 128 C231.32 127.67 232.64 127.34 234 127 C234.99 127 235.98 127 237 127 C235.73058503 123.08597051 234.48832306 121.20927127 231 119 Z M29 123 C28.67 123.66 28.34 124.32 28 125 C28.99 124.67 29.98 124.34 31 124 C30.34 123.67 29.68 123.34 29 123 Z M239 129 C238.34 129.66 237.68 130.32 237 131 C237 131.99 237 132.98 237 134 C238.65 133.67 240.3 133.34 242 133 C241.67 134.32 241.34 135.64 241 137 C241.99 136.67 242.98 136.34 244 136 C244.99 137.485 244.99 137.485 246 139 C246.66 138.67 247.32 138.34 248 138 C247.34 139.32 246.68 140.64 246 142 C246.99 142 247.98 142 249 142 C249 142.99 249 143.98 249 145 C249.99 145 250.98 145 252 145 C252 145.66 252 146.32 252 147 C249.69 147.66 247.38 148.32 245 149 C245 149.33 245 149.66 245 150 C249.62 150 254.24 150 259 150 C259.33 149.34 259.66 148.68 260 148 C256.66875324 140.355071 252.79552732 134.32294195 245 131 C241.69607984 129.70095992 241.69607984 129.70095992 239 129 Z M148 133 C149 135 149 135 149 135 Z M33 135 C31.02 135.99 29.04 136.98 27 138 C29.12939828 139.35026777 29.12939828 139.35026777 32.125 138.0625 C33.548125 137.5365625 33.548125 137.5365625 35 137 C34.34 136.34 33.68 135.68 33 135 Z M119.140625 143.4921875 C116 145 116 145 112.7890625 146.0078125 C108.68138193 147.46908822 107.48629666 149.48993413 105 153 C105 153.66 105 154.32 105 155 C104.34 155.33 103.68 155.66 103 156 C104.96928813 157.2602544 104.96928813 157.2602544 107.13671875 156.43359375 C112.36930567 154.39024051 116.36503481 152.23997318 120.4609375 148.38671875 C122 147 122 147 124.9375 145.25 C125.9584375 144.63125 125.9584375 144.63125 127 144 C127 143.34 127 142.68 127 142 C127.66 142 128.32 142 129 142 C129.33 141.01 129.66 140.02 130 139 C126.1004642 139 122.53974571 141.72430311 119.140625 143.4921875 Z M226 139 C230 140 230 140 230 140 Z M142 142 C141.67 142.66 141.34 143.32 141 144 C142.32 143.67 143.64 143.34 145 143 C144.01 142.67 143.02 142.34 142 142 Z M242 146 C246 147 246 147 246 147 Z M271 146 C270.67 146.66 270.34 147.32 270 148 C272.64 148 275.28 148 278 148 C277.67 147.34 277.34 146.68 277 146 C275.02 146 273.04 146 271 146 Z M237 147 C237 147.33 237 147.66 237 148 C238.65 148 240.3 148 242 148 C242 147.67 242 147.34 242 147 C240.35 147 238.7 147 237 147 Z M97 151 C95.35 154.3 93.7 157.6 92 161 C94.97 160.01 97.94 159.02 101 158 C100.01 155.69 99.02 153.38 98 151 C97.67 151 97.34 151 97 151 Z M258.2109375 152.21875 C257.26992188 152.26386719 256.32890625 152.30898437 255.359375 152.35546875 C253.88210938 152.42701172 253.88210938 152.42701172 252.375 152.5 C250.88613281 152.57154297 250.88613281 152.57154297 249.3671875 152.64453125 C246.91143757 152.76259615 244.45570981 152.88110393 242 153 C247.5770434 156.71802894 253.13542244 159.70405924 260 159 C260 158.01 260 157.02 260 156 C261.65 155.67 263.3 155.34 265 155 C265 154.01 265 153.02 265 152 C262.73028248 152 260.47818649 152.10948499 258.2109375 152.21875 Z M11 158 C15 159 15 159 15 159 Z M19 161 C19 161.33 19 161.66 19 162 C21.31 162 23.62 162 26 162 C26 161.67 26 161.34 26 161 C23.69 161 21.38 161 19 161 Z M30 162 C30 162.33 30 162.66 30 163 C31.65 163 33.3 163 35 163 C35 162.67 35 162.34 35 162 C33.35 162 31.7 162 30 162 Z M35 166 C39 167 39 167 39 167 Z M3 168 C3 168.33 3 168.66 3 169 C4.65 169 6.3 169 8 169 C8 168.67 8 168.34 8 168 C6.35 168 4.7 168 3 168 Z M22 168 C22 168.33 22 168.66 22 169 C23.65 169 25.3 169 27 169 C27 168.67 27 168.34 27 168 C25.35 168 23.7 168 22 168 Z M9 169 C13 170 13 170 13 170 Z M13 170 C17 171 17 171 17 171 Z M17 171 C21 172 21 172 21 172 Z M21 172 C21 172.33 21 172.66 21 173 C22.65 173 24.3 173 26 173 C26 172.67 26 172.34 26 172 C24.35 172 22.7 172 21 172 Z " fill="#f2c3cf" transform="translate(3,0)"/>
<path d="M0 0 C0.99 0 1.98 0 3 0 C0.71983 7.11442653 -1.91438363 14.02677236 -4.75 20.9375 C-5.15476563 21.95779297 -5.55953125 22.97808594 -5.9765625 24.02929688 C-10.80624109 35.78101482 -16.80519191 43.45863511 -27 51 C-22.71 51.66 -18.42 52.32 -14 53 C-15 58 -15 58 -17.04296875 60.171875 C-20.71182509 62.44007152 -24.13226838 63.33849284 -28.3125 64.25 C-29.05306641 64.42273438 -29.79363281 64.59546875 -30.55664062 64.7734375 C-32.36836355 65.19422476 -34.18384332 65.5987809 -36 66 C-35.21520264 66.3242395 -35.21520264 66.3242395 -34.41455078 66.6550293 C-28.59356376 69.06603217 -22.7913523 71.51870295 -17 74 C-16.02289063 74.41507812 -15.04578125 74.83015625 -14.0390625 75.2578125 C-1.76052107 80.91516094 9.49280907 89.72015982 17 101 C18.1577506 104.47325181 18.06866652 107.36067448 18 111 C4.99667382 111.48409487 -6.52033393 110.79012081 -19 107 C-20.37865234 106.58427734 -20.37865234 106.58427734 -21.78515625 106.16015625 C-28.28040499 103.86833678 -33.87487959 100.04824618 -39.5703125 96.25390625 C-43.37932297 93.71990068 -47.32108622 91.43938704 -51.3046875 89.19140625 C-51.86414063 88.79824219 -52.42359375 88.40507812 -53 88 C-53 87.34 -53 86.68 -53 86 C-53.57105469 85.73445313 -54.14210938 85.46890625 -54.73046875 85.1953125 C-62.18960853 81.26674662 -70.17727046 74.64545908 -74 67 C-74.99 67 -75.98 67 -77 67 C-76.53657462 69.70331473 -75.969437 72.07550858 -74.9375 74.625 C-74 77 -74 77 -74 80 C-74.556875 80.515625 -75.11375 81.03125 -75.6875 81.5625 C-78.03334064 84.03514283 -79.02820825 85.99416858 -80.4375 89.0625 C-82.38873752 93.08323186 -83.60143633 95.46561733 -88 97 C-90.68071057 97.49012992 -93.27655957 97.76919996 -96 98 C-96.268125 98.969375 -96.53625 99.93875 -96.8125 100.9375 C-97.204375 101.948125 -97.59625 102.95875 -98 104 C-98.99 104.33 -99.98 104.66 -101 105 C-100.21625 105.7425 -99.4325 106.485 -98.625 107.25 C-96 110 -96 110 -94.9375 112.1875 C-94.16571857 114.12188483 -94.16571857 114.12188483 -92.35546875 114.80078125 C-89.0668754 116.47507339 -86.27128203 118.73727967 -83.375 121 C-82.49714844 121.67675781 -82.49714844 121.67675781 -81.6015625 122.3671875 C-79.28970673 124.15940597 -77.07048207 125.92951793 -75 128 C-73.17846186 128.7300236 -73.17846186 128.7300236 -71.0625 129.296875 C-70.2578833 129.53043701 -69.4532666 129.76399902 -68.62426758 130.00463867 C-67.32525513 130.37359253 -67.32525513 130.37359253 -66 130.75 C-64.1908525 131.28066789 -62.38227009 131.81326555 -60.57421875 132.34765625 C-59.6517334 132.61980957 -58.72924805 132.89196289 -57.77880859 133.17236328 C-53.44124577 134.46425732 -49.12110032 135.80221652 -44.8125 137.1875 C-44.04099609 137.42500977 -43.26949219 137.66251953 -42.47460938 137.90722656 C-40.61709908 138.51256834 -38.80218756 139.24574331 -37 140 C-36.67 140.99 -36.34 141.98 -36 143 C-44.78138575 146.62926162 -53.01744486 147.68985094 -62.40014648 147.83886719 C-64.56420771 147.87502854 -66.72555114 147.94320291 -68.88867188 148.015625 C-76.01185053 148.20972594 -82.63682317 147.90118685 -89.63232422 146.37817383 C-92.00049012 145.99992172 -93.77402081 146.07761063 -96.12890625 146.45703125 C-100.71845992 147.10077289 -104.42643817 146.54324649 -108.9375 145.6875 C-109.68451172 145.55666016 -110.43152344 145.42582031 -111.20117188 145.29101562 C-116.50132393 144.34439658 -121.75262705 143.20257149 -127 142 C-126.98428955 142.62455078 -126.9685791 143.24910156 -126.95239258 143.89257812 C-126.88947956 146.76162417 -126.85083269 149.63052442 -126.8125 152.5 C-126.78736328 153.48226562 -126.76222656 154.46453125 -126.73632812 155.4765625 C-126.64911807 164.1975684 -127.96185403 170.46817472 -134.1875 177 C-134.90292969 177.763125 -135.61835938 178.52625 -136.35546875 179.3125 C-136.89816406 179.869375 -137.44085938 180.42625 -138 181 C-115.92036068 189.60263176 -115.92036068 189.60263176 -93 187 C-88.17383515 184.41998614 -88.17383515 184.41998614 -85.25 179.98046875 C-84.81535966 177.88876566 -84.81535966 177.88876566 -86 175.6875 C-88.49550933 168.98081868 -84.66824491 162.1679894 -82 156 C-81.01 156 -80.02 156 -79 156 C-78.67 156.66 -78.34 157.32 -78 158 C-77.57589844 157.60167969 -77.15179688 157.20335937 -76.71484375 156.79296875 C-71.69988816 152.2629759 -67.24475079 149.27497888 -60.3125 148.6875 C-55.47482014 149.14388489 -55.47482014 149.14388489 -53 151 C-50.17923811 154.42521087 -49.46863636 157.44356053 -49.64453125 161.8828125 C-50.63167791 167.7623014 -54.14581179 172.59521348 -58 177 C-57.34 177.433125 -56.68 177.86625 -56 178.3125 C-55.34 178.869375 -54.68 179.42625 -54 180 C-54 180.99 -54 181.98 -54 183 C-58.33135388 183.68007538 -62.66508409 184.34304374 -67 185 C-67.80308594 185.12890625 -68.60617188 185.2578125 -69.43359375 185.390625 C-72.61340648 185.86170837 -75.02383321 185.9948595 -78.1875 185.3125 C-81.07740143 184.6727795 -81.07740143 184.6727795 -83.25 186.625 C-84.61125 187.800625 -84.61125 187.800625 -86 189 C-91.16021343 191.91400288 -96.35050254 194.20729193 -102 196 C-101.47156494 196.29656494 -100.94312988 196.59312988 -100.39868164 196.89868164 C-97.9489867 198.27915647 -95.5053198 199.66989609 -93.0625 201.0625 C-92.18456787 201.5589502 -91.30663574 202.05540039 -90.40209961 202.56689453 C-85.86049045 205.17890152 -81.8877859 207.75667919 -78.0625 211.375 C-76.1504833 213.08151504 -76.1504833 213.08151504 -74 214 C-71.05445946 213.70497766 -68.55050723 212.86944387 -65.75 211.9140625 C-60.71036419 210.68565127 -55.91576304 210.74370969 -50.75 210.8125 C-49.79577148 210.82466553 -48.84154297 210.83683105 -47.85839844 210.84936523 C-45.57176513 210.88780827 -43.28608013 210.93735447 -41 211 C-41.59831222 214.60502045 -41.87419938 214.90757505 -45.0625 217.25 C-46.031875 217.8275 -47.00125 218.405 -48 219 C-47.278125 219.70125 -46.55625 220.4025 -45.8125 221.125 C-39.36850893 227.62360116 -33.45170227 234.90201939 -32.75 244.375 C-33.09778262 249.41784806 -34.72018951 251.64490654 -38.125 255.25 C-42.0771457 257.65565391 -45.38965561 258.30835909 -50 258 C-57.7768762 255.87423248 -64.46255083 250.72429561 -70 245 C-70.268125 245.53625 -70.53625 246.0725 -70.8125 246.625 C-72.20833333 249.41666667 -73.60416667 252.20833333 -75 255 C-75.66 254.67 -76.32 254.34 -77 254 C-77.50244141 252.26928711 -77.50244141 252.26928711 -77.8515625 250.02734375 C-77.98046875 249.20943359 -78.109375 248.39152344 -78.2421875 247.54882812 C-78.36851563 246.68708984 -78.49484375 245.82535156 -78.625 244.9375 C-78.7590625 244.10283203 -78.893125 243.26816406 -79.03125 242.40820312 C-80.23889761 234.50304048 -80.55160514 227.65481541 -78 220 C-79.485 219.01 -79.485 219.01 -81 218 C-81 217.34 -81 216.68 -81 216 C-81.68449219 215.74992188 -82.36898437 215.49984375 -83.07421875 215.2421875 C-86.48383581 213.79457972 -89.6251942 211.99673128 -92.8125 210.125 C-97.7965003 207.23367856 -102.80464213 204.49377178 -108 202 C-107.71125 202.83402344 -107.4225 203.66804687 -107.125 204.52734375 C-104.89110897 211.29882594 -103.51682177 216.87312105 -104 224 C-103.13375 224.020625 -102.2675 224.04125 -101.375 224.0625 C-94.16769162 226.0645301 -90.77659009 233.6971179 -87.1015625 239.765625 C-86 242 -86 242 -86 245 C-89.34373475 244.44271087 -92.03312999 243.64826111 -95 242 C-94.52433594 243.10988281 -94.04867187 244.21976563 -93.55859375 245.36328125 C-91.71865748 250.27229596 -91.38675006 254.99144022 -91.0625 260.1875 C-90.0531354 274.94966505 -90.0531354 274.94966505 -83.1875 287.6875 C-79.63776544 290.26279762 -77.24631813 291.15073637 -73 292 C-73.1875 294.3125 -73.1875 294.3125 -74 297 C-79.06892943 301.05514354 -84.15431546 301.16789807 -90.375 300.5625 C-91.91759048 300.38275863 -93.45963043 300.19787356 -95 300 C-95.67812114 301.8708878 -96.3419946 303.74694293 -97 305.625 C-97.556875 307.19121094 -97.556875 307.19121094 -98.125 308.7890625 C-99.15405594 311.97190488 -99.15405594 311.97190488 -98.9375 315.2734375 C-98.958125 316.17320312 -98.97875 317.07296875 -99 318 C-99.99 318.66 -100.98 319.32 -102 320 C-102 319.34 -102 318.68 -102 318 C-102.57234375 317.73445313 -103.1446875 317.46890625 -103.734375 317.1953125 C-106.1076012 315.94323109 -108.12213286 314.5063648 -110.25 312.875 C-111.30960938 312.06675781 -111.30960938 312.06675781 -112.390625 311.2421875 C-113.18726563 310.62730469 -113.18726563 310.62730469 -114 310 C-114.66 312.97 -115.32 315.94 -116 319 C-120.30357759 317.9241056 -120.89541105 317.3827865 -123.5625 314.125 C-125.62391463 311.63661084 -127.67537129 309.24690557 -130 307 C-131.01320312 307.41572266 -131.01320312 307.41572266 -132.046875 307.83984375 C-132.93890625 308.20207031 -133.8309375 308.56429688 -134.75 308.9375 C-135.63171875 309.29714844 -136.5134375 309.65679688 -137.421875 310.02734375 C-139.6165305 310.85532742 -141.72491915 311.45660244 -144 312 C-144.02895976 308.87501937 -144.04678483 305.7500731 -144.0625 302.625 C-144.07087891 301.73554688 -144.07925781 300.84609375 -144.08789062 299.9296875 C-144.09111328 299.07890625 -144.09433594 298.228125 -144.09765625 297.3515625 C-144.10289307 296.56604004 -144.10812988 295.78051758 -144.11352539 294.97119141 C-144 293 -144 293 -143 291 C-143.144375 290.46375 -143.28875 289.9275 -143.4375 289.375 C-144.30344701 285.71877928 -144.86600634 282.66670769 -144 279 C-142.18030428 276.10836952 -140.13560971 273.47786903 -138.0390625 270.78125 C-132.35893079 263.0336374 -131.11490197 254.35930867 -130 245 C-130.99 244.67 -131.98 244.34 -133 244 C-131.81001009 237.09492694 -125.22282127 230.33112008 -120 226 C-117.36279968 224.78017139 -114.77598155 223.89396016 -112 223 C-111.28409653 213.83245835 -113.00971271 205.52827969 -118.625 198.0625 C-124.43672652 191.9740246 -132.84640077 190.59528067 -140.84765625 189.39453125 C-143 189 -143 189 -144 188 C-144.94560107 183.10006716 -144.94560107 183.10006716 -144 180 C-141.65634559 177.6865029 -139.21134177 175.89103213 -136.48046875 174.0546875 C-132.36167479 170.64289912 -131.15146021 167.45223613 -130.6015625 162.1796875 C-130.58951885 160.74482094 -130.59837922 159.30967014 -130.625 157.875 C-130.63080078 157.10816895 -130.63660156 156.34133789 -130.64257812 155.55126953 C-130.84459984 146.25640013 -132.3972854 137.13928923 -134 128 C-135.093125 128.020625 -136.18625 128.04125 -137.3125 128.0625 C-141 128 -141 128 -144 127 C-143.67 125.68 -143.34 124.36 -143 123 C-142.38479492 123.02094727 -141.76958984 123.04189453 -141.13574219 123.06347656 C-138.34066191 123.14677017 -135.54584285 123.19870013 -132.75 123.25 C-131.78191406 123.28351563 -130.81382812 123.31703125 -129.81640625 123.3515625 C-124.25376015 123.5366783 -124.25376015 123.5366783 -119.4140625 121.1484375 C-117.92737625 118.96718479 -117.92737625 118.96718479 -116.625 116.375 C-115 114 -115 114 -112.1875 113.1875 C-108.09570803 111.66310691 -106.79190911 109.50598175 -104.39453125 105.97265625 C-103 104 -103 104 -101.3046875 102.4765625 C-100.87414062 101.98929687 -100.44359375 101.50203125 -100 101 C-100.23477199 97.35458155 -100.23477199 97.35458155 -101 94 C-99.66195312 93.94392578 -99.66195312 93.94392578 -98.296875 93.88671875 C-97.12640625 93.82097656 -95.9559375 93.75523437 -94.75 93.6875 C-93.58984375 93.62949219 -92.4296875 93.57148438 -91.234375 93.51171875 C-87.80409989 92.96900614 -86.41284861 92.44590133 -84 90 C-82.75159563 87.89307658 -82.75159563 87.89307658 -81.875 85.5625 C-80.02015903 81.03270243 -80.02015903 81.03270243 -78.76953125 79.00390625 C-77.76094856 76.97437144 -77.76094856 76.97437144 -78.64453125 74.7109375 C-79.02996094 73.94007813 -79.41539063 73.16921875 -79.8125 72.375 C-80.19019531 71.59898437 -80.56789062 70.82296875 -80.95703125 70.0234375 C-81.30121094 69.35570312 -81.64539063 68.68796875 -82 68 C-83 66 -83 66 -83.375 63.125 C-84.04729927 59.76350367 -84.60116964 58.40396705 -87 56 C-93.32830908 54.92245242 -99.01120294 55.95836464 -105 58 C-109.07121592 57.88824113 -113.09213595 57.13979368 -117 56 C-117.24878906 56.56332031 -117.49757813 57.12664062 -117.75390625 57.70703125 C-119.2008769 60.36963868 -120.92674048 62.42211916 -122.9375 64.6875 C-123.62714844 65.47511719 -124.31679687 66.26273437 -125.02734375 67.07421875 C-127 69 -127 69 -130 70 C-129.34 70.33 -128.68 70.66 -128 71 C-129.0975223 73.99324263 -129.67682892 74.84610901 -132.625 76.25 C-133.40875 76.4975 -134.1925 76.745 -135 77 C-129.0870696 76.35729017 -123.65755469 74.80996216 -118 73 C-118.2578125 74.89453125 -118.2578125 74.89453125 -119 77 C-120.7421875 78.01171875 -120.7421875 78.01171875 -122.875 78.6875 C-123.92300781 79.03361328 -123.92300781 79.03361328 -124.9921875 79.38671875 C-125.65476562 79.58910156 -126.31734375 79.79148437 -127 80 C-128.485 80.495 -128.485 80.495 -130 81 C-123.64549677 79.75297849 -117.31672565 78.42635741 -111 77 C-110.67 77.99 -110.34 78.98 -110 80 C-116 82 -122 84 -128 86 C-117.95051642 84.6238545 -108.13443078 82.43709139 -98.875 78.1875 C-96 77 -96 77 -93 78 C-95.51031345 81.76547017 -98.22755197 82.53557573 -102.3125 84 C-103.02220947 84.26200195 -103.73191895 84.52400391 -104.46313477 84.79394531 C-110.108958 86.81990713 -115.72637997 88.23106169 -121.62109375 89.359375 C-122.40613281 89.57078125 -123.19117187 89.7821875 -124 90 C-124.33 90.66 -124.66 91.32 -125 92 C-127.0625 92.625 -127.0625 92.625 -129 93 C-128.67 93.66 -128.34 94.32 -128 95 C-128 98 -128 98 -129 101 C-130.65 101 -132.3 101 -134 101 C-134 101.66 -134 102.32 -134 103 C-128.06 101.68 -122.12 100.36 -116 99 C-116.33 100.32 -116.66 101.64 -117 103 C-122.9998486 106.13931472 -130.3443405 106.58933165 -137 107 C-137 107.99 -137 108.98 -137 110 C-140.13349732 111.04449911 -140.98968256 110.93423645 -144 110 C-144 73.375 -144 73.375 -143 71 C-140.375 69.796875 -140.375 69.796875 -137 68.75 C-127.64721097 65.35922983 -122.15852416 60.72080076 -117.4375 51.9375 C-115.32360547 47.34283668 -114.31709163 44.00799475 -115 39 C-115.37511719 39.67546875 -115.75023438 40.3509375 -116.13671875 41.046875 C-121.66907274 50.69017213 -121.66907274 50.69017213 -126 53 C-131.96776751 54.59635461 -137.83857662 55.27384104 -144 55 C-144 53.68 -144 52.36 -144 51 C-143.14277344 50.96261719 -142.28554687 50.92523438 -141.40234375 50.88671875 C-132.3031669 50.37987302 -132.3031669 50.37987302 -124 47 C-123.34 46.01 -122.68 45.02 -122 44 C-122.70125 44.45375 -123.4025 44.9075 -124.125 45.375 C-130.53861217 49.00008514 -136.77393694 49.51140499 -144 50 C-144.3125 46.6875 -144.3125 46.6875 -144 43 C-141.39341685 40.8865542 -139.1744041 40.0581347 -136 39 C-136 39.99 -136 40.98 -136 42 C-135.4225 41.319375 -134.845 40.63875 -134.25 39.9375 C-133.5075 39.298125 -132.765 38.65875 -132 38 C-130 38.375 -130 38.375 -128 39 C-125.78228936 38.14209817 -125.78228936 38.14209817 -124 37 C-124.33 38.32 -124.66 39.64 -125 41 C-122.3094472 39.77992056 -122.3094472 39.77992056 -120 38 C-127.80563342 34.09718329 -135.48792953 34.72108507 -144 35 C-143.67 33.68 -143.34 32.36 -143 31 C-134.350699 28.58760993 -127.23511017 30.2508408 -118.98046875 33.41796875 C-115.93236035 34.32145767 -115.93236035 34.32145767 -113.11328125 32.61328125 C-112.41589844 32.08089844 -111.71851563 31.54851562 -111 31 C-110.731875 31.639375 -110.46375 32.27875 -110.1875 32.9375 C-109.11332248 35.33131686 -109.11332248 35.33131686 -106 36 C-106 36.66 -106 37.32 -106 38 C-105.39542969 38.26039063 -104.79085937 38.52078125 -104.16796875 38.7890625 C-101.83342657 40.09304101 -100.86883972 41.23444868 -99.3125 43.375 C-96.34698781 47.01791345 -93.41275566 48.34153725 -89.11328125 50.046875 C-83.75475729 52.46365845 -81.2904876 56.8162649 -79 62 C-74.03088634 60.87302957 -74.03088634 60.87302957 -70 58 C-69.09997189 56.13688449 -68.22904977 54.25963497 -67.375 52.375 C-64.44817345 46.40685002 -61.01808384 42.29972744 -56 38 C-54.6696875 36.8553125 -54.6696875 36.8553125 -53.3125 35.6875 C-49.12004373 32.62814002 -44.55217813 30.15692147 -40.0625 27.5625 C-36.95529585 25.75563433 -33.91930261 23.94565278 -30.9375 21.9375 C-28.28082946 20.18522794 -25.626643 18.72841597 -22.8125 17.25 C-14.78438381 12.92379823 -7.15967123 7.77563835 -1 1 C-0.67 0.67 -0.34 0.34 0 0 Z M-22 20 C-22.33 20.66 -22.66 21.32 -23 22 C-21.68 21.34 -20.36 20.68 -19 20 C-19.99 20 -20.98 20 -22 20 Z M-10 22 C-9 24 -9 24 -9 24 Z M-11 24 C-11.42410156 24.70125 -11.84820312 25.4025 -12.28515625 26.125 C-16.07196745 32.25047922 -20.05903093 37.75866806 -25 43 C-24.67 43.66 -24.34 44.32 -24 45 C-21.95880212 43.38405168 -19.95927063 41.7143618 -18 40 C-18 39.34 -18 38.68 -18 38 C-17.34 38 -16.68 38 -16 38 C-14.96958487 36.04669132 -13.9509107 34.08718472 -12.9375 32.125 C-12.36902344 31.03445312 -11.80054688 29.94390625 -11.21484375 28.8203125 C-10.81394531 27.88960937 -10.41304687 26.95890625 -10 26 C-10.33 25.34 -10.66 24.68 -11 24 Z M-23 31 C-24.65 32.98 -26.3 34.96 -28 37 C-27.01 37 -26.02 37 -25 37 C-23.29467677 35.05990478 -23.29467677 35.05990478 -22 33 C-22.33 32.34 -22.66 31.68 -23 31 Z M-42 32 C-42.33 32.66 -42.66 33.32 -43 34 C-42.01 33.67 -41.02 33.34 -40 33 C-40.66 32.67 -41.32 32.34 -42 32 Z M-32 36 C-32.99 37.485 -32.99 37.485 -34 39 C-33.01 38.67 -32.02 38.34 -31 38 C-31.33 37.34 -31.66 36.68 -32 36 Z M-47 39 C-47.33 39.66 -47.66 40.32 -48 41 C-47.01 40.67 -46.02 40.34 -45 40 C-45.66 39.67 -46.32 39.34 -47 39 Z M-30 39 C-30 42 -30 42 -30 42 Z M-36 45 C-36.33 45.66 -36.66 46.32 -37 47 C-36.01 46.67 -35.02 46.34 -34 46 C-34.66 45.67 -35.32 45.34 -36 45 Z M-51.125 49.5 C-51.84945312 50.1496875 -52.57390625 50.799375 -53.3203125 51.46875 C-53.87460938 51.9740625 -54.42890625 52.479375 -55 53 C-50.94654898 53 -49.1784671 51.41839888 -46 49 C-45.67 48.01 -45.34 47.02 -45 46 C-47.94354357 46 -48.97578837 47.55877659 -51.125 49.5 Z M-58 48 C-58.99 49.485 -58.99 49.485 -60 51 C-59.01 50.67 -58.02 50.34 -57 50 C-57.33 49.34 -57.66 48.68 -58 48 Z M-51 66 C-45.36261815 70.96426163 -39.03794507 72.69509111 -32 75 C-30.77925781 75.40992188 -29.55851562 75.81984375 -28.30078125 76.2421875 C-22.19466359 78.60201787 -22.19466359 78.60201787 -16 78 C-19.45501768 76.55444091 -22.91458494 75.12008518 -26.375 73.6875 C-27.34050781 73.28337891 -28.30601563 72.87925781 -29.30078125 72.46289062 C-39.81693464 67.8256217 -39.81693464 67.8256217 -51 66 Z M-67 70 C-66.67 70.66 -66.34 71.32 -66 72 C-65.34 71.67 -64.68 71.34 -64 71 C-64.99 70.67 -65.98 70.34 -67 70 Z M-64 72 C-63.34 72.66 -62.68 73.32 -62 74 C-62 73.34 -62 72.68 -62 72 C-62.66 72 -63.32 72 -64 72 Z M-58 76 C-57.67 76.66 -57.34 77.32 -57 78 C-56.34 77.67 -55.68 77.34 -55 77 C-55.99 76.67 -56.98 76.34 -58 76 Z M-141 78 C-137 79 -137 79 -137 79 Z M-53 79 C-52.67 79.66 -52.34 80.32 -52 81 C-51.34 80.67 -50.68 80.34 -50 80 C-50.99 79.67 -51.98 79.34 -53 79 Z M-40 81 C-39.67 81.66 -39.34 82.32 -39 83 C-36.47266765 83.65555119 -36.47266765 83.65555119 -34 84 C-34 83.34 -34 82.68 -34 82 C-36.97 81.505 -36.97 81.505 -40 81 Z M-141 82 C-141 82.33 -141 82.66 -141 83 C-139.02 83 -137.04 83 -135 83 C-135 82.67 -135 82.34 -135 82 C-136.98 82 -138.96 82 -141 82 Z M-47 82 C-46.67 82.66 -46.34 83.32 -46 84 C-45.34 83.67 -44.68 83.34 -44 83 C-44.99 82.67 -45.98 82.34 -47 82 Z M-34 84 C-30.611779 86.79379626 -26.90283697 88.61865741 -22.9375 90.4375 C-22.27500244 90.74461914 -21.61250488 91.05173828 -20.92993164 91.36816406 C-16.13936076 93.55741276 -11.29193522 95.44186547 -6.30859375 97.15234375 C-4 98 -4 98 -0.5 99.8125 C2.03845745 101.37200333 2.03845745 101.37200333 5 100 C-3.76966911 95.3946989 -12.6163406 91.19186436 -21.8125 87.5 C-22.6777832 87.15001953 -23.54306641 86.80003906 -24.43457031 86.43945312 C-29.07350806 84.55080917 -29.07350806 84.55080917 -34 84 Z M-43 89 C-42.01 89.99 -41.02 90.98 -40 92 C-39.67 91.34 -39.34 90.68 -39 90 C-40.32 89.67 -41.64 89.34 -43 89 Z M-38 91 C-38.33 91.66 -38.66 92.32 -39 93 C-35.31435916 95.45579697 -35.31435916 95.45579697 -31 96 C-31 96.66 -31 97.32 -31 98 C-16.33473115 105.2923781 -16.33473115 105.2923781 -1 106 C-1.85078125 105.74347656 -2.7015625 105.48695313 -3.578125 105.22265625 C-15.46153543 101.46800423 -26.8524958 96.5737521 -38 91 Z M-142 96 C-142 96.33 -142 96.66 -142 97 C-138.04 97 -134.08 97 -130 97 C-130 96.67 -130 96.34 -130 96 C-133.96 96 -137.92 96 -142 96 Z M-139 100 C-139 100.33 -139 100.66 -139 101 C-137.35 101 -135.7 101 -134 101 C-134 100.67 -134 100.34 -134 100 C-135.65 100 -137.3 100 -139 100 Z M-104 109 C-104.515625 109.928125 -105.03125 110.85625 -105.5625 111.8125 C-107.3039981 114.48739096 -108.70170693 115.52529432 -111.6875 116.625 C-115.13087911 117.60264329 -115.13087911 117.60264329 -115.9375 120.1875 C-115.958125 120.785625 -115.97875 121.38375 -116 122 C-113.13358742 121.55901345 -111.71281884 120.79296242 -109.3125 119.0625 C-105.29517325 116.56114561 -101.6148978 115.77940496 -97 115 C-97.66 114.67 -98.32 114.34 -99 114 C-99.4640625 113.01 -99.4640625 113.01 -99.9375 112 C-100.8891846 109.65391779 -100.8891846 109.65391779 -104 109 Z M-107 120 C-110.47816412 121.80719233 -113.76513758 123.78855644 -117 126 C-115.04402145 128.39476536 -115.04402145 128.39476536 -111.390625 128.2421875 C-107.00110745 128.12917824 -102.97663164 127.25799441 -98.75 126.125 C-98.05648437 125.95097656 -97.36296875 125.77695312 -96.6484375 125.59765625 C-93.2288759 124.71328687 -90.07410382 123.75889445 -87 122 C-93.71283408 115.9387057 -98.91721324 116.71313786 -107 120 Z M-131 127 C-130.34 130.63 -129.68 134.26 -129 138 C-126.03 138.33 -123.06 138.66 -120 139 C-120.66 138.67 -121.32 138.34 -122 138 C-124.00603828 134.52286699 -125.4377929 130.6924895 -127 127 C-128.32 127 -129.64 127 -131 127 Z M-125 127 C-122.24952823 134.04445724 -119.53972183 136.432879 -113 140 C-112.34 140.66 -111.68 141.32 -111 142 C-104.83930012 143.40740127 -98.27943427 143.1179852 -92 143 C-92 142.67 -92 142.34 -92 142 C-92.77085938 141.82984375 -93.54171875 141.6596875 -94.3359375 141.484375 C-95.33882812 141.24203125 -96.34171875 140.9996875 -97.375 140.75 C-98.87160156 140.40195312 -98.87160156 140.40195312 -100.3984375 140.046875 C-103 139 -103 139 -104.2890625 137.015625 C-104.52367188 136.35046875 -104.75828125 135.6853125 -105 135 C-105.80635008 132.84371722 -105.80635008 132.84371722 -107.85766602 132.22216797 C-108.64842529 131.98127441 -109.43918457 131.74038086 -110.25390625 131.4921875 C-111.53491211 131.09580078 -111.53491211 131.09580078 -112.84179688 130.69140625 C-114.18854492 130.28728516 -114.18854492 130.28728516 -115.5625 129.875 C-116.46419922 129.59785156 -117.36589844 129.32070313 -118.29492188 129.03515625 C-120.52794478 128.34988996 -122.76291196 127.67185325 -125 127 Z M-106 130 C-106 130.33 -106 130.66 -106 131 C-101.62857694 131.73170511 -97.25258749 132.43121057 -92.875 133.125 C-91.01875 133.43630859 -91.01875 133.43630859 -89.125 133.75390625 C-87.32675781 134.03427734 -87.32675781 134.03427734 -85.4921875 134.3203125 C-83.84259033 134.58739014 -83.84259033 134.58739014 -82.15966797 134.85986328 C-78.64252002 135.01585485 -76.24496812 134.3039727 -73 133 C-73.5775 132.7525 -74.155 132.505 -74.75 132.25 C-77 131 -77 131 -78.73046875 128.94921875 C-82.53680581 125.68009277 -86.47968501 126.53415406 -91.29296875 126.66015625 C-96.42266382 127.13042334 -101.1381068 128.33306519 -106 130 Z M-103 134 C-100.22356523 137.00613796 -97.87510383 137.88074041 -93.9375 139.0625 C-88.20833333 140.79166667 -88.20833333 140.79166667 -86 143 C-83.56747339 143.46162427 -83.56747339 143.46162427 -80.875 143.625 C-79.96492188 143.69976562 -79.05484375 143.77453125 -78.1171875 143.8515625 C-77.06917969 143.92503906 -77.06917969 143.92503906 -76 144 C-78.67642489 141.81509993 -78.67642489 141.81509993 -81 142 C-81.12117188 141.21238281 -81.24234375 140.42476562 -81.3671875 139.61328125 C-82.70407848 136.86080039 -82.70407848 136.86080039 -85.04003906 136.30615234 C-87.73140488 135.82677553 -90.40708596 135.4809749 -93.125 135.1875 C-94.06988281 135.06697266 -95.01476562 134.94644531 -95.98828125 134.82226562 C-98.32377802 134.52737967 -100.65979261 134.25428776 -103 134 Z M-72 135 C-72.66 135.66 -73.32 136.32 -74 137 C-71.79248152 137.33868777 -69.58394089 137.67071689 -67.375 138 C-66.14523438 138.185625 -64.91546875 138.37125 -63.6484375 138.5625 C-60.3833973 138.95402516 -57.28287549 139.08080924 -54 139 C-57.46601811 136.96317948 -60.73057651 136.43331171 -64.6875 135.875 C-65.84636719 135.70742188 -67.00523438 135.53984375 -68.19921875 135.3671875 C-70.09420965 135.10086679 -70.09420965 135.10086679 -72 135 Z M-75 140 C-70.8999017 144.1000983 -62.97359141 143.85902974 -57.36328125 144.125 C-55.57503534 144.125 -53.78687244 144.07007343 -52 144 C-54.84975774 141.15024226 -57.97409672 141.29199484 -61.8125 140.875 C-62.52470703 140.78863281 -63.23691406 140.70226562 -63.97070312 140.61328125 C-67.66354257 140.18284853 -71.28227598 139.89774433 -75 140 Z M-74 160 C-74.680625 161.11375 -75.36125 162.2275 -76.0625 163.375 C-76.44535156 164.00148438 -76.82820313 164.62796875 -77.22265625 165.2734375 C-77.47917969 165.84320313 -77.73570313 166.41296875 -78 167 C-77.67 167.66 -77.34 168.32 -77 169 C-73.9083091 166.47043472 -73.09068668 163.77545388 -72 160 C-72.66 160 -73.32 160 -74 160 Z M-82 164 C-81 166 -81 166 -81 166 Z M-58 165 C-57 167 -57 167 -57 167 Z M-83 166 C-83.33 168.64 -83.66 171.28 -84 174 C-82.57055055 171.64561267 -81.91338739 170.51967567 -82.375 167.75 C-82.58125 167.1725 -82.7875 166.595 -83 166 Z M-79 169 C-78 171 -78 171 -78 171 Z M-75 171 C-78.465 173.97 -78.465 173.97 -82 177 C-80.68 178.32 -79.36 179.64 -78 181 C-75.74561644 177.62554428 -75.74561644 177.62554428 -74 174 C-74.33 173.01 -74.66 172.02 -75 171 Z M-73 180 C-73 180.33 -73 180.66 -73 181 C-70.69 181 -68.38 181 -66 181 C-66 180.67 -66 180.34 -66 180 C-68.31 180 -70.62 180 -73 180 Z M-70 217 C-70.33 217.99 -70.66 218.98 -71 220 C-71.99 220.33 -72.98 220.66 -74 221 C-72.02 221.99 -72.02 221.99 -70 223 C-67.7226499 220.18490007 -67.7226499 220.18490007 -68 217 C-68.66 217 -69.32 217 -70 217 Z M-75 222 C-75.6814823 223.89179203 -75.6814823 223.89179203 -76 226 C-75.34 226.66 -74.68 227.32 -74 228 C-74 226.02 -74 224.04 -74 222 C-74.33 222 -74.66 222 -75 222 Z M-62 224 C-62 224.66 -62 225.32 -62 226 C-61.01 225.67 -60.02 225.34 -59 225 C-59.99 224.67 -60.98 224.34 -62 224 Z M-113 228 C-115.30238787 231.91405938 -115.17461992 235.54719212 -115 240 C-112.86707515 237.01123049 -112.86707515 237.01123049 -111.5 233.375 C-110 230 -110 230 -108 229 C-107.67 229.66 -107.34 230.32 -107 231 C-106.34 230.01 -105.68 229.02 -105 228 C-107.99887865 227.03607472 -110.08814875 226.64113609 -113 228 Z M-77 230 C-76 234 -76 234 -76 234 Z M-107 231 C-106 233 -106 233 -106 233 Z M-122 233 C-121 235 -121 235 -121 235 Z M-106 233 C-105 235 -105 235 -105 235 Z M-108 237 C-107 239 -107 239 -107 239 Z M-105 240 C-104 242 -104 242 -104 242 Z M-104 242 C-104 243.32 -104 244.64 -104 246 C-103.34 246 -102.68 246 -102 246 C-101.67 246.66 -101.34 247.32 -101 248 C-101.34444881 245.52733235 -101.34444881 245.52733235 -102 243 C-102.66 242.67 -103.32 242.34 -104 242 Z M-59 242 C-58.01 243.32 -57.02 244.64 -56 246 C-55.34 245.67 -54.68 245.34 -54 245 C-55.37485532 243.45833358 -55.37485532 243.45833358 -57 242 C-57.66 242 -58.32 242 -59 242 Z M-116 244 C-115.67 244.99 -115.34 245.98 -115 247 C-115 246.01 -115 245.02 -115 244 C-115.33 244 -115.66 244 -116 244 Z M-112 246 C-113.18899574 246.97180618 -113.18899574 246.97180618 -113.1328125 248.75 C-113.11374984 254.24004545 -112.69169796 259.55287858 -112 265 C-111.67 265 -111.34 265 -111 265 C-111 258.73 -111 252.46 -111 246 C-111.33 246 -111.66 246 -112 246 Z M-53 247 C-52.67 247.66 -52.34 248.32 -52 249 C-51.34 248.67 -50.68 248.34 -50 248 C-50.99 247.67 -51.98 247.34 -53 247 Z M-116 251 C-116 258.59 -116 266.18 -116 274 C-115.67 274 -115.34 274 -115 274 C-115 266.41 -115 258.82 -115 251 C-115.33 251 -115.66 251 -116 251 Z M-106 265 C-105 268 -105 268 -105 268 Z M-109 267 C-108 269 -108 269 -108 269 Z M-125 269 C-124 272 -124 272 -124 272 Z M-122 271 C-122.18175781 271.68964844 -122.36351562 272.37929688 -122.55078125 273.08984375 C-123.78169853 277.69158067 -125.04525924 282.21434897 -126.6875 286.6875 C-128.15479994 290.98900562 -128.39080424 294.46667081 -128 299 C-127.34 299.99 -126.68 300.98 -126 302 C-123.90984196 291.68262414 -121.91780497 281.35070624 -120 271 C-120.66 271 -121.32 271 -122 271 Z M-126 272 C-126.81542431 274.08219049 -127.62723189 276.16579761 -128.4375 278.25 C-128.88996094 279.41015625 -129.34242188 280.5703125 -129.80859375 281.765625 C-130.70150633 284.18966308 -131.45794365 286.48286475 -132 289 C-128.27347086 285.78747488 -126.59904659 282.63723512 -125 278 C-124.74730583 274.70714899 -124.74730583 274.70714899 -125 272 C-125.33 272 -125.66 272 -126 272 Z M-94 275 C-93 278 -93 278 -93 278 Z M-131 278 C-130 280 -130 280 -130 280 Z M-132 280 C-131 282 -131 282 -131 282 Z M-107 280 C-106 283 -106 283 -106 283 Z M-120 281 C-119 283 -119 283 -119 283 Z M-133 282 C-132 284 -132 284 -132 284 Z M-92 282 C-91.67 282.99 -91.34 283.98 -91 285 C-91 284.01 -91 283.02 -91 282 C-91.33 282 -91.66 282 -92 282 Z M-106 283 C-105 285 -105 285 -105 285 Z M-134 284 C-135.98 286.97 -137.96 289.94 -140 293 C-139.01 293 -138.02 293 -137 293 C-136.319375 291.88625 -135.63875 290.7725 -134.9375 289.625 C-134.55464844 288.99851562 -134.17179688 288.37203125 -133.77734375 287.7265625 C-133.52082031 287.15679687 -133.26429688 286.58703125 -133 286 C-133.33 285.34 -133.66 284.68 -134 284 Z M-114 287 C-113 289 -113 289 -113 289 Z M-122 288 C-121 290 -121 290 -121 290 Z M-110 288 C-110.33 290.97 -110.66 293.94 -111 297 C-110.01 297.495 -110.01 297.495 -109 298 C-107.5216774 295.04335481 -107.93967217 292.25770263 -108 289 C-108.66 288.67 -109.32 288.34 -110 288 Z M-88 288 C-88.33 288.66 -88.66 289.32 -89 290 C-88.34 290 -87.68 290 -87 290 C-87 291.32 -87 292.64 -87 294 C-87.66 294 -88.32 294 -89 294 C-89.33 293.34 -89.66 292.68 -90 292 C-90.33 293.65 -90.66 295.3 -91 297 C-89.58376784 297.05447047 -88.16691809 297.09300508 -86.75 297.125 C-85.56664062 297.15980469 -85.56664062 297.15980469 -84.359375 297.1953125 C-81.79268059 296.9828378 -80.2083933 296.28654105 -78 295 C-78.9075 294.5875 -79.815 294.175 -80.75 293.75 C-83.79665618 292.10949282 -85.71126806 290.55281639 -88 288 Z M-120 290 C-119 292 -119 292 -119 292 Z M-115 290 C-114 293 -114 293 -114 293 Z M-100 291 C-99 293 -99 293 -99 293 Z M-116 294 C-115 298 -115 298 -115 298 Z M-117 299 C-117 301.64 -117 304.28 -117 307 C-116.34 306.67 -115.68 306.34 -115 306 C-115.33 303.69 -115.66 301.38 -116 299 C-116.33 299 -116.66 299 -117 299 Z M-113 300 C-112 303 -112 303 -112 303 Z M-121 303 C-120 307 -120 307 -120 307 Z M-121 309 C-120.67 309.99 -120.34 310.98 -120 312 C-119.34 312 -118.68 312 -118 312 C-118 311.34 -118 310.68 -118 310 C-118.99 309.67 -119.98 309.34 -121 309 Z " fill="#f2c3cf" transform="translate(144,207)"/>
<path d="M0 0 C0.99 0 1.98 0 3 0 C2.64390639 9.0988058 1.87704025 17.29650089 -1 26 C-0.34 26 0.32 26 1 26 C0.68817931 27.41681634 0.37551263 28.83344651 0.0625 30.25 C-0.11152344 31.03890625 -0.28554687 31.8278125 -0.46484375 32.640625 C-0.947556 34.76878703 -1.46163178 36.88532842 -2 39 C1.35271155 32.70145936 2.72127349 26.78795483 3.60546875 19.72265625 C4 17 4 17 5 15 C5.66 15 6.32 15 7 15 C6.81785306 24.96840513 4.71385896 32.8592475 1 42 C1.9834496 40.56542672 2.96160921 39.12722594 3.9375 37.6875 C4.75541016 36.48673828 4.75541016 36.48673828 5.58984375 35.26171875 C7.13837326 32.9741857 7.13837326 32.9741857 8 30 C8.99 30.33 9.98 30.66 11 31 C9.02 35.95 9.02 35.95 7 41 C7.495 41.495 7.495 41.495 8 42 C9.65 38.37 11.3 34.74 13 31 C13.66 31 14.32 31 15 31 C14.4660288 35.27176959 12.82597051 38.43948675 10.7421875 42.1328125 C9.69942166 44.17207696 9.69942166 44.17207696 11 47 C15.23961891 41.25757669 18.80598223 35.58740166 21.8671875 29.140625 C23.20306185 26.61628313 24.78750672 24.8027723 27 23 C27 26.84664437 26.94563986 27.5669003 25.0625 30.5625 C23.68282617 32.7828353 22.84228468 34.47314595 22 37 C22.66 37.33 23.32 37.66 24 38 C23.2265625 39.11375 23.2265625 39.11375 22.4375 40.25 C21.963125 41.1575 21.48875 42.065 21 43 C21.20238281 43.61359375 21.40476562 44.2271875 21.61328125 44.859375 C22 47 22 47 20.671875 49.4375 C20.03765625 50.283125 19.4034375 51.12875 18.75 52 C18.12609375 52.845625 17.5021875 53.69125 16.859375 54.5625 C16.24578125 55.366875 15.6321875 56.17125 15 57 C14.42765625 57.763125 13.8553125 58.52625 13.265625 59.3125 C12.84796875 59.869375 12.4303125 60.42625 12 61 C13.32 60.01 14.64 59.02 16 58 C15.40842943 61.2184256 14.42539009 63.00980951 12.25 65.4375 C11.70988281 66.04335937 11.16976563 66.64921875 10.61328125 67.2734375 C8.46517635 69.57237785 6.22467342 71.77532658 4 74 C3.175 74.99 2.35 75.98 1.5 77 C-4.84615385 84.61538462 -4.84615385 84.61538462 -9 86 C-9.61914875 82.55045695 -9.3542827 80.54607484 -7.44140625 77.59765625 C-5.67691455 75.35032577 -3.87664598 73.15431299 -2 71 C-2.78375 71.474375 -3.5675 71.94875 -4.375 72.4375 C-5.88948678 73.33898023 -7.4235897 74.21179485 -9 75 C-8.45276317 71.62537285 -7.9451 69.91765 -6 67 C-6.99 66.67 -7.98 66.34 -9 66 C-9.04957858 61.39186151 -9.08580385 56.78387963 -9.10986328 52.17553711 C-9.11989726 50.60910333 -9.13352754 49.04268817 -9.15087891 47.47631836 C-9.17524225 45.21984247 -9.18650916 42.96361506 -9.1953125 40.70703125 C-9.21079636 39.66298882 -9.21079636 39.66298882 -9.22659302 38.59785461 C-9.22751362 34.57381812 -8.66197703 31.64623858 -7 28 C-6.56112961 25.38574118 -6.18182272 22.81561267 -5.875 20.1875 C-5.78863281 19.49462891 -5.70226562 18.80175781 -5.61328125 18.08789062 C-5.40283919 16.39266294 -5.20058328 14.69642245 -5 13 C-4.34 13 -3.68 13 -3 13 C-2.67 14.32 -2.34 15.64 -2 17 C-1.34 11.39 -0.68 5.78 0 0 Z M-5 42 C-4 44 -4 44 -4 44 Z M6 43 C7 45 7 45 7 45 Z M4 46 C2.68 47.65 1.36 49.3 0 51 C0.99 51.495 0.99 51.495 2 52 C2.99 50.68 3.98 49.36 5 48 C4.67 47.34 4.34 46.68 4 46 Z M18 46 C19 48 19 48 19 48 Z M14 51 C15 53 15 53 15 53 Z M8 64 C7.67 64.66 7.34 65.32 7 66 C7.66 66 8.32 66 9 66 C8.67 65.34 8.34 64.68 8 64 Z " fill="#f2c3cf" transform="translate(9,62)"/>
<path d="M0 0 C4.18385169 2.51031102 7.01140213 4.47041597 9 9 C9.1875 11.8125 9.1875 11.8125 9 14 C8.34 14 7.68 14 7 14 C4 8.25 4 8.25 4 6 C2.68 5.34 1.36 4.68 0 4 C0 2.68 0 1.36 0 0 Z " fill="#f2c3cf" transform="translate(0,192)"/>
<path d="M0 0 C-0.33 1.32 -0.66 2.64 -1 4 C-4.63 4.33 -8.26 4.66 -12 5 C-12 3.68 -12 2.36 -12 1 C-10.37512529 0.83211627 -8.75009558 0.66573213 -7.125 0.5 C-6.22007812 0.4071875 -5.31515625 0.314375 -4.3828125 0.21875 C-2 0 -2 0 0 0 Z " fill="#f2c3cf" transform="translate(12,320)"/>
<path d="M0 0 C0 0.99 0 1.98 0 3 C-4.455 4.485 -4.455 4.485 -9 6 C-9.33 5.01 -9.66 4.02 -10 3 C-3.375 0 -3.375 0 0 0 Z " fill="#f2c3cf" transform="translate(10,265)"/>
<path d="M0 0 C0.66 0 1.32 0 2 0 C1.67 3.96 1.34 7.92 1 12 C0.67 12 0.34 12 0 12 C0 8.04 0 4.08 0 0 Z " fill="#f2c3cf" transform="translate(0,79)"/>
<path d="" fill="#3E5B84" transform="translate(0,0)"/>
<path d="" fill="#3E5B84" transform="translate(0,0)"/>
<path d="" fill="#3E5B84" transform="translate(0,0)"/>
<path d="" fill="#3E5B84" transform="translate(0,0)"/>
<path d="" fill="#3E5B84" transform="translate(0,0)"/>
<path d="" fill="#3E5B84" transform="translate(0,0)"/>
<path d="" fill="#3E5B84" transform="translate(0,0)"/>
<path d="" fill="#3E5B84" transform="translate(0,0)"/>
<path d="" fill="#3D5B84" transform="translate(0,0)"/>
<path d="" fill="#3E5B84" transform="translate(0,0)"/>
<path d="" fill="#3E5B84" transform="translate(0,0)"/>
<path d="" fill="#3D5B84" transform="translate(0,0)"/>
<path d="" fill="#3E5B84" transform="translate(0,0)"/>
<path d="" fill="#3E5B84" transform="translate(0,0)"/>
<path d="" fill="#3D5B84" transform="translate(0,0)"/>
<path d="" fill="#3E5B84" transform="translate(0,0)"/>
<path d="" fill="#3E5B84" transform="translate(0,0)"/>
<path d="" fill="#3E5B84" transform="translate(0,0)"/>
<path d="" fill="#3E5B84" transform="translate(0,0)"/>
<path d="" fill="#3D5B84" transform="translate(0,0)"/>
</svg>
