<?xml version="1.0" encoding="UTF-8"?>
<svg version="1.1" xmlns="http://www.w3.org/2000/svg" width="170" height="602">
<path d="M0 0 C0 0.66 0 1.32 0 2 C1.65 2.66 3.3 3.32 5 4 C4.814375 4.639375 4.62875 5.27875 4.4375 5.9375 C4.293125 6.618125 4.14875 7.29875 4 8 C4.33 8.33 4.66 8.66 5 9 C5.07325168 11.86267567 5.09238205 14.700719 5.0625 17.5625 C5.05798828 18.36880859 5.05347656 19.17511719 5.04882812 20.00585938 C5.03700518 22.00393756 5.01906914 24.00197783 5 26 C4.34 26 3.68 26 3 26 C3.66 26.33 4.32 26.66 5 27 C5 28.32 5 29.64 5 31 C2.48103951 29.880462 0.60265345 28.68018448 -1.5625 26.9375 C-3.92026019 24.83615651 -3.92026019 24.83615651 -7 24 C-7 23.34 -7 22.68 -7 22 C-7.66773438 21.88785156 -8.33546875 21.77570312 -9.0234375 21.66015625 C-13.34868549 20.70088209 -17.4738915 19.19121852 -21.6484375 17.72851562 C-24.56559179 16.7279317 -26.89184852 16 -30 16 C-28.67548828 16.43699219 -28.67548828 16.43699219 -27.32421875 16.8828125 C-19.39688364 19.59053813 -12.24947403 22.74666191 -5 27 C-3.94619141 27.57621094 -3.94619141 27.57621094 -2.87109375 28.1640625 C2.96554946 31.35654793 2.96554946 31.35654793 5 34 C5.36076355 36.51124573 5.36076355 36.51124573 5.34057617 39.54125977 C5.34034958 40.67576065 5.34012299 41.81026154 5.33988953 42.97914124 C5.32440567 44.20418869 5.30892181 45.42923615 5.29296875 46.69140625 C5.28872391 47.94759262 5.28447906 49.20377899 5.28010559 50.49803162 C5.26614465 53.83643354 5.23920442 57.17422057 5.20599365 60.51245117 C5.17533289 63.91124181 5.16159647 67.31009531 5.14648438 70.70898438 C5.1169255 76.67804583 5.07424571 82.64685025 5.02018738 88.61573792 C5.00781394 90.07712172 5 91.53856381 5 93 C5 98.66666667 5 104.33333333 5 110 C4.071875 110.28875 3.14375 110.5775 2.1875 110.875 C-1.09791667 111.8875 -1.09791667 111.8875 -4 114 C-3.72285156 114.59167969 -3.44570312 115.18335938 -3.16015625 115.79296875 C-2.79792969 116.58316406 -2.43570313 117.37335938 -2.0625 118.1875 C-1.70285156 118.96480469 -1.34320313 119.74210938 -0.97265625 120.54296875 C3.39567642 131.5778332 0.74341569 143.88419136 -2 155 C-2.33 155.66 -2.66 156.32 -3 157 C-2.05125 156.505 -1.1025 156.01 -0.125 155.5 C3 154 3 154 5 154 C5.53072106 156.83051233 5.75723341 158.27707164 5 161 C2.97524782 163.18223291 0.75456777 164.96183243 -1.55078125 166.84375 C-10.78512776 174.9735096 -15.89018761 187.10833018 -18 199 C-18 199.33 -18 199.66 -18 200 C-17.79246094 199.24976563 -17.58492188 198.49953125 -17.37109375 197.7265625 C-13.65138043 185.36902117 -6.22368592 175.86957732 3 167 C3.66 167 4.32 167 5 167 C4.60998789 170.51010902 3.0786674 172.09594858 0.58984375 174.4765625 C-6.3954153 181.17005398 -11.17411624 187.6120881 -14 197 C-14 198.32 -14 199.64 -14 201 C-13.70609375 200.33355469 -13.4121875 199.66710937 -13.109375 198.98046875 C-8.92668957 190.38673289 -3.20229336 185.02521952 4 179 C4.33 179.99 4.66 180.98 5 182 C4.33613281 182.6290625 3.67226562 183.258125 2.98828125 183.90625 C-6.49904429 193.01211084 -6.49904429 193.01211084 -11 205 C-10.62488281 204.26394531 -10.24976563 203.52789062 -9.86328125 202.76953125 C-7.05175554 197.4085112 -4.58750147 192.96756884 0 189 C0.556875 188.401875 1.11375 187.80375 1.6875 187.1875 C3 186 3 186 5 186 C4.44340991 189.75490627 2.96940835 191.25195985 0.1875 193.75 C-3.76955105 197.52944553 -5.85351197 200.99152792 -8 206 C-6.9790625 204.948125 -6.9790625 204.948125 -5.9375 203.875 C-2.79219487 200.72065663 0.5888386 197.86065696 4 195 C4.33 195.99 4.66 196.98 5 198 C4.49210938 198.46148437 3.98421875 198.92296875 3.4609375 199.3984375 C-3.62175312 206.10975108 -8.90384165 213.35767158 -11 223 C-10.48050781 222.26394531 -9.96101562 221.52789062 -9.42578125 220.76953125 C-1.02775442 209.01850294 -1.02775442 209.01850294 5 205 C5.42955083 209.34383273 5.50809843 211.33312081 2.8125 214.87109375 C1.884375 215.71800781 0.95625 216.56492188 0 217.4375 C-0.928125 218.30246094 -1.85625 219.16742188 -2.8125 220.05859375 C-3.8953125 221.01958984 -3.8953125 221.01958984 -5 222 C-4.40703125 221.55011719 -3.8140625 221.10023438 -3.203125 220.63671875 C-0.53452375 218.65419406 2.2246948 216.82917843 5 215 C5 217.97 5 220.94 5 224 C4.0925 224.2475 3.185 224.495 2.25 224.75 C-1.10351489 226.03981342 -2.67708236 227.31971042 -5 230 C-1.7 229.34 1.6 228.68 5 228 C4.67 229.32 4.34 230.64 4 232 C4.33 232.33 4.66 232.66 5 233 C5.07179964 234.51928038 5.08392007 236.04167482 5.0625 237.5625 C5.05347656 238.38878906 5.04445312 239.21507812 5.03515625 240.06640625 C5.01775391 241.02353516 5.01775391 241.02353516 5 242 C4.67 241.34 4.34 240.68 4 240 C2.15028304 238.94978897 2.15028304 238.94978897 0 238 C-1.33333333 237.33333333 -2.66666667 236.66666667 -4 236 C-4 235.34 -4 234.68 -4 234 C-6.64 233.67 -9.28 233.34 -12 233 C-12.33 234.32 -12.66 235.64 -13 237 C-12.28070313 237.11601562 -11.56140625 237.23203125 -10.8203125 237.3515625 C-7.88719538 238.02593569 -5.55746823 239.02146099 -2.875 240.375 C-1.60269531 241.00535156 -1.60269531 241.00535156 -0.3046875 241.6484375 C1.88685645 242.93364802 3.43480808 244.00514756 5 246 C5 246.99 5 247.98 5 249 C2.84707106 247.92851916 0.70099355 246.84618418 -1.4375 245.74609375 C-2.283125 245.31425781 -3.12875 244.88242187 -4 244.4375 C-4.845625 244.00308594 -5.69125 243.56867188 -6.5625 243.12109375 C-8.72486392 242.12654496 -10.67750386 241.47847721 -13 241 C-13.33 241.66 -13.66 242.32 -14 243 C-11.69 243.66 -9.38 244.32 -7 245 C-7 245.66 -7 246.32 -7 247 C-5.9171875 247.3403125 -5.9171875 247.3403125 -4.8125 247.6875 C-1.4484918 249.25737049 0.49296687 251.28969392 3 254 C3.66 254.66 4.32 255.32 5 256 C4.625 258.125 4.625 258.125 4 260 C2.8944811 259.06409496 1.79064547 258.12620142 0.6875 257.1875 C0.07261719 256.66542969 -0.54226562 256.14335937 -1.17578125 255.60546875 C-3 254 -3 254 -4.46875 252.4375 C-6.24533869 250.76968205 -7.9912052 249.85664015 -10.1875 248.8125 C-10.90292969 248.46832031 -11.61835938 248.12414062 -12.35546875 247.76953125 C-12.89816406 247.51558594 -13.44085938 247.26164062 -14 247 C-13.67 247.33 -13.34 247.66 -13 248 C-12.44828125 248.63550781 -11.8965625 249.27101563 -11.328125 249.92578125 C-7.75606146 254.0282828 -4.2875741 257.63946895 0 261 C1.95315554 262.92156811 3.39583032 264.73528986 5 267 C4.6328125 269.1875 4.6328125 269.1875 4 271 C2.82737096 269.88121617 1.66204862 268.75476949 0.5 267.625 C-0.1496875 266.99851562 -0.799375 266.37203125 -1.46875 265.7265625 C-3 264 -3 264 -3 262 C-3.66 262 -4.32 262 -5 262 C-1.26229638 267.98499221 -1.26229638 267.98499221 3.375 273.25 C5 275 5 275 5.25 277.75 C5.1675 278.4925 5.085 279.235 5 280 C2.16518235 277.25318113 -0.36498009 274.40803944 -2.8125 271.3125 C-3.49957031 270.44496094 -4.18664062 269.57742188 -4.89453125 268.68359375 C-7.94238852 264.79884803 -10.98032833 260.90670023 -14 257 C-12.63433155 264.73878789 -9.6512139 271.66918108 -5 278 C-4.35289062 278.90363281 -3.70578125 279.80726563 -3.0390625 280.73828125 C0.70768191 286.09637355 0.70768191 286.09637355 5 291 C4.625 293.125 4.625 293.125 4 295 C3.278125 294.113125 2.55625 293.22625 1.8125 292.3125 C0.15562435 290.30754123 -1.45180883 288.58386029 -3.375 286.8125 C-10.09736568 279.60996535 -14.07203839 271.31910363 -17 262 C-17.495 260.515 -17.495 260.515 -18 259 C-18 261.31 -18 263.62 -18 266 C-17.34 266.33 -16.68 266.66 -16 267 C-15.53020596 268.65062771 -15.06559825 270.30294173 -14.62988281 271.96289062 C-13.50154304 275.61206391 -11.67871838 278.89582376 -9.875 282.25 C-9.48046631 282.99072754 -9.08593262 283.73145508 -8.67944336 284.49462891 C-5.27678018 290.75085363 -1.36390151 296.3698345 3 302 C5 305 5 305 4.625 307.1875 C4.41875 307.785625 4.2125 308.38375 4 309 C-2.62884624 300.70413622 -8.43596302 292.03540518 -14 283 C-11.00188615 294.09878687 -7.01398316 303.19943484 -1 313 C0.18320343 315.01119569 1.35137328 317.03135866 2.5 319.0625 C2.9846875 319.89910156 3.469375 320.73570312 3.96875 321.59765625 C5.10971075 324.25557618 5.20408462 326.13771319 5 329 C2.45557985 327.72778992 2.06826213 326.56280384 0.75 324.0625 C-1.04630691 320.717471 -2.92864189 317.47155461 -4.9375 314.25 C-13.67291964 299.64617024 -18.52355382 283.78069504 -21 267 C-22.38610718 289.63975057 -10.43460571 312.25593115 1 331 C2.32 330.67 3.64 330.34 5 330 C5.042721 331.66611905 5.04063832 333.33382885 5 335 C4.67 335.33 4.34 335.66 4 336 C4.33 336.99 4.66 337.98 5 339 C-1.14727561 341.77869276 -7.34707782 344.40164916 -13.59375 346.94921875 C-15.90656567 347.78488771 -15.90656567 347.78488771 -17 349 C-17.35223154 354.28347315 -17.51709269 357.75523296 -14 362 C-11.82335597 363.94159843 -11.82335597 363.94159843 -9 365 C-5.84963391 364.0537433 -5.84963391 364.0537433 -2.8125 362.1875 C2.89403974 359 2.89403974 359 5 359 C4.78515625 360.85546875 4.78515625 360.85546875 4 363 C1.99609375 364.23828125 1.99609375 364.23828125 -0.5625 365.3125 C-6.05652406 367.8542755 -12.19597501 371.39195003 -15 377 C-15.2471212 381.51588026 -15.18521968 386.0406353 -15.1875 390.5625 C-15.19974609 391.81353516 -15.21199219 393.06457031 -15.22460938 394.35351562 C-15.68789621 405.53212922 -15.68789621 405.53212922 -11.72021484 415.57617188 C-9.45789296 417.58552308 -7.31943478 418.8987158 -4.4375 419.8125 C-1.04740272 421.46408586 0.06840751 423.90297618 1.88671875 427.125 C2.983684 429.14835314 2.983684 429.14835314 5 431 C5.125 433.625 5.125 433.625 5 436 C4.34 436 3.68 436 3 436 C3 435.34 3 434.68 3 434 C2.34 434 1.68 434 1 434 C0.67 433.34 0.34 432.68 0 432 C-8.2355777 454.24016228 -8.2355777 454.24016228 -4.984375 477.23046875 C-2.96000528 480.86951431 -0.63773429 483.42457984 3.3125 484.8125 C4.1478125 484.9053125 4.1478125 484.9053125 5 485 C4.125 489.75 4.125 489.75 3 492 C3.66 492.33 4.32 492.66 5 493 C5.11638036 496.24969769 5.18730581 499.4988583 5.25 502.75 C5.28351563 503.67039062 5.31703125 504.59078125 5.3515625 505.5390625 C5.45112665 512.40898911 5.45112665 512.40898911 2.984375 515.640625 C2.00210938 516.31351563 2.00210938 516.31351563 1 517 C0.87625 516.01 0.7525 515.02 0.625 514 C0.25273831 511.2970564 -0.297653 508.96696901 -1.0625 506.3125 C-2.03623753 502.72578334 -2.00673307 499.51919615 -1.875 495.8125 C-1.74485865 491.33499848 -1.74485865 491.33499848 -3.625 487.375 C-4.40875 486.59125 -5.1925 485.8075 -6 485 C-9.37404512 479.93032506 -12.43817309 474.93494227 -14 469 C-17.08227474 472.72808468 -19.11738062 476.90843596 -21.3125 481.1875 C-24.5339674 487.38323809 -27.88727332 493.33895268 -32 499 C-31.5155542 499.53012695 -31.0311084 500.06025391 -30.53198242 500.60644531 C-28.58008933 503.65606441 -28.57329618 505.69224199 -28.48828125 509.296875 C-28.45283203 510.50214844 -28.41738281 511.70742188 -28.38085938 512.94921875 C-28.35830078 514.20347656 -28.33574219 515.45773437 -28.3125 516.75 C-28.27833984 518.01972656 -28.24417969 519.28945313 -28.20898438 520.59765625 C-28.12650999 523.73168274 -28.05735516 526.86542955 -28 530 C-28.99 530 -29.98 530 -31 530 C-32.38671875 528.25 -32.38671875 528.25 -33.6875 526 C-34.12449219 525.2575 -34.56148438 524.515 -35.01171875 523.75 C-35.33785156 523.1725 -35.66398437 522.595 -36 522 C-36.43828125 522.72445312 -36.8765625 523.44890625 -37.328125 524.1953125 C-42.8908326 532.6750497 -48.66290981 536.70793787 -58.30078125 539.71875 C-61.83594233 540.43264661 -64.60289773 540.05362772 -67.8125 538.5625 C-71.10733187 536.36091898 -72.51514345 533.96528144 -73.62109375 530.1953125 C-75.09066781 521.68087311 -71.68318494 514.97633067 -67 508 C-65.10628633 505.77713069 -63.19811205 503.93643205 -61 502 C-64.63 501.01 -68.26 500.02 -72 499 C-71.34 497.68 -70.68 496.36 -70 495 C-67.4731218 494.18310813 -65.28351408 493.65794937 -62.6875 493.25 C-61.97489014 493.12786133 -61.26228027 493.00572266 -60.52807617 492.87988281 C-52.34376263 491.57826796 -44.12607681 491.15789118 -36 493 C-30.40674108 483.57136353 -25.48345072 474.00369941 -21 464 C-21.67546875 464.20496094 -22.3509375 464.40992188 -23.046875 464.62109375 C-23.93890625 464.89050781 -24.8309375 465.15992188 -25.75 465.4375 C-26.63171875 465.70433594 -27.5134375 465.97117187 -28.421875 466.24609375 C-33.15392951 467.6298612 -37.01658879 468.09583483 -42 468 C-42.061875 468.721875 -42.12375 469.44375 -42.1875 470.1875 C-43.2599946 473.8999813 -45.16216644 475.42615096 -48 478 C-48.556875 478.66 -49.11375 479.32 -49.6875 480 C-53.33118228 483.15129278 -57.65456418 484.97655279 -62 487 C-62.495 485.515 -62.495 485.515 -63 484 C-61.0625 480.8125 -61.0625 480.8125 -59 478 C-59.56380371 478.19480957 -60.12760742 478.38961914 -60.70849609 478.59033203 C-69.06105702 481.30320103 -77.48917998 482.28370493 -86.1875 483.28515625 C-92.55171502 484.12180025 -97.32018154 485.11279172 -102.52490234 488.98095703 C-104 490 -104 490 -106 490 C-107.49140021 493.62197194 -108.7874262 497.27566618 -110 501 C-111.859375 500.75 -111.859375 500.75 -114 500 C-117.87821464 494.63753038 -118.78966858 488.44680254 -118 482 C-117.67 481.01 -117.34 480.02 -117 479 C-117.86625 478.87625 -118.7325 478.7525 -119.625 478.625 C-123 478 -123 478 -125.9375 476.9375 C-129.4191786 475.87168002 -132.37926472 475.85517059 -136 476 C-136.74609375 474.328125 -136.74609375 474.328125 -137 472 C-135.34765625 469.421875 -135.34765625 469.421875 -133.0625 466.75 C-132.31097656 465.85796875 -131.55945313 464.9659375 -130.78515625 464.046875 C-129.90150391 463.03367187 -129.90150391 463.03367187 -129 462 C-131.5654594 459.4345406 -133.47686668 459.45953913 -137 459 C-136.46960703 454.942959 -134.42356448 453.05155434 -131.5625 450.25 C-130.75941406 449.45078125 -129.95632812 448.6515625 -129.12890625 447.828125 C-127 446 -127 446 -125 446 C-125.58910156 444.81921875 -126.17820312 443.6384375 -126.78515625 442.421875 C-127.54489177 440.86488617 -128.30397235 439.30757764 -129.0625 437.75 C-129.45244141 436.97269531 -129.84238281 436.19539063 -130.24414062 435.39453125 C-130.79038086 434.26337891 -130.79038086 434.26337891 -131.34765625 433.109375 C-131.68804932 432.41811523 -132.02844238 431.72685547 -132.37915039 431.01464844 C-133.11635505 428.62242947 -132.80784795 427.33429153 -132 425 C-131.33613281 425.20496094 -130.67226562 425.40992188 -129.98828125 425.62109375 C-128.66376953 426.02521484 -128.66376953 426.02521484 -127.3125 426.4375 C-126.44238281 426.70433594 -125.57226562 426.97117187 -124.67578125 427.24609375 C-122.12974079 427.96344529 -119.5996577 428.517541 -117 429 C-117.01160156 427.94039063 -117.02320312 426.88078125 -117.03515625 425.7890625 C-117.04453476 424.40104342 -117.05363489 423.01302245 -117.0625 421.625 C-117.07087891 420.92632812 -117.07925781 420.22765625 -117.08789062 419.5078125 C-117.11328125 414.2265625 -117.11328125 414.2265625 -116 412 C-115.01 412 -114.02 412 -113 412 C-111.2109375 414.08203125 -111.2109375 414.08203125 -109.375 416.8125 C-108.45847656 418.15248047 -108.45847656 418.15248047 -107.5234375 419.51953125 C-106 422 -106 422 -105 425 C-104.34 425 -103.68 425 -103 425 C-103 425.66 -103 426.32 -103 427 C-102.47148438 427.24878906 -101.94296875 427.49757813 -101.3984375 427.75390625 C-97.21469137 429.92754634 -93.28241435 432.52565378 -89.2890625 435.02734375 C-83.17720242 438.69300805 -78.10432275 440.60511351 -71.125 441.6875 C-70.34125 441.81705078 -69.5575 441.94660156 -68.75 442.08007812 C-66.83474158 442.39539506 -64.91754727 442.69891518 -63 443 C-62.67 441.35 -62.34 439.7 -62 438 C-61.319375 438.5775 -60.63875 439.155 -59.9375 439.75 C-57.03133424 442.10620476 -57.03133424 442.10620476 -53.5625 443.8125 C-48.56620968 446.58336843 -45.16231788 450.67536424 -42.625 455.75 C-42 458 -42 458 -42 461 C-30.9441983 459.20834834 -20.52408428 457.41996139 -13.2109375 448.06640625 C-8.90415377 440.71708821 -8.22887059 431.28403349 -7 423 C-7.763125 422.731875 -8.52625 422.46375 -9.3125 422.1875 C-12.61157645 420.72976854 -14.30361126 419.3957535 -15.9140625 416.16796875 C-16.14867187 415.51441406 -16.38328125 414.86085938 -16.625 414.1875 C-16.86476563 413.54167969 -17.10453125 412.89585937 -17.3515625 412.23046875 C-19.30602371 405.50759314 -19.28526792 398.69200002 -19.375 391.75 C-19.41238281 390.66847656 -19.44976562 389.58695312 -19.48828125 388.47265625 C-19.56298719 381.59140919 -18.56150405 376.90293559 -15.08056641 370.93457031 C-13.83745215 369.07830139 -13.83745215 369.07830139 -14 367 C-14.78375 366.21625 -15.5675 365.4325 -16.375 364.625 C-20.02688077 360.97311923 -20.82619847 359.3252367 -21.5 354.1875 C-21.38649872 349.84202242 -19.6824673 347.55100161 -16.734375 344.4765625 C-14.36309795 342.45777258 -11.87612795 341.16414703 -9 340 C-12.03368416 339.48149926 -15.06434148 338.99111975 -18.11328125 338.5703125 C-33.81937488 336.38411632 -42.93511087 331.4597502 -53 319 C-53.495 319.680625 -53.99 320.36125 -54.5 321.0625 C-61.85407659 329.70353999 -71.42183138 336.95348997 -83.0222168 338.22094727 C-95.80575689 338.91871611 -109.2904367 338.2064114 -119.45703125 329.4921875 C-127.70272093 321.51787495 -128.9656182 311.54075445 -129.25 300.4375 C-129.0711222 285.07027104 -124.63048506 270.41444413 -114 259 C-112.05672754 257.51514935 -110.09817805 256.26866579 -108 255 C-109.42892578 254.11248047 -109.42892578 254.11248047 -110.88671875 253.20703125 C-112.15386332 252.40919948 -113.42077825 251.61100292 -114.6875 250.8125 C-115.31333984 250.42513672 -115.93917969 250.03777344 -116.58398438 249.63867188 C-129.22560769 241.63010422 -137.22738913 229.15677387 -140.81640625 214.71484375 C-141.34206137 211.80719898 -141.72828354 208.9414385 -142 206 C-142.07089844 205.30648437 -142.14179688 204.61296875 -142.21484375 203.8984375 C-142.73935237 193.70198993 -138.91553102 184.11700712 -133 176 C-130.4375 173.1875 -130.4375 173.1875 -128 171 C-127.278125 170.175 -126.55625 169.35 -125.8125 168.5 C-118.13597786 161.67642476 -109.76199452 159.66797195 -99.7421875 159.69921875 C-94.38791812 160.12957234 -89.85569564 161.78025342 -85 164 C-84.78085938 162.741875 -84.56171875 161.48375 -84.3359375 160.1875 C-81.27838841 143.38005529 -77.70859454 124.77874411 -63.0625 114.125 C-61.3920017 113.05628061 -59.70552238 112.01188888 -58 111 C-57.38769531 110.62359375 -56.77539062 110.2471875 -56.14453125 109.859375 C-52.79168288 107.99421432 -49.97366817 106.99507616 -46.15625 106.28125 C-38.48461025 104.96327252 -38.48461025 104.96327252 -32.76904297 100.17529297 C-30.75264646 95.66582259 -29.63192809 90.90564551 -28.51953125 86.10693359 C-26.08062689 76.21607616 -19.23348269 68.81305672 -12 62 C-9.66015625 60.65625 -9.66015625 60.65625 -8 60 C-14.92659703 57.90767836 -21.48129871 57.65112114 -28.6875 57.5 C-46.84020617 56.930997 -61.65706392 54.47771381 -77.61791992 45.10107422 C-91.8253595 36.80341065 -104.51576932 32.0335719 -121.140625 35.85546875 C-124.7116752 36.82775395 -127.94142424 38.20338973 -131.25 39.875 C-132.24515625 40.36742187 -133.2403125 40.85984375 -134.265625 41.3671875 C-137.06858377 42.88653462 -137.06858377 42.88653462 -139.171875 45.1953125 C-141 47 -141 47 -144 47 C-143.16186555 40.42477619 -138.93868642 36.10852474 -135 31 C-134.40058594 30.19304687 -133.80117187 29.38609375 -133.18359375 28.5546875 C-116.41970362 6.6131812 -98.69949631 -3.10719462 -71.8125 -7.75 C-70.92660187 -7.90441559 -70.04070374 -8.05883118 -69.12796021 -8.21792603 C-45.53494594 -12.27476029 -20.41445637 -15.43439345 0 0 Z M-28 -7 C-24 -6 -24 -6 -24 -6 Z M-68 -1 C-68 -0.67 -68 -0.34 -68 0 C-63.90707083 0.19222407 -59.81379909 0.3709507 -55.71972656 0.53710938 C-54.32666167 0.59555965 -52.9337472 0.65771628 -51.54101562 0.72363281 C-49.54079773 0.81766015 -47.53992068 0.89732059 -45.5390625 0.9765625 C-43.73236084 1.05511475 -43.73236084 1.05511475 -41.88916016 1.13525391 C-38.86997488 1.31881938 -38.86997488 1.31881938 -37 -1 C-47.23 -1 -57.46 -1 -68 -1 Z M-37 0 C-37 0.33 -37 0.66 -37 1 C-34.36 1 -31.72 1 -29 1 C-29 0.67 -29 0.34 -29 0 C-31.64 0 -34.28 0 -37 0 Z M-26 1 C-22 2 -22 2 -22 2 Z M-77 3 C-77 3.33 -77 3.66 -77 4 C-66.77 4 -56.54 4 -46 4 C-46 3.67 -46 3.34 -46 3 C-56.23 3 -66.46 3 -77 3 Z M-85 7 C-85 7.33 -85 7.66 -85 8 C-82.69 8 -80.38 8 -78 8 C-78 7.67 -78 7.34 -78 7 C-80.31 7 -82.62 7 -85 7 Z M-34 7 C-34 7.33 -34 7.66 -34 8 C-22.5217455 11.08396027 -22.5217455 11.08396027 -11 14 C-12.71307836 10.57384329 -16.38741006 10.10940261 -19.85546875 8.88671875 C-24.53326716 7.56763771 -29.15842921 7.18729481 -34 7 Z M-91 8 C-91 8.33 -91 8.66 -91 9 C-89.02 9 -87.04 9 -85 9 C-85 8.67 -85 8.34 -85 8 C-86.98 8 -88.96 8 -91 8 Z M-95 9 C-91 10 -91 10 -91 10 Z M-97 9 C-97.66 9.66 -98.32 10.32 -99 11 C-98.01 11 -97.02 11 -96 11 C-96.33 10.34 -96.66 9.68 -97 9 Z M1 12 C1.66 12.66 2.32 13.32 3 14 C3 13.34 3 12.68 3 12 C2.34 12 1.68 12 1 12 Z M-95 13 C-91 14 -91 14 -91 14 Z M-99 14 C-95 15 -95 15 -95 15 Z M-67 17 C-67 17.33 -67 17.66 -67 18 C-64.69 18 -62.38 18 -60 18 C-60 17.67 -60 17.34 -60 17 C-62.31 17 -64.62 17 -67 17 Z M-59 17 C-55 18 -55 18 -55 18 Z M-84 19 C-84 19.33 -84 19.66 -84 20 C-76.94348748 20.14975239 -76.94348748 20.14975239 -70 19 C-70 18.67 -70 18.34 -70 18 C-74.8333472 17.91666643 -79.23692563 18.04738513 -84 19 Z M-92 20 C-92 20.33 -92 20.66 -92 21 C-90.35 21 -88.7 21 -87 21 C-87 20.67 -87 20.34 -87 20 C-88.65 20 -90.3 20 -92 20 Z M-53 20 C-53 20.33 -53 20.66 -53 21 C-51.35 21 -49.7 21 -48 21 C-48 20.67 -48 20.34 -48 20 C-49.65 20 -51.3 20 -53 20 Z M-83.1875 23 C-84.72713608 23.19332626 -86.26684932 23.38603902 -87.80664062 23.578125 C-91.5386865 24.04502499 -95.2695941 24.52018041 -99 25 C-99 25.33 -99 25.66 -99 26 C-84.32766495 26.6057386 -69.43538098 24.47614199 -55 22 C-55 21.67 -55 21.34 -55 21 C-64.53371418 20.62800302 -73.75888449 21.78511408 -83.1875 23 Z M-61 25 C-61 25.33 -61 25.66 -61 26 C-52.42 26 -43.84 26 -35 26 C-35 25.67 -35 25.34 -35 25 C-43.84032918 24.22453253 -52.16776465 23.80645468 -61 25 Z M-68 26 C-64 27 -64 27 -64 27 Z M-76 30 C-76 30.33 -76 30.66 -76 31 C-75.00258789 31.0501123 -74.00517578 31.10022461 -72.97753906 31.15185547 C-69.21983419 31.3425018 -65.46265855 31.54229501 -61.70556641 31.74462891 C-60.09013386 31.83039556 -58.4745736 31.91379507 -56.85888672 31.99462891 C-44.03093737 32.63880987 -31.73808022 33.29413028 -19.8125 38.5 C-19.06419922 38.80808594 -18.31589844 39.11617187 -17.54492188 39.43359375 C-12.13921641 41.72156718 -12.13921641 41.72156718 -11 44 C-10.34 44 -9.68 44 -9 44 C-10.95324606 38.72623565 -15.29860686 35.90278003 -20.0625 33.375 C-21.36328429 32.88440248 -22.67799156 32.43013878 -24 32 C-25.2684375 31.58041016 -25.2684375 31.58041016 -26.5625 31.15234375 C-42.37367738 26.72603758 -59.81333781 28.79780758 -76 30 Z M-8 32 C-6.02 32.99 -6.02 32.99 -4 34 C-4.33 33.34 -4.66 32.68 -5 32 C-5.99 32 -6.98 32 -8 32 Z M-53 35 C-53 35.33 -53 35.66 -53 36 C-51.35 36 -49.7 36 -48 36 C-48 35.67 -48 35.34 -48 35 C-49.65 35 -51.3 35 -53 35 Z M-3 35 C-2.34 36.32 -1.68 37.64 -1 39 C-0.34 38.67 0.32 38.34 1 38 C0.34 37.01 -0.32 36.02 -1 35 C-1.66 35 -2.32 35 -3 35 Z M-48 36 C-48 36.33 -48 36.66 -48 37 C-42.27959989 37.8320582 -36.77759884 38.12036664 -31 38 C-31 37.67 -31 37.34 -31 37 C-34.83724172 36.09586327 -38.37502274 35.89423102 -42.3125 35.9375 C-43.91544922 35.95103516 -43.91544922 35.95103516 -45.55078125 35.96484375 C-46.35902344 35.97644531 -47.16726562 35.98804688 -48 36 Z M-73 37 C-73 37.33 -73 37.66 -73 38 C-68.71 38 -64.42 38 -60 38 C-60 37.67 -60 37.34 -60 37 C-64.29 37 -68.58 37 -73 37 Z M-60 38 C-60 38.33 -60 38.66 -60 39 C-58.02 39 -56.04 39 -54 39 C-54 38.67 -54 38.34 -54 38 C-55.98 38 -57.96 38 -60 38 Z M-57 42 C-57 42.33 -57 42.66 -57 43 C-50.62694402 43.74507544 -44.41688675 44.10349817 -38 44 C-38 43.67 -38 43.34 -38 43 C-44.37358711 42.03794912 -50.55929529 41.89344422 -57 42 Z M-61 45 C-57 46 -57 46 -57 46 Z M-46 47 C-46 47.33 -46 47.66 -46 48 C-42.37 48 -38.74 48 -35 48 C-35 47.67 -35 47.34 -35 47 C-38.63 47 -42.26 47 -46 47 Z M-11 47 C-10.67 47.66 -10.34 48.32 -10 49 C-9.34 48.67 -8.68 48.34 -8 48 C-8.99 47.67 -9.98 47.34 -11 47 Z M-31 48 C-27 49 -27 49 -27 49 Z M2 50 C2 50.66 2 51.32 2 52 C2.66 51.67 3.32 51.34 4 51 C3.34 50.67 2.68 50.34 2 50 Z M-3 60 C-2.67 60.66 -2.34 61.32 -2 62 C-1.67 61.34 -1.34 60.68 -1 60 C-1.66 60 -2.32 60 -3 60 Z M-8 73 C-8.33 73.66 -8.66 74.32 -9 75 C-8.01 74.67 -7.02 74.34 -6 74 C-6.66 73.67 -7.32 73.34 -8 73 Z M-13 76 C-13.99 77.485 -13.99 77.485 -15 79 C-13.68 78.34 -12.36 77.68 -11 77 C-11.66 76.67 -12.32 76.34 -13 76 Z M-20 83 C-19 85 -19 85 -19 85 Z M-19 90 C-18 92 -18 92 -18 92 Z M1 92 C0.67 92.66 0.34 93.32 0 94 C0.99 93.67 1.98 93.34 3 93 C2.34 92.67 1.68 92.34 1 92 Z M-14 95 C-13 97 -13 97 -13 97 Z M-18 100 C-17 102 -17 102 -17 102 Z M-21 104 C-20 106 -20 106 -20 106 Z M-5 105 C-4.34 105.66 -3.68 106.32 -3 107 C-2.67 106.34 -2.34 105.68 -2 105 C-2.99 105 -3.98 105 -5 105 Z M-13 108 C-10.39417629 108.93065133 -9.35801776 109.14917407 -6.75 108.0625 C-6.1725 107.711875 -5.595 107.36125 -5 107 C-8.62326739 105.7922442 -9.64146369 106.45688872 -13 108 Z M-38 109 C-49.34673127 117.16964652 -52.34914476 129.95447864 -55 143 C-55.3403125 144.65708984 -55.3403125 144.65708984 -55.6875 146.34765625 C-59.94219927 170.19170005 -56.03574138 195.96210039 -42.50390625 216.2421875 C-41.3649026 217.84905384 -40.18734382 219.42851554 -39 221 C-38.01 220.505 -38.01 220.505 -37 220 C-37.70125 218.96875 -38.4025 217.9375 -39.125 216.875 C-52.63875605 195.01563823 -57.05351108 164.64719029 -51.74609375 139.57421875 C-49.08811046 130.40348059 -44.76855529 122.63596693 -39.57421875 114.71484375 C-37.74918753 112.09049716 -37.74918753 112.09049716 -38 109 Z M-35 110 C-51.65794825 134.30826522 -54.68853002 157.36792378 -49.56835938 186.29394531 C-47.27781386 197.19961819 -42.21859462 207.22901433 -37 217 C-35.60949247 212.82847741 -37.39310484 210.44376719 -39.1875 206.6875 C-49.9449162 183.2182341 -51.02799392 158.74909245 -42.125 134.5 C-40.23032974 129.51490146 -37.95767078 125.17976466 -34.90234375 120.81640625 C-33.20016241 117.38993732 -33.61250514 113.71995069 -34 110 C-34.33 110 -34.66 110 -35 110 Z M-54.61328125 113.1875 C-68.80411966 128.3243943 -71.56217225 155.06795891 -71.2734375 174.76171875 C-70.74719558 189.3584191 -63.40750872 204.81392764 -53 215 C-53 211.06661923 -54.78099968 208.62222533 -56.6875 205.3125 C-67.97106865 184.96807321 -69.67566494 162.38150018 -64 140 C-60.92547317 129.79662525 -55.88838675 120.83258012 -50 112 C-52.93119269 111.70360007 -52.93119269 111.70360007 -54.61328125 113.1875 Z M-48 114 C-62.09684469 128.42467829 -65.34863433 148.83719434 -65.38061523 168.21484375 C-65.11303986 186.93167416 -56.98797121 203.12367982 -46 218 C-46 214.37920738 -47.0328424 212.79579101 -48.75 209.625 C-61.24434308 185.0783307 -61.07132186 154.68699567 -52.69140625 128.81640625 C-51.53164495 125.50919377 -50.31063172 122.24983171 -49 119 C-48.62101562 118.04996094 -48.24203125 117.09992188 -47.8515625 116.12109375 C-47.57054688 115.42113281 -47.28953125 114.72117187 -47 114 C-47.33 114 -47.66 114 -48 114 Z M-22.51953125 120.36328125 C-24.83881078 123.15668947 -26.95217358 126.0023989 -29 129 C-29.56589844 129.81984375 -30.13179687 130.6396875 -30.71484375 131.484375 C-38.45469401 143.53727159 -42.53585579 156.74028212 -42 171 C-41.67 171 -41.34 171 -41 171 C-40.84144531 170.12859375 -40.68289062 169.2571875 -40.51953125 168.359375 C-37.91305926 155.05340747 -33.99989318 145.19204321 -25 135 C-24.3709375 134.22785156 -23.741875 133.45570313 -23.09375 132.66015625 C-18.11526535 126.69209575 -12.42584219 122.33508104 -6 118 C-6.66 116.68 -7.32 115.36 -8 114 C-13.31432278 114 -18.77347765 116.84954105 -22.51953125 120.36328125 Z M-61 116 C-73.69027742 125.64461084 -79.19145884 142.14875303 -81.75390625 157.5234375 C-83.32357069 173.31974318 -80.60817868 189.14706455 -70.50390625 201.88623047 C-67.16921813 205.75770741 -63.63279244 209.4089638 -60 213 C-59.01 212.505 -59.01 212.505 -58 212 C-58.75023438 211.15695313 -59.50046875 210.31390625 -60.2734375 209.4453125 C-62.97631675 206.19385733 -64.88760308 202.71748366 -66.625 198.875 C-66.92349854 198.21685303 -67.22199707 197.55870605 -67.52954102 196.88061523 C-77.22365147 174.86840456 -73.15640212 149.99315572 -65 128 C-63.71158129 125.17987075 -62.36086449 122.47420359 -60.8203125 119.78515625 C-60.41425781 118.90150391 -60.41425781 118.90150391 -60 118 C-60.33 117.34 -60.66 116.68 -61 116 Z M-30.8125 120.5 C-31.204375 120.995 -31.59625 121.49 -32 122 C-32.66 121.67 -33.32 121.34 -34 121 C-43.56178079 139.75223028 -48.83062676 157.66142903 -46 179 C-45.67 179 -45.34 179 -45 179 C-44.93530518 178.34628418 -44.87061035 177.69256836 -44.80395508 177.01904297 C-42.64884758 155.97853426 -38.72664092 137.16338637 -24 121 C-24 120.34 -24 119.68 -24 119 C-27.71736641 118.65099442 -27.71736641 118.65099442 -30.8125 120.5 Z M-12.125 125.5625 C-13.30497371 126.6755571 -14.48596 127.78754174 -15.66796875 128.8984375 C-16.52720947 129.70619629 -16.52720947 129.70619629 -17.40380859 130.53027344 C-19.35415408 132.32609476 -21.38717378 134.00742686 -23.4375 135.6875 C-33.46368981 144.42611596 -38.067395 157.527623 -39.22265625 170.50024414 C-39.3383345 173.02497189 -39.37954644 175.53515562 -39.375 178.0625 C-39.37411377 178.96500488 -39.37322754 179.86750977 -39.37231445 180.79736328 C-39.17557038 192.15658736 -36.66511916 202.65386181 -32 213 C-30.87343827 209.62031482 -31.16826153 208.24453821 -31.875 204.8125 C-35.72696351 185.851074 -36.62868351 162.55615601 -25.50390625 145.73828125 C-23.74742069 143.41387888 -21.90273155 141.20611985 -20 139 C-19.28328125 138.12730469 -18.5665625 137.25460938 -17.828125 136.35546875 C-13.29472911 131.01700428 -9.52230998 127.60892399 -3 125 C-3.495 122.525 -3.495 122.525 -4 120 C-7.50350645 120 -9.69639628 123.24750716 -12.125 125.5625 Z M-3 127 C-3.33 127.66 -3.66 128.32 -4 129 C-3.34 129 -2.68 129 -2 129 C-2.33 128.34 -2.66 127.68 -3 127 Z M-6 129 C-19.26809016 137.11597164 -26.91977105 147.61437639 -30.96484375 162.56640625 C-34.59504528 178.60955496 -33.77422446 195.27314294 -29 211 C-28.67 211 -28.34 211 -28 211 C-27.75656754 200.53303628 -27.75656754 200.53303628 -28.625 190.125 C-30.44738677 174.20591555 -26.07245063 157.33088312 -16.26953125 144.75390625 C-15.52058594 143.84511719 -14.77164063 142.93632812 -14 142 C-13.55833496 141.45972168 -13.11666992 140.91944336 -12.66162109 140.36279297 C-9.80957531 136.87806455 -6.91966778 133.42821647 -4 130 C-4.66 129.67 -5.32 129.34 -6 129 Z M-3 132 C-2 134 -2 134 -2 134 Z M-3 137 C-12.58144555 146.88986118 -19.40635447 159.17756432 -21 173 C-16.95279669 169.8521752 -15.58313579 167.23846308 -14.125 162.3125 C-12.04493699 155.43555698 -8.61323602 149.34804439 -3.296875 144.421875 C-1.66021502 142.92700713 -1.66021502 142.92700713 -1.8125 139.8125 C-1.874375 138.884375 -1.93625 137.95625 -2 137 C-2.33 137 -2.66 137 -3 137 Z M-8 138 C-8.99 138.99 -9.98 139.98 -11 141 C-10.67 141.66 -10.34 142.32 -10 143 C-9.01 142.01 -8.02 141.02 -7 140 C-7.33 139.34 -7.66 138.68 -8 138 Z M-13 143 C-22.39492108 152.61532978 -26.08188847 165.94269354 -26.625 179 C-26.66367188 179.77472656 -26.70234375 180.54945313 -26.7421875 181.34765625 C-26.83521357 183.23143415 -26.91863175 185.11568256 -27 187 C-25.20080916 183.79208101 -24.42428333 180.78101378 -23.6875 177.1875 C-21.39177952 166.93174369 -18.54300915 156.76010355 -13.015625 147.734375 C-11.83960186 145.86298232 -11.83960186 145.86298232 -11 143 C-11.66 143 -12.32 143 -13 143 Z M-4 147 C-7.96792601 151.57380692 -11.082962 156.24888599 -13 162 C-12.67 162.99 -12.34 163.98 -12 165 C-8.06108211 162.63664926 -6.40172598 161.21547862 -4.93359375 156.7734375 C-4.20103321 153.52469076 -3.54823633 150.28460886 -3 147 C-3.33 147 -3.66 147 -4 147 Z M-10 166 C-10.66 166.48984375 -11.32 166.9796875 -12 167.484375 C-20.38341348 174.14619464 -24.53211386 182.46791691 -26 193 C-27.12066112 208.2690078 -24.61567895 221.54316924 -17 235 C-15.68654618 231.05963855 -16.64950572 229.18848505 -17.875 225.25 C-22.8474042 209.18530951 -21.41929458 194.15124268 -13.875 179.1875 C-10.08877898 172.60668727 -5.33633323 167.35499174 0 162 C0.88945312 161.10667969 0.88945312 161.10667969 1.796875 160.1953125 C2.19390625 159.80085937 2.5909375 159.40640625 3 159 C-2.21939391 159 -5.94167921 162.95625941 -10 166 Z M-101 163 C-100.37076399 167.81788168 -98.37117367 171.66923041 -96.1875 175.9375 C-95.84396484 176.62779297 -95.50042969 177.31808594 -95.14648438 178.02929688 C-91.45944694 185.32727903 -87.00638537 191.35523342 -81.4375 197.3125 C-80.86064453 197.94478516 -80.28378906 198.57707031 -79.68945312 199.22851562 C-79.13064453 199.82986328 -78.57183594 200.43121094 -77.99609375 201.05078125 C-77.49263428 201.59387939 -76.9891748 202.13697754 -76.47045898 202.6965332 C-74.91629637 204.24604432 -74.91629637 204.24604432 -72 205 C-73.13623962 202.66533848 -74.33845188 200.40383537 -75.62109375 198.14453125 C-79.32910374 191.34252584 -81.4662273 185.64431961 -82.4375 177.9375 C-83.10879878 172.57328217 -83.10879878 172.57328217 -85.63671875 167.8828125 C-90.16719384 164.87436342 -95.68261058 163.82468771 -101 163 Z M-110.625 164 C-111.44226563 164.185625 -112.25953125 164.37125 -113.1015625 164.5625 C-113.72804688 164.706875 -114.35453125 164.85125 -115 165 C-115.86535612 166.67311404 -115.86535612 166.67311404 -116 169 C-114.87223334 171.33152838 -113.74285526 173.30346419 -112.3125 175.4375 C-111.71260254 176.35196899 -111.71260254 176.35196899 -111.10058594 177.28491211 C-106.43826622 184.16404962 -100.81631811 190.09432505 -95 196 C-94.11957031 196.90878906 -93.23914063 197.81757813 -92.33203125 198.75390625 C-90.08969036 200.91361481 -87.89057882 202.36613516 -85.15234375 203.828125 C-82.37952681 205.33782569 -79.70208278 206.99228081 -77 208.625 C-72.67906516 211.16002082 -68.89950854 212.9978278 -64 214 C-66.19097027 211.5947708 -68.29030346 210.20628994 -71.1875 208.75 C-83.34644212 202.13758829 -89.85408919 191.78296459 -96.25 179.875 C-97.04277344 178.43060547 -97.04277344 178.43060547 -97.8515625 176.95703125 C-100.32505634 172.39299567 -102.61034264 168.03327117 -104 163 C-106.33818679 163 -108.34566188 163.47900843 -110.625 164 Z M-121.5625 169.5 C-122.036875 169.995 -122.51125 170.49 -123 171 C-119.00183289 179.2952626 -113.65569901 185.70557067 -107 192 C-106.175 192.845625 -105.35 193.69125 -104.5 194.5625 C-96.82433167 202.9196846 -96.82433167 202.9196846 -87 207 C-88.24365454 203.26903639 -89.81121422 202.88723148 -93.15234375 201.1171875 C-95.84038437 199.49186061 -97.8215042 197.24073853 -100 195 C-100.66 195 -101.32 195 -102 195 C-102.27924316 194.41516846 -102.55848633 193.83033691 -102.84619141 193.2277832 C-103.92905383 191.13698345 -105.10892879 189.27991497 -106.4609375 187.35546875 C-106.93273437 186.67806641 -107.40453125 186.00066406 -107.890625 185.30273438 C-108.87212034 183.90410351 -109.85388664 182.50566274 -110.8359375 181.10742188 C-113.80184649 176.84795747 -116.49255026 172.54549538 -119 168 C-120.24076302 167.88457803 -120.24076302 167.88457803 -121.5625 169.5 Z M-43 172 C-42 176 -42 176 -42 176 Z M-126 173 C-126.66 173.66 -127.32 174.32 -128 175 C-127.79471416 186.70129285 -120.33452721 194.67500906 -112.46826172 202.6015625 C-109.47847058 205.44917202 -106.22382332 207.93994031 -102.8984375 210.37890625 C-101 212 -101 212 -100 215 C-109.31039182 208.51808165 -116.5867988 202.15596549 -123.3125 193.0625 C-123.74570557 192.48935059 -124.17891113 191.91620117 -124.62524414 191.32568359 C-127.71311207 187.01569953 -128.96699887 183.19924878 -130 178 C-132.16641665 179.66545339 -132.16641665 179.66545339 -134 182 C-133.64792671 185.67872916 -132.44814563 188.33833147 -130.55859375 191.4765625 C-130.06117676 192.30736328 -129.56375977 193.13816406 -129.05126953 193.99414062 C-128.25245361 195.29641602 -128.25245361 195.29641602 -127.4375 196.625 C-126.89464355 197.51638672 -126.35178711 198.40777344 -125.79248047 199.32617188 C-118.23387176 212.38789625 -118.23387176 212.38789625 -107 222 C-106.01 223.051875 -106.01 223.051875 -105 224.125 C-102.53096371 226.43972152 -100.23215427 227.11850338 -97 228 C-97 227.01 -97 226.02 -97 225 C-95.02 224.505 -95.02 224.505 -93 224 C-95.78823655 222.9673198 -96.8677274 222.95490707 -99.75 223.9375 C-100.4925 224.288125 -101.235 224.63875 -102 225 C-102.625 222.625 -102.625 222.625 -103 220 C-101 218 -101 218 -98 216 C-97.27034634 213.43717258 -97.27034634 213.43717258 -97 211 C-95.02 210.505 -95.02 210.505 -93 210 C-92.67 210.66 -92.34 211.32 -92 212 C-90.68 212 -89.36 212 -88 212 C-88 214.31 -88 216.62 -88 219 C-83.18790099 221.29045014 -83.18790099 221.29045014 -78 222 C-78.50105092 217.82457566 -78.91455119 215.8539111 -82.2890625 213.19921875 C-86.84376393 210.17126072 -86.84376393 210.17126072 -92 209 C-92 208.34 -92 207.68 -92 207 C-93.66220581 205.99260254 -95.33020674 204.99477045 -97 204 C-103.39334299 198.96105541 -108.79589429 193.24492685 -114 187 C-114.804375 186.236875 -115.60875 185.47375 -116.4375 184.6875 C-119.35734793 181.62522046 -121.50867964 178.35870974 -123.765625 174.79296875 C-124.17296875 174.20128906 -124.5803125 173.60960937 -125 173 C-125.33 173 -125.66 173 -126 173 Z M-45 179 C-45 180.98 -45 182.96 -45 185 C-44.67 185 -44.34 185 -44 185 C-44 183.02 -44 181.04 -44 179 C-44.33 179 -44.66 179 -45 179 Z M-136 186 C-137.83961898 190.36167726 -139.14801259 193.79475465 -138.5625 198.5625 C-136.57427416 202.93659685 -134.02331391 206.29191841 -131 210 C-130.31421875 210.90492188 -129.6284375 211.80984375 -128.921875 212.7421875 C-124.83316198 218.01748507 -121.02633977 222.165724 -115.296875 225.61328125 C-112.8515344 227.08963485 -110.60786473 228.73848003 -108.3125 230.4375 C-98.93803475 237.04524709 -89.36269651 242.17002497 -77.75 242.0625 C-76.48671875 242.05347656 -75.2234375 242.04445313 -73.921875 242.03515625 C-72.47554687 242.01775391 -72.47554687 242.01775391 -71 242 C-71.33 241.34 -71.66 240.68 -72 240 C-73.32 240.33 -74.64 240.66 -76 241 C-76 240.01 -76 239.02 -76 238 C-76.66 238 -77.32 238 -78 238 C-78 237.34 -78 236.68 -78 236 C-79.07636719 235.79246094 -80.15273437 235.58492187 -81.26171875 235.37109375 C-104.24225098 230.63662353 -104.24225098 230.63662353 -110 222 C-110.79535156 221.53722656 -111.59070313 221.07445312 -112.41015625 220.59765625 C-115.28201936 218.82602426 -116.57139567 217.22546882 -118.4375 214.4375 C-119.03304687 213.54933594 -119.62859375 212.66117188 -120.2421875 211.74609375 C-122.92638888 207.5527747 -125.48369671 203.29564176 -128 199 C-129.08108187 197.18615619 -130.16437461 195.37362807 -131.25 193.5625 C-131.72953125 192.75941406 -132.2090625 191.95632812 -132.703125 191.12890625 C-133.76046017 189.3932205 -134.87263921 187.69104119 -136 186 Z M-44 186 C-43 188 -43 188 -43 188 Z M-43 190 C-42 192 -42 192 -42 192 Z M-71 206 C-71 206.66 -71 207.32 -71 208 C-70.34 207.67 -69.68 207.34 -69 207 C-69.66 206.67 -70.32 206.34 -71 206 Z M-87 207 C-87 207.66 -87 208.32 -87 209 C-83.04 210.98 -79.08 212.96 -75 215 C-74.67 214.34 -74.34 213.68 -74 213 C-75.41328129 212.18162558 -76.83078346 211.37053781 -78.25 210.5625 C-79.03890625 210.11003906 -79.8278125 209.65757812 -80.640625 209.19140625 C-82.78833468 208.10688398 -84.65205061 207.46851284 -87 207 Z M-139 208 C-138 211 -138 211 -138 211 Z M-10 209 C-9 211 -9 211 -9 211 Z M-138 211 C-137.67215269 217.3410468 -135.8368153 220.12115733 -131.5625 224.4375 C-131.02842529 224.99735596 -130.49435059 225.55721191 -129.9440918 226.1340332 C-125.87934967 230.31444608 -121.54230714 234.02670265 -116.86328125 237.51171875 C-115 239 -115 239 -114 241 C-111.15007835 242.75830563 -111.15007835 242.75830563 -108 244 C-106.515 243.505 -106.515 243.505 -105 243 C-105.83402344 242.443125 -106.66804688 241.88625 -107.52734375 241.3125 C-119.33332406 233.34218825 -128.53490206 225.49010655 -135.73046875 213.01171875 C-136.14941406 212.34785156 -136.56835938 211.68398437 -137 211 C-137.33 211 -137.66 211 -138 211 Z M-134 211 C-133 213 -133 213 -133 213 Z M-31 213 C-30 216 -30 216 -30 216 Z M-132 214 C-131.67 214.99 -131.34 215.98 -131 217 C-131 216.01 -131 215.02 -131 214 C-131.33 214 -131.66 214 -132 214 Z M-94 214 C-93 216 -93 216 -93 216 Z M-18 215 C-17 218 -17 218 -17 218 Z M-97 216 C-97 216.99 -97 217.98 -97 219 C-96.01 219.33 -95.02 219.66 -94 220 C-94.66 218.68 -95.32 217.36 -96 216 C-96.33 216 -96.66 216 -97 216 Z M-70 216 C-69 218 -69 218 -69 218 Z M-130 217 C-128.61077846 221.44236945 -126.57384479 223.62411502 -123.0625 226.625 C-118.0263796 230.97134249 -118.0263796 230.97134249 -116.59765625 232.5234375 C-114.13950513 234.79527399 -111.2711245 236.35803001 -108.375 238 C-107.75052979 238.35449219 -107.12605957 238.70898438 -106.48266602 239.07421875 C-100.39693374 242.45265183 -94.15735 245.69264677 -87 245 C-89.84627819 243.10248121 -92.25115781 242.11809691 -95.4375 240.9375 C-101.6405332 238.42459239 -106.33222053 235.03896255 -111.50390625 230.890625 C-113.92503356 228.84681025 -113.92503356 228.84681025 -117 228 C-118.68997323 226.35697047 -120.35216394 224.68528688 -122 223 C-125.60768857 219.11914085 -125.60768857 219.11914085 -130 217 Z M-66 217 C-65.34 217.66 -64.68 218.32 -64 219 C-64 218.34 -64 217.68 -64 217 C-64.66 217 -65.32 217 -66 217 Z M-36 217 C-35 219 -35 219 -35 219 Z M-75 218 C-75.33 218.99 -75.66 219.98 -76 221 C-75.01 222.485 -75.01 222.485 -74 224 C-74 222.02 -74 220.04 -74 218 C-74.33 218 -74.66 218 -75 218 Z M-35 219 C-34 221 -34 221 -34 221 Z M-29 219 C-28 221 -28 221 -28 221 Z M-17 219 C-16 222 -16 222 -16 222 Z M-88 223 C-89.485 224.98 -89.485 224.98 -91 227 C-90.51294288 229.06402968 -90.51294288 229.06402968 -89 231 C-85.43793339 231.81870185 -85.43793339 231.81870185 -82 232 C-81.31292445 229.50935112 -81 227.62113708 -81 225 C-83.31 224.34 -85.62 223.68 -88 223 Z M-48 223 C-48.33 223.99 -48.66 224.98 -49 226 C-47.68 226.33 -46.36 226.66 -45 227 C-44.67 226.01 -44.34 225.02 -44 224 C-45.32 223.67 -46.64 223.34 -48 223 Z M-66 224 C-65 226 -65 226 -65 226 Z M-9 225 C-8.67 225.66 -8.34 226.32 -8 227 C-7.67 226.34 -7.34 225.68 -7 225 C-7.66 225 -8.32 225 -9 225 Z M-60 226 C-59 228 -59 228 -59 228 Z M-57 226 C-56 228 -56 228 -56 228 Z M-132 227 C-131 229 -131 229 -131 229 Z M-78 227 C-78.33 228.65 -78.66 230.3 -79 232 C-79.99 232.33 -80.98 232.66 -82 233 C-80.02 232.67 -78.04 232.34 -76 232 C-75.67 230.35 -75.34 228.7 -75 227 C-75.99 227 -76.98 227 -78 227 Z M-25 227 C-24 229 -24 229 -24 229 Z M-10 227 C-10 230 -10 230 -10 230 Z M-71 228 C-70 230 -70 230 -70 230 Z M-54 228 C-53 230 -53 230 -53 230 Z M-131 229 C-126.19170088 239.44880385 -116.03132962 247.6402777 -105.5625 251.875 C-87.82666499 258.0421865 -63.34712386 260.16300973 -45 255 C-45 254.67 -45 254.34 -45 254 C-45.68400879 254.03552979 -46.36801758 254.07105957 -47.07275391 254.10766602 C-68.69606752 255.1966491 -88.83206961 255.83892699 -108.6875 246.0625 C-109.6762915 245.57704712 -109.6762915 245.57704712 -110.68505859 245.08178711 C-114.83507795 242.91989411 -117.78469087 240.4568599 -121 237 C-122.57053177 235.54852467 -124.15326271 234.11009648 -125.75 232.6875 C-126.91789062 231.64142578 -126.91789062 231.64142578 -128.109375 230.57421875 C-129.71804544 228.89335467 -129.71804544 228.89335467 -131 229 Z M-43 230 C-43 230.66 -43 231.32 -43 232 C-41.68 231.67 -40.36 231.34 -39 231 C-40.32 230.67 -41.64 230.34 -43 230 Z M-61 231 C-61.33 232.32 -61.66 233.64 -62 235 C-61.34 235 -60.68 235 -60 235 C-60.33 233.68 -60.66 232.36 -61 231 Z M-56 233 C-55 235 -55 235 -55 235 Z M-47 236 C-47.33 237.65 -47.66 239.3 -48 241 C-48.99 241 -49.98 241 -51 241 C-51.66 242.65 -52.32 244.3 -53 246 C-52.0255896 246.03758423 -52.0255896 246.03758423 -51.03149414 246.07592773 C-48.04168912 246.19313851 -45.05210465 246.31528919 -42.0625 246.4375 C-41.04091797 246.47681641 -40.01933594 246.51613281 -38.96679688 246.55664062 C-32.93409791 246.80720001 -26.992295 247.25643055 -21 248 C-24.69151331 243.31705169 -29.73243973 241.8093936 -35.125 239.75 C-36.04410156 239.38648438 -36.96320313 239.02296875 -37.91015625 238.6484375 C-42.33008306 236.73516323 -42.33008306 236.73516323 -47 236 Z M-33 237 C-27.43332479 240.78909598 -27.43332479 240.78909598 -21 242 C-20.71125 242.639375 -20.4225 243.27875 -20.125 243.9375 C-19.17176549 246.15206079 -19.17176549 246.15206079 -17 247 C-16.67 244.36 -16.34 241.72 -16 239 C-21.61 238.34 -27.22 237.68 -33 237 Z M-62 240 C-61 242 -61 242 -61 242 Z M-57 241 C-57.33 241.99 -57.66 242.98 -58 244 C-58.99 244 -59.98 244 -61 244 C-61.66 243.34 -62.32 242.68 -63 242 C-63 242.66 -63 243.32 -63 244 C-63.55171875 243.80535156 -64.1034375 243.61070312 -64.671875 243.41015625 C-67.61365886 242.89188896 -69.42694273 243.50886274 -72.25 244.4375 C-73.58804688 244.86869141 -73.58804688 244.86869141 -74.953125 245.30859375 C-75.62859375 245.53675781 -76.3040625 245.76492188 -77 246 C-77 246.33 -77 246.66 -77 247 C-69.24506486 247.09928082 -61.68931285 247.06059488 -54 246 C-54.66 245.67 -55.32 245.34 -56 245 C-56.625 242.9375 -56.625 242.9375 -57 241 Z M-103 245 C-102.34 245.66 -101.68 246.32 -101 247 C-100.01 246.67 -99.02 246.34 -98 246 C-99.65 245.67 -101.3 245.34 -103 245 Z M-87 245 C-87 245.33 -87 245.66 -87 246 C-85.35 246 -83.7 246 -82 246 C-82 245.67 -82 245.34 -82 245 C-83.65 245 -85.3 245 -87 245 Z M-98 247 C-96.515 247.99 -96.515 247.99 -95 249 C-94.67 248.34 -94.34 247.68 -94 247 C-95.32 247 -96.64 247 -98 247 Z M-94 248 C-89.31498664 252.68501336 -81.01889682 252.13507205 -74.77734375 252.23046875 C-72.16402623 252.22652313 -69.5507057 252.21199477 -66.9375 252.1875 C-64.97200195 252.1865332 -64.97200195 252.1865332 -62.96679688 252.18554688 C-56.22435138 252.15497659 -49.68245172 251.8865827 -43 251 C-40.97983512 250.80543002 -38.95909259 250.61662846 -36.9375 250.4375 C-35.99777344 250.35371094 -35.05804688 250.26992188 -34.08984375 250.18359375 C-33.05537109 250.09271484 -33.05537109 250.09271484 -32 250 C-32 249.67 -32 249.34 -32 249 C-32.62925385 249.00222061 -33.25850769 249.00444122 -33.90682983 249.00672913 C-40.49370757 249.02896178 -47.08057453 249.04398121 -53.66748047 249.05493164 C-56.12126092 249.05994067 -58.57503842 249.06674977 -61.02880859 249.07543945 C-64.56869234 249.08765586 -68.10853641 249.09326276 -71.6484375 249.09765625 C-73.277173 249.10539818 -73.277173 249.10539818 -74.93881226 249.11329651 C-81.35550636 249.11376238 -87.63010793 248.78228009 -94 248 Z M-16 253 C-15 256 -15 256 -15 256 Z M-102 256 C-108.73608746 258.88689463 -113.0764493 262.60504551 -118 268 C-117.67 268.66 -117.34 269.32 -117 270 C-116.46890625 269.51789063 -115.9378125 269.03578125 -115.390625 268.5390625 C-114.68421875 267.90742188 -113.9778125 267.27578125 -113.25 266.625 C-112.55390625 265.99851562 -111.8578125 265.37203125 -111.140625 264.7265625 C-109.13483612 263.10875468 -107.33641104 262.05515337 -105 261 C-103.9275 260.46375 -102.855 259.9275 -101.75 259.375 C-100.8425 258.92125 -99.935 258.4675 -99 258 C-99.99 257.34 -100.98 256.68 -102 256 Z M-27 257 C-29.27050691 259.71661026 -30.7703644 262.42216464 -32.15625 265.66796875 C-32.53910156 266.56193359 -32.92195313 267.45589844 -33.31640625 268.37695312 C-33.70699219 269.30443359 -34.09757812 270.23191406 -34.5 271.1875 C-34.89058594 272.09564453 -35.28117187 273.00378906 -35.68359375 273.93945312 C-40.66026789 283.74583929 -40.66026789 283.74583929 -41 294 C-38.30918637 288.67846536 -35.64485329 283.34451558 -33 278 C-32.48050781 276.95714844 -31.96101563 275.91429687 -31.42578125 274.83984375 C-28.61881292 268.9814564 -26.93485905 263.43238842 -26 257 C-26.33 257 -26.66 257 -27 257 Z M-118.375 272.9375 C-121.72598553 276.4356346 -123.65533203 279.33848437 -125 284 C-124.60815184 286.15302626 -124.60815184 286.15302626 -124 288 C-123.21689453 286.98292969 -123.21689453 286.98292969 -122.41796875 285.9453125 C-113.13706821 274.21009326 -103.67302655 266.02810806 -90 260 C-100.45758415 257.21131089 -111.11437354 266.07507974 -118.375 272.9375 Z M-98 273 C-99.01537842 273.92353271 -99.01537842 273.92353271 -100.05126953 274.86572266 C-108.22369814 282.41099356 -116.1161749 289.9310595 -121.625 299.6875 C-121.984729 300.32171875 -122.34445801 300.9559375 -122.71508789 301.609375 C-125.53780458 307.08197416 -125.69997573 311.59383341 -124 317.4375 C-123.67 318.283125 -123.34 319.12875 -123 320 C-121.37531559 317.56297338 -120.47682977 315.84199519 -119.51953125 313.15625 C-112.15907822 293.05863599 -112.15907822 293.05863599 -104.79296875 285.8359375 C-102.76710494 284.18922426 -102.76710494 284.18922426 -103 282 C-102.443125 281.773125 -101.88625 281.54625 -101.3125 281.3125 C-98.8137112 280.02977851 -98.8137112 280.02977851 -96.5625 277.5625 C-94.1132585 275.1132585 -91.98402843 273.70515911 -89 272 C-87.515 270.8553125 -87.515 270.8553125 -86 269.6875 C-80.82608095 265.90788875 -74.84159577 263.55624717 -69 261 C-69 260.67 -69 260.34 -69 260 C-81.0629646 259.02718027 -89.35969336 265.13460876 -98 273 Z M-68.625 262.875 C-69.73101562 263.40867187 -70.83703125 263.94234375 -71.9765625 264.4921875 C-72.97429687 264.98976563 -73.97203125 265.48734375 -75 266 C-76.051875 266.52013672 -76.051875 266.52013672 -77.125 267.05078125 C-83.29957607 270.17666039 -88.80081463 273.36594347 -94 278 C-94.50660156 278.3815625 -95.01320313 278.763125 -95.53515625 279.15625 C-109.12017498 289.69025979 -116.2682231 304.76439874 -120.8359375 320.96484375 C-120.89007813 321.63644531 -120.94421875 322.30804688 -121 323 C-120.34 323.66 -119.68 324.32 -119 325 C-118.45472656 323.91203125 -117.90945312 322.8240625 -117.34765625 321.703125 C-104.54342205 296.57388276 -86.13642236 277.36666002 -61.53125 263.4453125 C-59.64492007 262.3682414 -57.80735473 261.20490316 -56 260 C-61.00156081 259.65245952 -64.14726292 260.68332073 -68.625 262.875 Z M-90 262 C-90.33 262.66 -90.66 263.32 -91 264 C-90.01 263.67 -89.02 263.34 -88 263 C-88.66 262.67 -89.32 262.34 -90 262 Z M-26 264 C-29.54603152 284.46790254 -20.74133603 311.14099551 -9.00390625 327.83984375 C-7.38895372 329.9487053 -5.74340167 331.99694276 -4 334 C-2.515 333.505 -2.515 333.505 -1 333 C-1.4846875 332.18660156 -1.969375 331.37320313 -2.46875 330.53515625 C-11.06207738 315.93017854 -17.74099602 301.43280936 -22 285 C-22.19851562 284.31550781 -22.39703125 283.63101562 -22.6015625 282.92578125 C-23.40430011 279.04588279 -23.40828837 275.04196889 -23.62109375 271.09375 C-23.97392892 268.21286901 -24.51390746 266.45476014 -26 264 Z M-102 269 C-102.94875 269.598125 -103.8975 270.19625 -104.875 270.8125 C-113.59069977 276.91348984 -121.98365206 284.89888492 -126 295 C-126.23979762 297.36222232 -126.23979762 297.36222232 -126.125 299.75 C-126.10695313 300.54921875 -126.08890625 301.3484375 -126.0703125 302.171875 C-126.04710938 302.77515625 -126.02390625 303.3784375 -126 304 C-123.3228228 300.91094938 -121.21644488 297.7177553 -119.1875 294.1875 C-114.82417438 286.80171961 -109.57349395 281.45460137 -103 276 C-101.41048826 274.25589734 -99.89726749 272.46433819 -98.390625 270.6484375 C-96.70343115 268.64844929 -94.88534852 266.81283511 -93 265 C-97.06305373 265 -98.70458018 266.6738213 -102 269 Z M-36 267 C-35 269 -35 269 -35 269 Z M-72.3125 272.75 C-75.21574566 274.92648299 -78.06796324 277.04349647 -81.125 279 C-89.46805456 284.80386404 -95.82664432 291.98894307 -102 300 C-103.03833984 301.31484375 -103.03833984 301.31484375 -104.09765625 302.65625 C-109.34401575 309.53009289 -113.86234216 316.91654251 -117 325 C-116.33131686 328.11332248 -116.33131686 328.11332248 -113.9375 329.1875 C-113.298125 329.455625 -112.65875 329.72375 -112 330 C-111.63648438 329.32195312 -111.27296875 328.64390625 -110.8984375 327.9453125 C-105.2959049 317.57344446 -99.59849809 308.04273318 -92 299 C-91.55398437 298.46906738 -91.10796875 297.93813477 -90.6484375 297.39111328 C-87.87733132 294.09663903 -85.09406077 290.81280745 -82.29907227 287.53857422 C-81.42309085 286.50109351 -80.55653393 285.4555911 -79.69897461 284.40283203 C-77.2919248 281.449583 -74.85539011 278.82301119 -71.9375 276.375 C-69.17109947 274.01649974 -66.52043036 271.62544829 -64 269 C-67.93783921 269 -69.1994092 270.39042357 -72.3125 272.75 Z M-55 269 C-55.99 270.485 -55.99 270.485 -57 272 C-55.68 271.34 -54.36 270.68 -53 270 C-53.66 269.67 -54.32 269.34 -55 269 Z M-37 269 C-43.43823352 277.0477919 -46.92354608 285.80410703 -49.3125 295.75 C-49.56978882 296.81323486 -49.56978882 296.81323486 -49.83227539 297.89794922 C-50.83505925 302.36370789 -51.16168184 306.4250028 -51 311 C-46.74373357 306.93720023 -45.61106281 303.42910676 -44.75 297.75 C-43.52715102 290.41206507 -41.26863962 284.01232429 -38.3046875 277.20703125 C-37.17254803 274.42413751 -36.45652449 271.95627447 -36 269 C-36.33 269 -36.66 269 -37 269 Z M-61 270 C-67.90721545 275.03859678 -74.35541431 280.55409526 -80 287 C-80 287.66 -80 288.32 -80 289 C-80.57363281 289.22945313 -81.14726563 289.45890625 -81.73828125 289.6953125 C-86.55024693 292.4711269 -89.63291444 297.67863576 -93 302 C-93.74894531 302.93457031 -94.49789062 303.86914062 -95.26953125 304.83203125 C-101.44839968 312.74228138 -106.26179803 321.17327861 -111 330 C-108.66785852 331.20628008 -106.50357861 332.1654738 -104 333 C-103.50371094 331.98421875 -103.00742188 330.9684375 -102.49609375 329.921875 C-95.45897828 315.60649135 -87.82673791 303.0939551 -77.55419922 290.8671875 C-76.15811771 289.18995983 -74.79218624 287.49501492 -73.44140625 285.78125 C-69.04967626 280.24021112 -64.53150152 275.41615789 -59 271 C-59.66 270.67 -60.32 270.34 -61 270 Z M-46 270 C-46 273 -46 273 -46 273 Z M-43 272 C-42 274 -42 274 -42 274 Z M-29 273 C-31.93445256 277.81820599 -32.32707003 281.41468524 -31.5625 286.875 C-31.46469238 287.6160498 -31.36688477 288.35709961 -31.26611328 289.12060547 C-29.3703291 301.65192503 -23.93589099 312.71297415 -17.8359375 323.69140625 C-15.77245472 327.41006565 -13.87019319 331.1816889 -12 335 C-10.35 335 -8.7 335 -7 335 C-7.50789063 334.15179688 -8.01578125 333.30359375 -8.5390625 332.4296875 C-19.6026467 313.69797871 -26.02352027 294.65277796 -28 273 C-28.33 273 -28.66 273 -29 273 Z M-60 274 C-64.97829828 277.88550109 -68.97474985 282.14426144 -73 287 C-73.43086914 287.51320801 -73.86173828 288.02641602 -74.30566406 288.55517578 C-85.47342921 301.90660359 -95.33816034 315.83730883 -102 332 C-101.34 332.66 -100.68 333.32 -100 334 C-98.68 334 -97.36 334 -96 334 C-95.67128906 333.16339844 -95.34257813 332.32679688 -95.00390625 331.46484375 C-89.62155124 318.29338963 -82.42868791 306.45576508 -74 295 C-73.26652344 293.9996875 -72.53304687 292.999375 -71.77734375 291.96875 C-67.69964804 286.46828567 -63.54192095 281.12421851 -59 276 C-59.495 275.01 -59.495 275.01 -60 274 Z M-49 274 C-61.06771792 290.17587721 -63.82140301 308.49514929 -66 328 C-63.34439955 326.40630611 -62.16351466 325.60029301 -61.33398438 322.55493164 C-61.25470703 321.59965576 -61.17542969 320.64437988 -61.09375 319.66015625 C-60.99223633 318.60272217 -60.89072266 317.54528809 -60.78613281 316.45581055 C-60.69170898 315.33601807 -60.59728516 314.21622559 -60.5 313.0625 C-59.11893208 299.69546527 -56.56747091 289.82765533 -49.29296875 278.3984375 C-48.86628906 277.60695313 -48.43960938 276.81546875 -48 276 C-48.33 275.34 -48.66 274.68 -49 274 Z M-44 274 C-55.76525795 288.18506278 -59.33878009 302.96937086 -59 321 C-54.49338691 316.72449527 -53.00707366 314.25637248 -52.625 308.125 C-51.67717154 297.37351303 -48.99903391 288.21000249 -44.109375 278.58203125 C-43.74328125 277.72996094 -43.3771875 276.87789063 -43 276 C-43.33 275.34 -43.66 274.68 -44 274 Z M-55 277 C-54 279 -54 279 -54 279 Z M-16 277 C-15 279 -15 279 -15 279 Z M-57 280 C-56 282 -56 282 -56 282 Z M-61 281 C-60 283 -60 283 -60 283 Z M-58 282 C-66.69781978 298.42441899 -71.70177028 314.98401584 -76 333 C-72.45481116 331.60240095 -72.45481116 331.60240095 -69 330 C-66.78789632 323.90802861 -65.88076199 317.41143685 -64.97387695 311.01928711 C-63.83657365 303.01041154 -62.29857428 296.03335294 -59.0859375 288.56640625 C-58.15576322 286.36811667 -57.49522867 284.32757477 -57 282 C-57.33 282 -57.66 282 -58 282 Z M-63 284 C-73.7529837 300.35924016 -80.33841094 315.67990814 -84 335 C-81.02604856 334.39679343 -81.02604856 334.39679343 -78 333 C-76.60851051 330.66815511 -76.60851051 330.66815511 -76 327.6875 C-75.68804687 326.52605469 -75.37609375 325.36460937 -75.0546875 324.16796875 C-74.8067041 323.18449463 -74.8067041 323.18449463 -74.55371094 322.18115234 C-73.47610393 317.93629301 -72.30315845 313.71787504 -71.125 309.5 C-70.87484131 308.59749512 -70.62468262 307.69499023 -70.36694336 306.76513672 C-68.49966949 300.23353006 -66.13126096 294.34386515 -63.00390625 288.30078125 C-62.67261719 287.54152344 -62.34132813 286.78226562 -62 286 C-62.33 285.34 -62.66 284.68 -63 284 Z M-35 285 C-34.54995804 301.92157752 -31.95829362 318.80313959 -21.66015625 332.82421875 C-19.25458477 334.52792937 -16.88533688 334.67940701 -14 335 C-14.86350912 333.27298177 -15.72706228 331.54598555 -16.59082031 329.8190918 C-17.32662651 328.346988 -18.06164288 326.87448917 -18.79589844 325.40161133 C-20.34778078 322.29065565 -21.90440655 319.18448295 -23.50390625 316.09765625 C-28.66915675 306.10718742 -31.6934002 295.99129755 -34 285 C-34.33 285 -34.66 285 -35 285 Z M-38 293 C-38.53980217 309.11409441 -35.33167599 319.26559825 -27 333 C-26.01 332.505 -26.01 332.505 -25 332 C-25.39832031 331.26136719 -25.79664063 330.52273438 -26.20703125 329.76171875 C-32.49765129 317.71617624 -34.57755875 306.33747856 -36 293 C-36.66 293 -37.32 293 -38 293 Z M-43 294 C-42 297 -42 297 -42 297 Z M-42 299 C-45.74335517 307.38511557 -45.01049701 312.7319545 -41.8125 321.1875 C-39.62637 326.24372466 -37.59465376 329.00813244 -33 332 C-32.01 331.505 -32.01 331.505 -31 331 C-31.39832031 330.26136719 -31.79664063 329.52273438 -32.20703125 328.76171875 C-37.30435788 319.00114441 -40.10178415 309.95823331 -41 299 C-41.33 299 -41.66 299 -42 299 Z M-78 303 C-77 305 -77 305 -77 305 Z M-79 305 C-84.92481091 313.64583518 -91.09548277 322.82538813 -94 333 C-93.67 333.66 -93.34 334.32 -93 335 C-90.69 335 -88.38 335 -86 335 C-84.85110408 330.93835976 -83.7064204 326.87554409 -82.5625 322.8125 C-82.23701172 321.66201172 -81.91152344 320.51152344 -81.57617188 319.32617188 C-81.26357422 318.21435547 -80.95097656 317.10253906 -80.62890625 315.95703125 C-80.34088135 314.93585205 -80.05285645 313.91467285 -79.75610352 312.86254883 C-79.06667343 310.25242041 -78.49646361 307.65277767 -78 305 C-78.33 305 -78.66 305 -79 305 Z M-48 310 C-49.26384713 312.08163056 -50.01693993 313.47486215 -49.9375 315.9375 C-48.57618896 318.93238429 -46.39327587 320.79082228 -44 323 C-44.28317926 321.39431334 -44.57687791 319.79047953 -44.875 318.1875 C-45.11863281 316.84751953 -45.11863281 316.84751953 -45.3671875 315.48046875 C-45.91188449 312.77272154 -45.91188449 312.77272154 -48 310 Z M-114 420 C-114 421.65 -114 423.3 -114 425 C-113.34 424.67 -112.68 424.34 -112 424 C-112.66 422.68 -113.32 421.36 -114 420 Z M-112 424 C-111 426 -111 426 -111 426 Z M-114 427 C-114 427.99 -114 428.98 -114 430 C-113.34 429.67 -112.68 429.34 -112 429 C-112.66 428.34 -113.32 427.68 -114 427 Z M-113 434 C-112.67 434.99 -112.34 435.98 -112 437 C-111.01 436.67 -110.02 436.34 -109 436 C-110.32 435.34 -111.64 434.68 -113 434 Z M-105 444 C-104.67 444.66 -104.34 445.32 -104 446 C-102.68 445.67 -101.36 445.34 -100 445 C-101.65 444.67 -103.3 444.34 -105 444 Z M-120 448 C-117.95928485 448.33910994 -115.91737379 448.67102704 -113.875 449 C-112.16957031 449.2784375 -112.16957031 449.2784375 -110.4296875 449.5625 C-107.23862398 449.96956049 -104.21182209 450.07809902 -101 450 C-107.16572242 446.67999562 -113.7147497 443.80983313 -120 448 Z M-98 451 C-98 451.33 -98 451.66 -98 452 C-96.35 452 -94.7 452 -93 452 C-93 451.67 -93 451.34 -93 451 C-94.65 451 -96.3 451 -98 451 Z M-129 453 C-129.99 454.485 -129.99 454.485 -131 456 C-130.01 456 -129.02 456 -128 456 C-128.33 455.01 -128.66 454.02 -129 453 Z M-85 457 C-85 457.33 -85 457.66 -85 458 C-82.36 458 -79.72 458 -77 458 C-77 457.67 -77 457.34 -77 457 C-79.64 457 -82.28 457 -85 457 Z M-65 457 C-64.67 457.66 -64.34 458.32 -64 459 C-63.67 458.34 -63.34 457.68 -63 457 C-63.66 457 -64.32 457 -65 457 Z M-58 457 C-54.31265242 459.45823172 -51.30300029 460.01242616 -47 461 C-47 461.99 -47 462.98 -47 464 C-47.99 464.495 -47.99 464.495 -49 465 C-48.34 465 -47.68 465 -47 465 C-46.67 465.99 -46.34 466.98 -46 468 C-44.73735399 463.70700357 -45.37049588 461.12168689 -47 457 C-47.33 457.66 -47.66 458.32 -48 459 C-48.53625 458.67 -49.0725 458.34 -49.625 458 C-52.5391061 456.77300796 -54.86867708 456.85766714 -58 457 Z M-125 458 C-121 459 -121 459 -121 459 Z M-66 459 C-71.28 459.66 -76.56 460.32 -82 461 C-82 461.33 -82 461.66 -82 462 C-80.10424749 462.02721176 -78.20838021 462.04649136 -76.3125 462.0625 C-74.72888672 462.07990234 -74.72888672 462.07990234 -73.11328125 462.09765625 C-70.27589738 462.00865425 -67.7561081 461.64939838 -65 461 C-65.33 460.34 -65.66 459.68 -66 459 Z M-117 464 C-117 464.33 -117 464.66 -117 465 C-113.37 465 -109.74 465 -106 465 C-106 464.67 -106 464.34 -106 464 C-109.63 464 -113.26 464 -117 464 Z M-102 466 C-101 468 -101 468 -101 468 Z M-67 470 C-67 470.33 -67 470.66 -67 471 C-64.6568787 470.74438677 -62.32156597 470.40729228 -60 470 C-59.67 469.34 -59.34 468.68 -59 468 C-62.20395416 468 -64.09399739 468.74335022 -67 470 Z M-103 482 C-103 482.66 -103 483.32 -103 484 C-102.01 483.67 -101.02 483.34 -100 483 C-100.99 482.67 -101.98 482.34 -103 482 Z M-115 484 C-114.88601335 485.62580966 -114.75844341 487.25067157 -114.625 488.875 C-114.55539063 489.77992188 -114.48578125 490.68484375 -114.4140625 491.6171875 C-114.20431868 494.17941903 -114.20431868 494.17941903 -112 496 C-111.566875 495.0925 -111.13375 494.185 -110.6875 493.25 C-109.29482729 490.56781551 -107.88887243 488.33860395 -106 486 C-106.99 486 -107.98 486 -109 486 C-109.33 486.33 -109.66 486.66 -110 487 C-110.45375 486.505 -110.9075 486.01 -111.375 485.5 C-112.87635519 483.77390663 -112.87635519 483.77390663 -115 484 Z M1 496 C1.58174845 501.3086849 1.58174845 501.3086849 4 506 C3.87625 504.72125 3.7525 503.4425 3.625 502.125 C3.55539063 501.40570312 3.48578125 500.68640625 3.4140625 499.9453125 C3.13625251 497.77331755 3.13625251 497.77331755 1 496 Z M-39 498 C-39 498.99 -39 499.98 -39 501 C-38.34 501 -37.68 501 -37 501 C-36.67 501.99 -36.34 502.98 -36 504 C-35.34 503.34 -34.68 502.68 -34 502 C-35.65 500.68 -37.3 499.36 -39 498 Z M-41 502 C-41.33 502.66 -41.66 503.32 -42 504 C-41.34 504 -40.68 504 -40 504 C-40.33 503.34 -40.66 502.68 -41 502 Z M-34 503 C-34 504.32 -34 505.64 -34 507 C-33.34 507 -32.68 507 -32 507 C-32.66 505.68 -33.32 504.36 -34 503 Z M-39 505 C-38 507 -38 507 -38 507 Z M-43 510 C-42.67 511.32 -42.34 512.64 -42 514 C-41.67 512.68 -41.34 511.36 -41 510 C-41.66 510 -42.32 510 -43 510 Z M-59.69140625 512.609375 C-60.30886719 513.31578125 -60.92632812 514.0221875 -61.5625 514.75 C-62.18253906 515.44609375 -62.80257812 516.1421875 -63.44140625 516.859375 C-64.98531094 518.97982555 -65.57896851 520.43920573 -66 523 C-62.0747975 519.29909479 -59.05419844 515.45040344 -56 511 C-58.14763552 510.77022637 -58.14763552 510.77022637 -59.69140625 512.609375 Z M-38 511 C-37 513 -37 513 -37 513 Z M-39 513 C-38 515 -38 515 -38 515 Z M-44 514 C-43 516 -43 516 -43 516 Z M-33 514 C-33 515.98 -33 517.96 -33 520 C-32.67 520 -32.34 520 -32 520 C-32 518.02 -32 516.04 -32 514 C-32.33 514 -32.66 514 -33 514 Z M-40 515 C-39 517 -39 517 -39 517 Z M-45 516 C-44 518 -44 518 -44 518 Z M-54 519 C-54.99 520.485 -54.99 520.485 -56 522 C-55.01 521.67 -54.02 521.34 -53 521 C-53.33 520.34 -53.66 519.68 -54 519 Z M-67 523 C-66 525 -66 525 -66 525 Z " fill="#f2c3cf" transform="translate(165,36)"/>
<path d="M0 0 C0.33 0 0.66 0 1 0 C1 1.98 1 3.96 1 6 C0.67 6 0.34 6 0 6 C0 4.02 0 2.04 0 0 Z " fill="#f2c3cf" transform="translate(140,233)"/>
<path d="M0 0 C0.33 0 0.66 0 1 0 C1 1.65 1 3.3 1 5 C0.67 5 0.34 5 0 5 C0 3.35 0 1.7 0 0 Z " fill="#3D5A84" transform="translate(134,211)"/>
<path d="M0 0 C0.33 0 0.66 0 1 0 C1 1.65 1 3.3 1 5 C0.67 5 0.34 5 0 5 C0 3.35 0 1.7 0 0 Z " fill="#3D5A84" transform="translate(84,199)"/>
<path d="M0 0 C1 4 1 4 1 4 Z " fill="#3E5B84" transform="translate(134,225)"/>
<path d="" fill="#3D5B84" transform="translate(0,0)"/>
<path d="" fill="#3E5B84" transform="translate(0,0)"/>
<path d="" fill="#f2c3cf" transform="translate(0,0)"/>
<path d="" fill="#3E5A84" transform="translate(0,0)"/>
<path d="" fill="#f2c3cf" transform="translate(0,0)"/>
<path d="" fill="#3D5A84" transform="translate(0,0)"/>
<path d="" fill="#3E5B84" transform="translate(0,0)"/>
<path d="" fill="#3E5A84" transform="translate(0,0)"/>
<path d="" fill="#3D5B84" transform="translate(0,0)"/>
<path d="" fill="#3E5B84" transform="translate(0,0)"/>
<path d="" fill="#3E5B84" transform="translate(0,0)"/>
<path d="" fill="#3E5B84" transform="translate(0,0)"/>
<path d="" fill="#3E5B84" transform="translate(0,0)"/>
<path d="" fill="#3D5B84" transform="translate(0,0)"/>
<path d="" fill="#3D5B84" transform="translate(0,0)"/>
<path d="" fill="#3D5A84" transform="translate(0,0)"/>
<path d="" fill="#3D5B84" transform="translate(0,0)"/>
<path d="" fill="#3D5A84" transform="translate(0,0)"/>
<path d="" fill="#3D5A84" transform="translate(0,0)"/>
<path d="" fill="#3E5B84" transform="translate(0,0)"/>
<path d="" fill="#3E5B84" transform="translate(0,0)"/>
<path d="" fill="#3E5B84" transform="translate(0,0)"/>
<path d="" fill="#3D5B84" transform="translate(0,0)"/>
<path d="" fill="#3E5A83" transform="translate(0,0)"/>
<path d="" fill="#3E5A83" transform="translate(0,0)"/>
<path d="" fill="#3E5A84" transform="translate(0,0)"/>
<path d="" fill="#3E5B84" transform="translate(0,0)"/>
<path d="" fill="#3E5B84" transform="translate(0,0)"/>
<path d="" fill="#3E5B84" transform="translate(0,0)"/>
<path d="" fill="#3E5B84" transform="translate(0,0)"/>
<path d="" fill="#3D5B84" transform="translate(0,0)"/>
<path d="" fill="#3E5B84" transform="translate(0,0)"/>
<path d="" fill="#3E5B83" transform="translate(0,0)"/>
<path d="" fill="#3E5B84" transform="translate(0,0)"/>
<path d="" fill="#f2c3cf" transform="translate(0,0)"/>
<path d="" fill="#3E5B84" transform="translate(0,0)"/>
<path d="" fill="#3E5B84" transform="translate(0,0)"/>
<path d="" fill="#3D5A84" transform="translate(0,0)"/>
<path d="" fill="#3E5B84" transform="translate(0,0)"/>
<path d="" fill="#3E5B84" transform="translate(0,0)"/>
<path d="" fill="#3E5A84" transform="translate(0,0)"/>
<path d="" fill="#3E5B84" transform="translate(0,0)"/>
<path d="" fill="#3E5B83" transform="translate(0,0)"/>
<path d="" fill="#3E5A84" transform="translate(0,0)"/>
<path d="" fill="#3E5B84" transform="translate(0,0)"/>
<path d="" fill="#3E5B84" transform="translate(0,0)"/>
<path d="" fill="#3D5B84" transform="translate(0,0)"/>
<path d="" fill="#3D5B83" transform="translate(0,0)"/>
<path d="" fill="#3E5B84" transform="translate(0,0)"/>
<path d="" fill="#3E5B84" transform="translate(0,0)"/>
<path d="" fill="#3E5B84" transform="translate(0,0)"/>
<path d="" fill="#3E5B84" transform="translate(0,0)"/>
<path d="" fill="#3E5B84" transform="translate(0,0)"/>
<path d="" fill="#3E5B84" transform="translate(0,0)"/>
<path d="" fill="#3E5B84" transform="translate(0,0)"/>
<path d="" fill="#3E5B84" transform="translate(0,0)"/>
<path d="" fill="#3E5B84" transform="translate(0,0)"/>
<path d="" fill="#3E5B84" transform="translate(0,0)"/>
<path d="" fill="#3D5B84" transform="translate(0,0)"/>
<path d="" fill="#3D5B83" transform="translate(0,0)"/>
<path d="" fill="#3D5B83" transform="translate(0,0)"/>
<path d="" fill="#3D5A84" transform="translate(0,0)"/>
<path d="" fill="#3E5B84" transform="translate(0,0)"/>
<path d="" fill="#3D5A84" transform="translate(0,0)"/>
<path d="" fill="#3E5B84" transform="translate(0,0)"/>
<path d="" fill="#3E5B84" transform="translate(0,0)"/>
<path d="" fill="#3E5B84" transform="translate(0,0)"/>
<path d="" fill="#3E5B84" transform="translate(0,0)"/>
<path d="" fill="#3E5A84" transform="translate(0,0)"/>
<path d="" fill="#3E5B84" transform="translate(0,0)"/>
<path d="" fill="#3E5B84" transform="translate(0,0)"/>
<path d="" fill="#3E5B84" transform="translate(0,0)"/>
<path d="" fill="#3D5B83" transform="translate(0,0)"/>
<path d="" fill="#3E5B84" transform="translate(0,0)"/>
<path d="" fill="#3E5B84" transform="translate(0,0)"/>
<path d="" fill="#3E5B83" transform="translate(0,0)"/>
<path d="" fill="#3E5B84" transform="translate(0,0)"/>
<path d="" fill="#3E5B84" transform="translate(0,0)"/>
<path d="" fill="#3D5A84" transform="translate(0,0)"/>
<path d="" fill="#3E5B84" transform="translate(0,0)"/>
<path d="" fill="#3E5B84" transform="translate(0,0)"/>
<path d="" fill="#3E5B84" transform="translate(0,0)"/>
<path d="" fill="#3E5B84" transform="translate(0,0)"/>
<path d="" fill="#3E5B84" transform="translate(0,0)"/>
<path d="" fill="#3E5B84" transform="translate(0,0)"/>
<path d="" fill="#3E5B83" transform="translate(0,0)"/>
<path d="" fill="#3E5A83" transform="translate(0,0)"/>
<path d="" fill="#3E5B84" transform="translate(0,0)"/>
<path d="" fill="#3E5B84" transform="translate(0,0)"/>
<path d="" fill="#3E5B84" transform="translate(0,0)"/>
<path d="" fill="#3D5A84" transform="translate(0,0)"/>
<path d="" fill="#3D5A84" transform="translate(0,0)"/>
<path d="" fill="#3E5B84" transform="translate(0,0)"/>
<path d="" fill="#3E5B84" transform="translate(0,0)"/>
<path d="" fill="#3E5B84" transform="translate(0,0)"/>
<path d="" fill="#3E5B84" transform="translate(0,0)"/>
<path d="" fill="#3E5B84" transform="translate(0,0)"/>
<path d="" fill="#3D5B84" transform="translate(0,0)"/>
<path d="" fill="#3D5A84" transform="translate(0,0)"/>
<path d="" fill="#3E5B84" transform="translate(0,0)"/>
<path d="" fill="#3D5A84" transform="translate(0,0)"/>
<path d="" fill="#3E5B84" transform="translate(0,0)"/>
<path d="" fill="#f2c3cf" transform="translate(0,0)"/>
<path d="" fill="#f2c3cf" transform="translate(0,0)"/>
<path d="" fill="#3E5B84" transform="translate(0,0)"/>
<path d="" fill="#3E5B84" transform="translate(0,0)"/>
<path d="" fill="#f2c3cf" transform="translate(0,0)"/>
<path d="" fill="#3E5B84" transform="translate(0,0)"/>
<path d="" fill="#3E5B84" transform="translate(0,0)"/>
<path d="" fill="#3E5B84" transform="translate(0,0)"/>
<path d="" fill="#3E5B84" transform="translate(0,0)"/>
<path d="" fill="#3D5B84" transform="translate(0,0)"/>
<path d="" fill="#3E5B84" transform="translate(0,0)"/>
<path d="" fill="#3E5B84" transform="translate(0,0)"/>
<path d="" fill="#3E5A84" transform="translate(0,0)"/>
<path d="" fill="#3E5B84" transform="translate(0,0)"/>
</svg>
