<?xml version="1.0" encoding="UTF-8"?>
<svg version="1.1" xmlns="http://www.w3.org/2000/svg" width="141" height="259">
<path d="M0 0 C2.7927379 1.94244558 5.44432253 3.97613009 8.07421875 6.1328125 C8.698125 6.64199219 9.32203125 7.15117187 9.96484375 7.67578125 C19.20744085 16.07617908 25.26497918 28.15127364 30.87915039 39.13061523 C32.96580769 43.17488225 35.17933432 46.89518215 37.88671875 50.5703125 C44.35553694 59.39552153 46.16256653 68.38334132 46.2512207 79.21606445 C46.2577919 79.88733368 46.2643631 80.55860291 46.27113342 81.25021362 C46.29072049 83.45717535 46.30251101 85.66406869 46.3125 87.87109375 C46.31657553 88.63759939 46.32065105 89.40410503 46.32485008 90.19383812 C46.34567279 94.2697662 46.35997763 98.34566123 46.36938477 102.42163086 C46.37814986 105.7369275 46.3988 109.05179194 46.4309082 112.36694336 C46.69214591 139.95806536 44.81004684 165.70663699 36.07421875 192.1328125 C35.68492187 193.31746094 35.295625 194.50210938 34.89453125 195.72265625 C27.27112705 216.98932522 15.07726761 236.83039048 -4.92578125 248.1328125 C-5.67214844 248.57109375 -6.41851562 249.009375 -7.1875 249.4609375 C-16.13773754 253.89700637 -27.88752979 253.59194453 -37.43359375 251.28515625 C-44.71173828 248.48221547 -50.92459698 244.05416585 -56.92578125 239.1328125 C-57.86164062 238.36904297 -57.86164062 238.36904297 -58.81640625 237.58984375 C-68.82595207 228.49238271 -75.3049303 215.21205841 -80.92578125 203.1328125 C-81.80314294 207.53971322 -81.92292779 211.52639114 -81.73828125 216.0078125 C-81.66533994 222.26750308 -82.57098442 225.89094246 -85.92578125 231.1328125 C-86.58578125 230.8028125 -87.24578125 230.4728125 -87.92578125 230.1328125 C-88.35391631 227.22208874 -88.67823987 224.37226006 -88.92578125 221.4453125 C-89.39633128 216.01220237 -90.09309989 211.30570344 -91.92578125 206.1328125 C-92.14823671 204.451757 -92.31850305 202.76262613 -92.42578125 201.0703125 C-92.73131909 197.34830613 -93.52248087 194.59428678 -94.92578125 191.1328125 C-95.36328125 184.7890625 -95.36328125 184.7890625 -92.92578125 181.1328125 C-90.80078125 179.9453125 -90.80078125 179.9453125 -88.92578125 179.1328125 C-89.07200928 178.42261963 -89.2182373 177.71242676 -89.36889648 176.98071289 C-90.03785917 173.71975199 -90.70060925 170.45755732 -91.36328125 167.1953125 C-91.59337891 166.07833984 -91.82347656 164.96136719 -92.06054688 163.81054688 C-92.28291016 162.71162109 -92.50527344 161.61269531 -92.734375 160.48046875 C-92.93861084 159.48023682 -93.14284668 158.48000488 -93.35327148 157.44946289 C-94.62623467 150.07496188 -95.09782316 142.80081373 -95.1640625 135.32421875 C-95.17385635 134.40813339 -95.18365021 133.49204803 -95.19374084 132.54820251 C-95.42849973 104.89851433 -93.66660033 79.57408593 -84.92578125 53.1328125 C-84.53648438 51.94816406 -84.1471875 50.76351562 -83.74609375 49.54296875 C-76.12268955 28.27629978 -63.92883011 8.43523452 -43.92578125 -2.8671875 C-43.17941406 -3.30546875 -42.43304688 -3.74375 -41.6640625 -4.1953125 C-28.32498528 -10.80665269 -11.98894491 -7.65115577 0 0 Z M-50.92578125 5.1328125 C-51.6528125 5.68453125 -52.37984375 6.23625 -53.12890625 6.8046875 C-79.30697538 28.2231077 -88.71184179 67.37977089 -92.15161133 99.25927734 C-94.69362202 126.49191305 -92.67105026 153.63109569 -85.92578125 180.1328125 C-85.26578125 179.8028125 -84.60578125 179.4728125 -83.92578125 179.1328125 C-84.96438811 172.74047002 -86.06720871 166.36858641 -87.28515625 160.0078125 C-95.43369443 115.21794774 -90.25219495 61.40024411 -64.16894531 22.86865234 C-56.50826231 12.17197989 -46.65332538 2.87950089 -33.58203125 -0.4296875 C-21.2658581 -2.45823367 -10.5393057 -0.31966466 -0.23828125 6.7578125 C12.53618751 16.74645737 21.05518621 30.21607969 27.07421875 45.1328125 C28.69573752 40.26825619 26.22864886 36.59689102 24.07421875 32.1328125 C14.59481164 15.10907106 2.10640518 1.19996969 -16.9609375 -4.47265625 C-29.49733904 -6.98990586 -41.11900724 -2.52649275 -50.92578125 5.1328125 Z M-50.92578125 11.1328125 C-51.59996094 11.69484375 -52.27414063 12.256875 -52.96875 12.8359375 C-75.93001065 33.91813291 -85.81204518 71.23461729 -87.92578125 101.1328125 C-88.0220063 103.98939441 -88.02309857 106.83761377 -87.98828125 109.6953125 C-87.98376953 110.41783203 -87.97925781 111.14035156 -87.97460938 111.88476562 C-87.96302404 113.63415194 -87.94509887 115.38349449 -87.92578125 117.1328125 C-86.93578125 117.1328125 -85.94578125 117.1328125 -84.92578125 117.1328125 C-80.13667159 117.39043357 -77.92005294 118.63538678 -74.63476562 122.13085938 C-73.94350586 122.90526367 -73.94350586 122.90526367 -73.23828125 123.6953125 C-71.51636459 125.59106522 -69.78436701 127.36175826 -67.92578125 129.1328125 C-66.93578125 129.1328125 -65.94578125 129.1328125 -64.92578125 129.1328125 C-64.59578125 131.7728125 -64.26578125 134.4128125 -63.92578125 137.1328125 C-64.58578125 135.8128125 -65.24578125 134.4928125 -65.92578125 133.1328125 C-66.21582031 134.39738281 -66.21582031 134.39738281 -66.51171875 135.6875 C-66.77210937 136.78320312 -67.0325 137.87890625 -67.30078125 139.0078125 C-67.68363281 140.64363281 -67.68363281 140.64363281 -68.07421875 142.3125 C-68.92578125 145.1328125 -68.92578125 145.1328125 -70.92578125 147.1328125 C-70.75140777 152.10245681 -69.82395538 156.61281455 -68.57299805 161.41918945 C-66.38325827 169.91505221 -65.30198289 178.27295057 -64.48828125 187.0078125 C-63.39285487 198.47495934 -61.44714757 209.1712744 -57.92578125 220.1328125 C-57.56097656 221.298125 -57.19617188 222.4634375 -56.8203125 223.6640625 C-55.12111875 229.29141756 -55.12111875 229.29141756 -50.92578125 233.1328125 C-51.45330134 227.46662615 -52.01384139 221.80496173 -52.609375 216.14550781 C-52.82190765 214.1218559 -53.03017928 212.09775233 -53.234375 210.07324219 C-53.54791051 207.02788335 -53.88986125 203.98685788 -54.23828125 200.9453125 C-54.37810425 199.53173462 -54.37810425 199.53173462 -54.52075195 198.08959961 C-55.22682258 192.22061553 -56.78230693 188.22141041 -59.84545898 183.18920898 C-61.42818226 180.17649076 -61.45383466 177.61693197 -61.30078125 174.2578125 C-61.26726563 173.16726562 -61.23375 172.07671875 -61.19921875 170.953125 C-60.69426806 165.74491929 -58.84305491 163.50348984 -54.92578125 160.1328125 C-53.60578125 160.1328125 -52.28578125 160.1328125 -50.92578125 160.1328125 C-49.30078125 162.6328125 -49.30078125 162.6328125 -47.92578125 165.1328125 C-47.26578125 165.1328125 -46.60578125 165.1328125 -45.92578125 165.1328125 C-45.92578125 165.7928125 -45.92578125 166.4528125 -45.92578125 167.1328125 C-45.26578125 167.4628125 -44.60578125 167.7928125 -43.92578125 168.1328125 C-44.58578125 168.4628125 -45.24578125 168.7928125 -45.92578125 169.1328125 C-45.43078125 173.5878125 -45.43078125 173.5878125 -44.92578125 178.1328125 C-44.59578125 178.1328125 -44.26578125 178.1328125 -43.92578125 178.1328125 C-43.92578125 176.1528125 -43.92578125 174.1728125 -43.92578125 172.1328125 C-43.26578125 172.1328125 -42.60578125 172.1328125 -41.92578125 172.1328125 C-41.92578125 175.7628125 -41.92578125 179.3928125 -41.92578125 183.1328125 C-42.91578125 182.8028125 -43.90578125 182.4728125 -44.92578125 182.1328125 C-50.18155168 186.89396914 -50.18155168 186.89396914 -52.00097656 193.4284668 C-51.91944336 194.26289307 -51.83791016 195.09731934 -51.75390625 195.95703125 C-51.66737793 196.89603271 -51.58084961 197.83503418 -51.49169922 198.80249023 C-51.38744629 199.79837158 -51.28319336 200.79425293 -51.17578125 201.8203125 C-51.02906982 203.34797241 -51.02906982 203.34797241 -50.87939453 204.90649414 C-50.02206508 213.66291426 -49.02714693 222.40390369 -47.92578125 231.1328125 C-39.31510495 222.5221362 -38.8972799 203.62918455 -38.8828125 192.1015625 C-38.89699219 191.121875 -38.91117188 190.1421875 -38.92578125 189.1328125 C-38.26578125 188.8028125 -37.60578125 188.4728125 -36.92578125 188.1328125 C-33.88285807 198.79261258 -33.26336365 209.10900105 -32.92578125 220.1328125 C-32.59578125 220.1328125 -32.26578125 220.1328125 -31.92578125 220.1328125 C-32.25578125 225.4128125 -32.58578125 230.6928125 -32.92578125 236.1328125 C-33.58578125 236.1328125 -34.24578125 236.1328125 -34.92578125 236.1328125 C-35.25578125 234.8128125 -35.58578125 233.4928125 -35.92578125 232.1328125 C-35.92578125 233.7828125 -35.92578125 235.4328125 -35.92578125 237.1328125 C-35.26578125 237.1328125 -34.60578125 237.1328125 -33.92578125 237.1328125 C-33.92578125 238.7828125 -33.92578125 240.4328125 -33.92578125 242.1328125 C-34.58578125 242.4628125 -35.24578125 242.7928125 -35.92578125 243.1328125 C-24.85761778 246.2396654 -15.369703 245.26251628 -5.14453125 239.58984375 C-2.61643826 237.88494153 -0.26487735 236.08811908 2.07421875 234.1328125 C2.74839844 233.57078125 3.42257813 233.00875 4.1171875 232.4296875 C30.39017601 208.30678388 37.94882996 166.53449237 39.82421875 132.7578125 C39.90965942 131.38435669 39.90965942 131.38435669 39.99682617 129.9831543 C40.23978154 124.7312134 39.8931867 120.20024403 38.48388672 115.12475586 C37.82802441 111.93573287 38.40205304 109.29199133 39.07421875 106.1328125 C38.08421875 106.1328125 37.09421875 106.1328125 36.07421875 106.1328125 C36.38661499 104.81398071 36.38661499 104.81398071 36.70532227 103.46850586 C37.12205548 99.70025575 36.60315399 98.13587775 34.9765625 94.76171875 C34.50412109 93.77494141 34.03167969 92.78816406 33.54492188 91.77148438 C33.03896484 90.75634766 32.53300781 89.74121094 32.01171875 88.6953125 C31.53283203 87.68404297 31.05394531 86.67277344 30.56054688 85.63085938 C27.79893405 79.96345313 25.00512658 74.23342714 20.07421875 70.1328125 C17.53652261 69.20682455 17.53652261 69.20682455 15.01171875 69.3828125 C10.88088606 69.2399416 8.34736204 68.89452715 5.07421875 66.1328125 C3.08001715 62.92630849 2.71599609 60.11769519 2.44921875 56.3828125 C2.33707031 54.90554687 2.33707031 54.90554687 2.22265625 53.3984375 C2.17367187 52.65078125 2.1246875 51.903125 2.07421875 51.1328125 C1.74421875 52.1228125 1.41421875 53.1128125 1.07421875 54.1328125 C0.41421875 54.1328125 -0.24578125 54.1328125 -0.92578125 54.1328125 C-0.92578125 52.1528125 -0.92578125 50.1728125 -0.92578125 48.1328125 C0.06421875 48.1328125 1.05421875 48.1328125 2.07421875 48.1328125 C2.07421875 47.4728125 2.07421875 46.8128125 2.07421875 46.1328125 C3.24984375 46.4421875 4.42546875 46.7515625 5.63671875 47.0703125 C9.42589608 48.02432523 13.2022225 48.60136203 17.07421875 49.1328125 C18.55921875 49.6278125 18.55921875 49.6278125 20.07421875 50.1328125 C21.19921875 52.5703125 21.19921875 52.5703125 22.07421875 55.1328125 C22.40421875 55.7928125 22.73421875 56.4528125 23.07421875 57.1328125 C23.10060626 58.71606301 23.12032275 60.299427 23.13671875 61.8828125 C23.71927754 69.71614771 27.93724764 75.67762979 32.07421875 82.1328125 C34.57695626 78.37870623 34.45816114 75.47175323 34.07421875 71.1328125 C33.50359928 68.41688328 32.88730511 65.89404016 32.07421875 63.2578125 C31.74309082 62.16859497 31.74309082 62.16859497 31.40527344 61.05737305 C24.70371217 39.88488296 13.43917751 17.32916843 -5.92578125 5.1328125 C-22.0724536 -2.7836427 -37.06354279 -0.45496542 -50.92578125 11.1328125 Z M28.07421875 45.1328125 C29.07421875 47.1328125 29.07421875 47.1328125 29.07421875 47.1328125 Z M29.07421875 48.1328125 C30.07421875 50.1328125 30.07421875 50.1328125 30.07421875 50.1328125 Z M3.07421875 49.1328125 C3.84901611 52.12433832 3.84901611 52.12433832 5.07421875 55.1328125 C6.06421875 55.4628125 7.05421875 55.7928125 8.07421875 56.1328125 C8.45555174 54.1414069 8.78747457 52.14002173 9.07421875 50.1328125 C8.0077676 48.83647629 8.0077676 48.83647629 5.51171875 49.0703125 C4.70734375 49.0909375 3.90296875 49.1115625 3.07421875 49.1328125 Z M12.07421875 49.1328125 C11.41421875 51.4428125 10.75421875 53.7528125 10.07421875 56.1328125 C10.62851563 56.37515625 11.1828125 56.6175 11.75390625 56.8671875 C12.47835937 57.20234375 13.2028125 57.5375 13.94921875 57.8828125 C14.66851562 58.20765625 15.3878125 58.5325 16.12890625 58.8671875 C18.41128615 60.35210936 19.07797773 61.63696658 20.07421875 64.1328125 C19.33171875 63.5140625 18.58921875 62.8953125 17.82421875 62.2578125 C13.22510802 58.70395421 9.89194778 57.80408893 4.07421875 57.1328125 C4.40421875 59.1128125 4.73421875 61.0928125 5.07421875 63.1328125 C5.67234375 63.2565625 6.27046875 63.3803125 6.88671875 63.5078125 C9.07421875 64.1328125 9.07421875 64.1328125 12.07421875 66.1328125 C12.07421875 65.4728125 12.07421875 64.8128125 12.07421875 64.1328125 C12.63109375 64.4834375 13.18796875 64.8340625 13.76171875 65.1953125 C16.61308658 66.35127243 18.15939097 65.94248688 21.07421875 65.1328125 C21.70190971 59.98574659 20.3879635 57.57521796 17.36328125 53.6484375 C15.71753448 51.71343826 14.36270874 50.27705749 12.07421875 49.1328125 Z M35.07421875 62.1328125 C36.07421875 65.1328125 36.07421875 65.1328125 36.07421875 65.1328125 Z M36.07421875 65.1328125 C35.85301936 67.75731336 35.64675206 70.38151736 35.44921875 73.0078125 C35.38476562 73.75417969 35.3203125 74.50054687 35.25390625 75.26953125 C35.1133451 77.2198172 35.08662026 79.17750717 35.07421875 81.1328125 C35.73421875 81.7928125 36.39421875 82.4528125 37.07421875 83.1328125 C38.14952892 74.09902316 38.14952892 74.09902316 37.07421875 65.1328125 C36.74421875 65.1328125 36.41421875 65.1328125 36.07421875 65.1328125 Z M21.07421875 67.1328125 C22.07421875 69.1328125 22.07421875 69.1328125 22.07421875 69.1328125 Z M42.07421875 70.1328125 C43.07421875 72.1328125 43.07421875 72.1328125 43.07421875 72.1328125 Z M43.07421875 79.1328125 C42.84805413 82.88196041 42.64639213 86.63203699 42.44921875 90.3828125 C42.38476562 91.44628906 42.3203125 92.50976562 42.25390625 93.60546875 C42.20234375 94.63027344 42.15078125 95.65507813 42.09765625 96.7109375 C42.04528809 97.65356445 41.99291992 98.59619141 41.93896484 99.56738281 C41.92197931 102.49417195 41.92197931 102.49417195 44.07421875 106.1328125 C44.07421875 97.2228125 44.07421875 88.3128125 44.07421875 79.1328125 C43.74421875 79.1328125 43.41421875 79.1328125 43.07421875 79.1328125 Z M38.07421875 84.1328125 C38.07421875 85.7828125 38.07421875 87.4328125 38.07421875 89.1328125 C38.40421875 89.1328125 38.73421875 89.1328125 39.07421875 89.1328125 C39.07421875 87.4828125 39.07421875 85.8328125 39.07421875 84.1328125 C38.74421875 84.1328125 38.41421875 84.1328125 38.07421875 84.1328125 Z M40.07421875 89.1328125 C41.07421875 92.1328125 41.07421875 92.1328125 41.07421875 92.1328125 Z M37.07421875 103.1328125 C38.07421875 105.1328125 38.07421875 105.1328125 38.07421875 105.1328125 Z M43.07421875 117.1328125 C44.07421875 119.1328125 44.07421875 119.1328125 44.07421875 119.1328125 Z M-82.92578125 118.1328125 C-84.23840696 119.21833616 -84.23840696 119.21833616 -84.0234375 121.85546875 C-84.01183594 122.95761719 -84.00023438 124.05976563 -83.98828125 125.1953125 C-83.97925781 126.30003906 -83.97023438 127.40476563 -83.9609375 128.54296875 C-83.94933594 129.39761719 -83.93773438 130.25226563 -83.92578125 131.1328125 C-84.58578125 131.1328125 -85.24578125 131.1328125 -85.92578125 131.1328125 C-85.92578125 129.1528125 -85.92578125 127.1728125 -85.92578125 125.1328125 C-86.25578125 125.1328125 -86.58578125 125.1328125 -86.92578125 125.1328125 C-87.46908394 131.78827042 -86.69882129 135.59115994 -82.92578125 141.1328125 C-83.91578125 141.1328125 -84.90578125 141.1328125 -85.92578125 141.1328125 C-86.58578125 139.4828125 -87.24578125 137.8328125 -87.92578125 136.1328125 C-89.18917947 139.92300716 -88.4229714 141.50803634 -86.92578125 145.1328125 C-86.26578125 145.4628125 -85.60578125 145.7928125 -84.92578125 146.1328125 C-84.92578125 145.4728125 -84.92578125 144.8128125 -84.92578125 144.1328125 C-84.03890625 144.4628125 -83.15203125 144.7928125 -82.23828125 145.1328125 C-79.21654778 146.04503393 -77.04204419 146.31612208 -73.92578125 146.1328125 C-74.25578125 143.8228125 -74.58578125 141.5128125 -74.92578125 139.1328125 C-74.26578125 139.1328125 -73.60578125 139.1328125 -72.92578125 139.1328125 C-72.59578125 140.1228125 -72.26578125 141.1128125 -71.92578125 142.1328125 C-71.92578125 140.4828125 -71.92578125 138.8328125 -71.92578125 137.1328125 C-71.26578125 137.1328125 -70.60578125 137.1328125 -69.92578125 137.1328125 C-69.92578125 138.7828125 -69.92578125 140.4328125 -69.92578125 142.1328125 C-68.0393168 139.35860007 -67.93274938 138.00041796 -68.11328125 134.5703125 C-68.89029306 131.28295484 -69.22887436 130.04312155 -71.92578125 128.1328125 C-72.25578125 128.1328125 -72.58578125 128.1328125 -72.92578125 128.1328125 C-72.92578125 130.1128125 -72.92578125 132.0928125 -72.92578125 134.1328125 C-73.58578125 134.1328125 -74.24578125 134.1328125 -74.92578125 134.1328125 C-74.93996094 133.46894531 -74.95414063 132.80507812 -74.96875 132.12109375 C-75.28668922 126.13161603 -75.28668922 126.13161603 -78.36328125 121.0703125 C-80.74415648 119.14749474 -80.74415648 119.14749474 -82.92578125 118.1328125 Z M-88.92578125 122.1328125 C-87.92578125 124.1328125 -87.92578125 124.1328125 -87.92578125 124.1328125 Z M42.07421875 129.1328125 C41.97625 130.14214844 41.87828125 131.15148437 41.77734375 132.19140625 C38.07463231 168.69325226 31.48372515 210.00235364 3.07421875 236.1328125 C-7.53556733 244.45741389 -17.56872078 247.01424289 -30.92578125 246.1328125 C-32.93032231 245.82797446 -34.93224944 245.5028693 -36.92578125 245.1328125 C-36.92578125 246.1228125 -36.92578125 247.1128125 -36.92578125 248.1328125 C-26.50667451 251.83738378 -16.94851382 250.5598631 -6.92578125 246.1328125 C-3.6952486 244.38574044 -0.81793758 242.39164993 2.07421875 240.1328125 C2.80125 239.58109375 3.52828125 239.029375 4.27734375 238.4609375 C28.75999542 218.42967704 39.08813936 181.64644759 42.83984375 151.6328125 C43.34157554 144.14028447 43.21821501 136.6366177 43.07421875 129.1328125 C42.74421875 129.1328125 42.41421875 129.1328125 42.07421875 129.1328125 Z M-66.92578125 130.1328125 C-65.92578125 133.1328125 -65.92578125 133.1328125 -65.92578125 133.1328125 Z M-86.92578125 148.1328125 C-86.09244781 156.31908806 -85.20713155 164.49238939 -83.61328125 172.5703125 C-83.30970703 174.11525391 -83.30970703 174.11525391 -83 175.69140625 C-82.14983105 178.3494679 -82.14983105 178.3494679 -79.51953125 179.26171875 C-78.235625 179.69291016 -78.235625 179.69291016 -76.92578125 180.1328125 C-75.1953125 181.7890625 -75.1953125 181.7890625 -73.73828125 183.6328125 C-72.18040422 185.57296542 -70.68891515 187.3696786 -68.92578125 189.1328125 C-68.27444257 176.17840982 -69.49126942 160.63990736 -77.92578125 150.1328125 C-80.93630506 148.64230806 -83.58158051 148.16253873 -86.92578125 148.1328125 Z M-73.92578125 149.1328125 C-74.25578125 149.7928125 -74.58578125 150.4528125 -74.92578125 151.1328125 C-74.26578125 151.7928125 -73.60578125 152.4528125 -72.92578125 153.1328125 C-73.25578125 151.8128125 -73.58578125 150.4928125 -73.92578125 149.1328125 Z M-72.92578125 154.1328125 C-71.92578125 156.1328125 -71.92578125 156.1328125 -71.92578125 156.1328125 Z M-53.92578125 161.1328125 C-54.58578125 162.4528125 -55.24578125 163.7728125 -55.92578125 165.1328125 C-54.93578125 166.6178125 -54.93578125 166.6178125 -53.92578125 168.1328125 C-52.60578125 167.4728125 -51.28578125 166.8128125 -49.92578125 166.1328125 C-50.89463497 164.44784952 -51.89564848 162.78102494 -52.92578125 161.1328125 C-53.25578125 161.1328125 -53.58578125 161.1328125 -53.92578125 161.1328125 Z M-57.92578125 166.1328125 C-60.20640953 169.55375492 -60.14503132 170.81468472 -60.05078125 174.8203125 C-60.03273437 175.81417969 -60.0146875 176.80804688 -59.99609375 177.83203125 C-59.97289062 178.59128906 -59.9496875 179.35054687 -59.92578125 180.1328125 C-59.59578125 180.1328125 -59.26578125 180.1328125 -58.92578125 180.1328125 C-58.87679687 179.35035156 -58.8278125 178.56789062 -58.77734375 177.76171875 C-58.70257813 176.74980469 -58.6278125 175.73789063 -58.55078125 174.6953125 C-58.48117188 173.68597656 -58.4115625 172.67664063 -58.33984375 171.63671875 C-58.20320313 170.81042969 -58.0665625 169.98414063 -57.92578125 169.1328125 C-57.26578125 168.8028125 -56.60578125 168.4728125 -55.92578125 168.1328125 C-56.58578125 167.4728125 -57.24578125 166.8128125 -57.92578125 166.1328125 Z M-48.92578125 167.1328125 C-49.27511719 167.77089844 -49.62445313 168.40898437 -49.984375 169.06640625 C-50.43941406 169.89269531 -50.89445312 170.71898437 -51.36328125 171.5703125 C-52.04197266 172.80587891 -52.04197266 172.80587891 -52.734375 174.06640625 C-53.92578125 176.1328125 -53.92578125 176.1328125 -54.92578125 177.1328125 C-54.96671062 179.46578683 -54.96819848 181.79986475 -54.92578125 184.1328125 C-54.26578125 183.4728125 -53.60578125 182.8128125 -52.92578125 182.1328125 C-50.30078125 182.5078125 -50.30078125 182.5078125 -47.92578125 183.1328125 C-47.26578125 181.8128125 -46.60578125 180.4928125 -45.92578125 179.1328125 C-47.24578125 179.4628125 -48.56578125 179.7928125 -49.92578125 180.1328125 C-49.59578125 178.8128125 -49.26578125 177.4928125 -48.92578125 176.1328125 C-48.26578125 176.1328125 -47.60578125 176.1328125 -46.92578125 176.1328125 C-47.25578125 173.1628125 -47.58578125 170.1928125 -47.92578125 167.1328125 C-48.25578125 167.1328125 -48.58578125 167.1328125 -48.92578125 167.1328125 Z M-56.92578125 170.1328125 C-56.26578125 171.4528125 -55.60578125 172.7728125 -54.92578125 174.1328125 C-54.59578125 173.4728125 -54.26578125 172.8128125 -53.92578125 172.1328125 C-54.25578125 171.4728125 -54.58578125 170.8128125 -54.92578125 170.1328125 C-55.58578125 170.1328125 -56.24578125 170.1328125 -56.92578125 170.1328125 Z M-67.92578125 174.1328125 C-66.92578125 176.1328125 -66.92578125 176.1328125 -66.92578125 176.1328125 Z M-58.92578125 180.1328125 C-58.26578125 181.4528125 -57.60578125 182.7728125 -56.92578125 184.1328125 C-57.25578125 182.8128125 -57.58578125 181.4928125 -57.92578125 180.1328125 C-58.25578125 180.1328125 -58.58578125 180.1328125 -58.92578125 180.1328125 Z M-88.92578125 183.1328125 C-87.93578125 183.6278125 -87.93578125 183.6278125 -86.92578125 184.1328125 C-87.13203125 185.0609375 -87.33828125 185.9890625 -87.55078125 186.9453125 C-88.29271091 190.28454652 -88.29271091 190.28454652 -85.92578125 193.1328125 C-85.92578125 189.8328125 -85.92578125 186.5328125 -85.92578125 183.1328125 C-85.26578125 183.1328125 -84.60578125 183.1328125 -83.92578125 183.1328125 C-83.92578125 188.4128125 -83.92578125 193.6928125 -83.92578125 199.1328125 C-83.59578125 199.1328125 -83.26578125 199.1328125 -82.92578125 199.1328125 C-82.92578125 193.1928125 -82.92578125 187.2528125 -82.92578125 181.1328125 C-85.01006334 181.1328125 -87.02396089 182.35257851 -88.92578125 183.1328125 Z M-78.92578125 181.1328125 C-79.58578125 181.7928125 -80.24578125 182.4528125 -80.92578125 183.1328125 C-78.25330491 185.47568668 -78.25330491 185.47568668 -74.92578125 186.1328125 C-76.23473845 183.01083772 -76.23473845 183.01083772 -78.92578125 181.1328125 Z M-66.92578125 184.1328125 C-66.92578125 185.7828125 -66.92578125 187.4328125 -66.92578125 189.1328125 C-66.59578125 189.1328125 -66.26578125 189.1328125 -65.92578125 189.1328125 C-65.92578125 187.4828125 -65.92578125 185.8328125 -65.92578125 184.1328125 C-66.25578125 184.1328125 -66.58578125 184.1328125 -66.92578125 184.1328125 Z M-53.92578125 187.1328125 C-53.92578125 190.1328125 -53.92578125 190.1328125 -53.92578125 190.1328125 Z M-92.92578125 188.1328125 C-91.92578125 190.1328125 -91.92578125 190.1328125 -91.92578125 190.1328125 Z M-68.92578125 189.1328125 C-67.92578125 192.1328125 -67.92578125 192.1328125 -67.92578125 192.1328125 Z M-89.92578125 191.1328125 C-89.92578125 195.4228125 -89.92578125 199.7128125 -89.92578125 204.1328125 C-89.59578125 204.1328125 -89.26578125 204.1328125 -88.92578125 204.1328125 C-88.70332732 202.53054295 -88.49831456 200.92584483 -88.30078125 199.3203125 C-88.18476562 198.42699219 -88.06875 197.53367188 -87.94921875 196.61328125 C-87.69077382 193.87590859 -87.69077382 193.87590859 -89.92578125 191.1328125 Z M-80.92578125 191.1328125 C-80.39560591 196.77328904 -78.8779811 201.17148671 -76.42578125 206.2578125 C-76.07773438 206.9912085 -75.7296875 207.72460449 -75.37109375 208.48022461 C-71.91159555 215.54720043 -67.64706182 221.84870063 -62.92578125 228.1328125 C-62.59578125 227.4728125 -62.26578125 226.8128125 -61.92578125 226.1328125 C-62.73115007 224.29786248 -62.73115007 224.29786248 -64.0234375 222.30859375 C-64.49273682 221.53370605 -64.96203613 220.75881836 -65.44555664 219.96044922 C-65.95465576 219.1304541 -66.46375488 218.30045898 -66.98828125 217.4453125 C-71.39312607 210.10227175 -74.91207082 202.89500948 -77.8046875 194.84375 C-78.63088641 192.00707948 -78.63088641 192.00707948 -80.92578125 191.1328125 Z M-86.92578125 196.1328125 C-85.92578125 199.1328125 -85.92578125 199.1328125 -85.92578125 199.1328125 Z M-65.92578125 196.1328125 C-64.92578125 198.1328125 -64.92578125 198.1328125 -64.92578125 198.1328125 Z M-84.92578125 200.1328125 C-83.92578125 204.1328125 -83.92578125 204.1328125 -83.92578125 204.1328125 Z M-85.92578125 205.1328125 C-84.92578125 208.1328125 -84.92578125 208.1328125 -84.92578125 208.1328125 Z M-63.92578125 207.1328125 C-62.92578125 209.1328125 -62.92578125 209.1328125 -62.92578125 209.1328125 Z M-84.92578125 210.1328125 C-83.92578125 212.1328125 -83.92578125 212.1328125 -83.92578125 212.1328125 Z M-62.92578125 211.1328125 C-61.92578125 214.1328125 -61.92578125 214.1328125 -61.92578125 214.1328125 Z M-61.92578125 214.1328125 C-60.92578125 217.1328125 -60.92578125 217.1328125 -60.92578125 217.1328125 Z M-35.92578125 217.1328125 C-37.49500211 220.71960304 -38.45882763 224.28322225 -39.3515625 228.08984375 C-39.92578125 230.1328125 -39.92578125 230.1328125 -41.55078125 233.6953125 C-43.0575927 237.46234113 -43.2410491 240.11314741 -42.92578125 244.1328125 C-42.59578125 244.7928125 -42.26578125 245.4528125 -41.92578125 246.1328125 C-40.93578125 246.1328125 -39.94578125 246.1328125 -38.92578125 246.1328125 C-38.22667983 241.86379355 -37.54348945 237.59237917 -36.86328125 233.3203125 C-36.66412109 232.10537109 -36.46496094 230.89042969 -36.25976562 229.63867188 C-36.07607422 228.47529297 -35.89238281 227.31191406 -35.703125 226.11328125 C-35.53031006 225.03973389 -35.35749512 223.96618652 -35.17944336 222.86010742 C-34.73261058 220.04111552 -34.73261058 220.04111552 -35.92578125 217.1328125 Z M-60.92578125 218.1328125 C-59.92578125 220.1328125 -59.92578125 220.1328125 -59.92578125 220.1328125 Z M-59.92578125 221.1328125 C-58.92578125 223.1328125 -58.92578125 223.1328125 -58.92578125 223.1328125 Z M-33.92578125 221.1328125 C-33.92578125 222.7828125 -33.92578125 224.4328125 -33.92578125 226.1328125 C-33.59578125 226.1328125 -33.26578125 226.1328125 -32.92578125 226.1328125 C-32.92578125 224.4828125 -32.92578125 222.8328125 -32.92578125 221.1328125 C-33.25578125 221.1328125 -33.58578125 221.1328125 -33.92578125 221.1328125 Z M-58.92578125 224.1328125 C-57.92578125 226.1328125 -57.92578125 226.1328125 -57.92578125 226.1328125 Z M-34.92578125 227.1328125 C-33.92578125 230.1328125 -33.92578125 230.1328125 -33.92578125 230.1328125 Z M-36.92578125 238.1328125 C-35.92578125 242.1328125 -35.92578125 242.1328125 -35.92578125 242.1328125 Z " fill="#B03060" transform="translate(94.92578125,6.8671875)"/>
<path d="M0 0 C0.66 0 1.32 0 2 0 C2 0.99 2 1.98 2 3 C1.34 3 0.68 3 0 3 C0 2.01 0 1.02 0 0 Z " fill="#B03060" transform="translate(29,147)"/>
<path d="M0 0 C0.66 0 1.32 0 2 0 C1.67 0.99 1.34 1.98 1 3 C0.67 2.01 0.34 1.02 0 0 Z " fill="#B03060" transform="translate(94,51)"/>
<path d="M0 0 C0.66 0 1.32 0 2 0 C2 0.66 2 1.32 2 2 C1.34 2 0.68 2 0 2 C0 1.34 0 0.68 0 0 Z " fill="#B03060" transform="translate(23,141)"/>
<path d="M0 0 C0.66 0 1.32 0 2 0 C2 0.66 2 1.32 2 2 C1.34 2 0.68 2 0 2 C0 1.34 0 0.68 0 0 Z " fill="#B03060" transform="translate(8,120)"/>
</svg>
